%TF.GenerationSoftware,KiCad,Pcbnew,8.0.2*%
%TF.CreationDate,2024-06-07T10:01:40+02:00*%
%TF.ProjectId,pi-relay-board,70692d72-656c-4617-992d-626f6172642e,rev?*%
%TF.SameCoordinates,PX184bc68PY517cbe0*%
%TF.FileFunction,Copper,L1,Top*%
%TF.FilePolarity,Positive*%
%FSLAX46Y46*%
G04 Gerber Fmt 4.6, Leading zero omitted, Abs format (unit mm)*
G04 Created by KiCad (PCBNEW 8.0.2) date 2024-06-07 10:01:40*
%MOMM*%
%LPD*%
G01*
G04 APERTURE LIST*
G04 Aperture macros list*
%AMRoundRect*
0 Rectangle with rounded corners*
0 $1 Rounding radius*
0 $2 $3 $4 $5 $6 $7 $8 $9 X,Y pos of 4 corners*
0 Add a 4 corners polygon primitive as box body*
4,1,4,$2,$3,$4,$5,$6,$7,$8,$9,$2,$3,0*
0 Add four circle primitives for the rounded corners*
1,1,$1+$1,$2,$3*
1,1,$1+$1,$4,$5*
1,1,$1+$1,$6,$7*
1,1,$1+$1,$8,$9*
0 Add four rect primitives between the rounded corners*
20,1,$1+$1,$2,$3,$4,$5,0*
20,1,$1+$1,$4,$5,$6,$7,0*
20,1,$1+$1,$6,$7,$8,$9,0*
20,1,$1+$1,$8,$9,$2,$3,0*%
G04 Aperture macros list end*
%TA.AperFunction,Conductor*%
%ADD10C,0.050000*%
%TD*%
%ADD11C,0.300000*%
%TA.AperFunction,NonConductor*%
%ADD12C,0.300000*%
%TD*%
%TA.AperFunction,ComponentPad*%
%ADD13R,2.400000X2.400000*%
%TD*%
%TA.AperFunction,ComponentPad*%
%ADD14C,2.400000*%
%TD*%
%TA.AperFunction,ComponentPad*%
%ADD15C,1.600000*%
%TD*%
%TA.AperFunction,ComponentPad*%
%ADD16O,1.600000X1.600000*%
%TD*%
%TA.AperFunction,ComponentPad*%
%ADD17O,2.300000X1.600000*%
%TD*%
%TA.AperFunction,ComponentPad*%
%ADD18R,1.700000X1.700000*%
%TD*%
%TA.AperFunction,ComponentPad*%
%ADD19O,1.700000X1.700000*%
%TD*%
%TA.AperFunction,ComponentPad*%
%ADD20R,1.100000X1.800000*%
%TD*%
%TA.AperFunction,ComponentPad*%
%ADD21RoundRect,0.275000X-0.275000X-0.625000X0.275000X-0.625000X0.275000X0.625000X-0.275000X0.625000X0*%
%TD*%
%TA.AperFunction,Conductor*%
%ADD22C,0.800000*%
%TD*%
%TA.AperFunction,Conductor*%
%ADD23C,1.500000*%
%TD*%
%TA.AperFunction,Conductor*%
%ADD24C,0.500000*%
%TD*%
G04 APERTURE END LIST*
%TO.N,GND*%
D10*
X-9423600Y70000000D02*
X90576400Y70000000D01*
X90576400Y0D01*
X-9423600Y0D01*
X-9423600Y70000000D01*
D11*
D12*
X30750596Y56180772D02*
X30750596Y57680772D01*
X30750596Y57680772D02*
X30179167Y57680772D01*
X30179167Y57680772D02*
X30036310Y57609343D01*
X30036310Y57609343D02*
X29964881Y57537915D01*
X29964881Y57537915D02*
X29893453Y57395058D01*
X29893453Y57395058D02*
X29893453Y57180772D01*
X29893453Y57180772D02*
X29964881Y57037915D01*
X29964881Y57037915D02*
X30036310Y56966486D01*
X30036310Y56966486D02*
X30179167Y56895058D01*
X30179167Y56895058D02*
X30750596Y56895058D01*
X29250596Y56180772D02*
X29250596Y57680772D01*
X26536310Y56180772D02*
X27036310Y56895058D01*
X27393453Y56180772D02*
X27393453Y57680772D01*
X27393453Y57680772D02*
X26822024Y57680772D01*
X26822024Y57680772D02*
X26679167Y57609343D01*
X26679167Y57609343D02*
X26607738Y57537915D01*
X26607738Y57537915D02*
X26536310Y57395058D01*
X26536310Y57395058D02*
X26536310Y57180772D01*
X26536310Y57180772D02*
X26607738Y57037915D01*
X26607738Y57037915D02*
X26679167Y56966486D01*
X26679167Y56966486D02*
X26822024Y56895058D01*
X26822024Y56895058D02*
X27393453Y56895058D01*
X25893453Y56966486D02*
X25393453Y56966486D01*
X25179167Y56180772D02*
X25893453Y56180772D01*
X25893453Y56180772D02*
X25893453Y57680772D01*
X25893453Y57680772D02*
X25179167Y57680772D01*
X23822024Y56180772D02*
X24536310Y56180772D01*
X24536310Y56180772D02*
X24536310Y57680772D01*
X23393452Y56609343D02*
X22679167Y56609343D01*
X23536309Y56180772D02*
X23036309Y57680772D01*
X23036309Y57680772D02*
X22536309Y56180772D01*
X21750595Y56895058D02*
X21750595Y56180772D01*
X22250595Y57680772D02*
X21750595Y56895058D01*
X21750595Y56895058D02*
X21250595Y57680772D01*
X20822024Y56252200D02*
X20607739Y56180772D01*
X20607739Y56180772D02*
X20250596Y56180772D01*
X20250596Y56180772D02*
X20107739Y56252200D01*
X20107739Y56252200D02*
X20036310Y56323629D01*
X20036310Y56323629D02*
X19964881Y56466486D01*
X19964881Y56466486D02*
X19964881Y56609343D01*
X19964881Y56609343D02*
X20036310Y56752200D01*
X20036310Y56752200D02*
X20107739Y56823629D01*
X20107739Y56823629D02*
X20250596Y56895058D01*
X20250596Y56895058D02*
X20536310Y56966486D01*
X20536310Y56966486D02*
X20679167Y57037915D01*
X20679167Y57037915D02*
X20750596Y57109343D01*
X20750596Y57109343D02*
X20822024Y57252200D01*
X20822024Y57252200D02*
X20822024Y57395058D01*
X20822024Y57395058D02*
X20750596Y57537915D01*
X20750596Y57537915D02*
X20679167Y57609343D01*
X20679167Y57609343D02*
X20536310Y57680772D01*
X20536310Y57680772D02*
X20179167Y57680772D01*
X20179167Y57680772D02*
X19964881Y57609343D01*
%TD*%
D13*
%TO.P,J8,1,Pin_1*%
%TO.N,Net-(J8-Pin_1)*%
X75503800Y54356000D03*
D14*
%TO.P,J8,2,Pin_2*%
%TO.N,Net-(J8-Pin_2)*%
X72003800Y54356000D03*
%TO.P,J8,3,Pin_3*%
%TO.N,Net-(J8-Pin_3)*%
X68503800Y54356000D03*
%TD*%
D15*
%TO.P,R9,1*%
%TO.N,/Relay Pin 9/K*%
X12369800Y43688000D03*
D16*
%TO.P,R9,2*%
%TO.N,Net-(Q9-B)*%
X19989800Y43688000D03*
%TD*%
D15*
%TO.P,R5,1*%
%TO.N,/Relay Pin 5/K*%
X12369800Y27432000D03*
D16*
%TO.P,R5,2*%
%TO.N,Net-(Q5-B)*%
X19989800Y27432000D03*
%TD*%
D13*
%TO.P,J6,1,Pin_1*%
%TO.N,Net-(J6-Pin_1)*%
X80187800Y5080000D03*
D14*
%TO.P,J6,2,Pin_2*%
%TO.N,Net-(J6-Pin_2)*%
X83687800Y5080000D03*
%TO.P,J6,3,Pin_3*%
%TO.N,Net-(J6-Pin_3)*%
X87187800Y5080000D03*
%TD*%
D13*
%TO.P,J3,1,Pin_1*%
%TO.N,Net-(J3-Pin_1)*%
X45135800Y5080000D03*
D14*
%TO.P,J3,2,Pin_2*%
%TO.N,Net-(J3-Pin_2)*%
X48635800Y5080000D03*
%TO.P,J3,3,Pin_3*%
%TO.N,Net-(J3-Pin_3)*%
X52135800Y5080000D03*
%TD*%
D15*
%TO.P,R7,1*%
%TO.N,/Relay Pin 7/K*%
X12369800Y35560000D03*
D16*
%TO.P,R7,2*%
%TO.N,Net-(Q7-B)*%
X19989800Y35560000D03*
%TD*%
D17*
%TO.P,K6,1*%
%TO.N,Net-(J7-Pin_2)*%
X87553800Y36576000D03*
%TO.P,K6,5*%
%TO.N,GND*%
X87553800Y46736000D03*
%TO.P,K6,6*%
%TO.N,Net-(J7-Pin_1)*%
X87553800Y49276000D03*
%TO.P,K6,7*%
%TO.N,Net-(J7-Pin_3)*%
X79933800Y49276000D03*
%TO.P,K6,8*%
%TO.N,Net-(Q6-E)*%
X79933800Y46736000D03*
%TO.P,K6,12*%
%TO.N,N/C*%
X79933800Y36576000D03*
%TD*%
D15*
%TO.P,R10,1*%
%TO.N,/Relay Pin 10/K*%
X12369800Y47752000D03*
D16*
%TO.P,R10,2*%
%TO.N,Net-(Q10-B)*%
X19989800Y47752000D03*
%TD*%
D17*
%TO.P,K2,1*%
%TO.N,Net-(J3-Pin_2)*%
X44881800Y22606000D03*
%TO.P,K2,5*%
%TO.N,GND*%
X44881800Y12446000D03*
%TO.P,K2,6*%
%TO.N,Net-(J3-Pin_1)*%
X44881800Y9906000D03*
%TO.P,K2,7*%
%TO.N,Net-(J3-Pin_3)*%
X52501800Y9906000D03*
%TO.P,K2,8*%
%TO.N,Net-(Q1-E)*%
X52501800Y12446000D03*
%TO.P,K2,12*%
%TO.N,N/C*%
X52501800Y22606000D03*
%TD*%
%TO.P,K3,1*%
%TO.N,Net-(J4-Pin_2)*%
X56565800Y22606000D03*
%TO.P,K3,5*%
%TO.N,GND*%
X56565800Y12446000D03*
%TO.P,K3,6*%
%TO.N,Net-(J4-Pin_1)*%
X56565800Y9906000D03*
%TO.P,K3,7*%
%TO.N,Net-(J4-Pin_3)*%
X64185800Y9906000D03*
%TO.P,K3,8*%
%TO.N,Net-(Q3-E)*%
X64185800Y12446000D03*
%TO.P,K3,12*%
%TO.N,N/C*%
X64185800Y22606000D03*
%TD*%
D18*
%TO.P,J1,1,3V3*%
%TO.N,+3V3*%
X4495800Y53594000D03*
D19*
%TO.P,J1,2,5V*%
%TO.N,+5V*%
X7035800Y53594000D03*
%TO.P,J1,3,SDA/GPIO2*%
%TO.N,unconnected-(J1-SDA{slash}GPIO2-Pad3)*%
X4495800Y51054000D03*
%TO.P,J1,4,5V*%
%TO.N,+5V*%
X7035800Y51054000D03*
%TO.P,J1,5,SCL/GPIO3*%
%TO.N,unconnected-(J1-SCL{slash}GPIO3-Pad5)*%
X4495800Y48514000D03*
%TO.P,J1,6,GND*%
%TO.N,GND*%
X7035800Y48514000D03*
%TO.P,J1,7,GCLK0/GPIO4*%
%TO.N,unconnected-(J1-GCLK0{slash}GPIO4-Pad7)*%
X4495800Y45974000D03*
%TO.P,J1,8,GPIO14/TXD*%
%TO.N,unconnected-(J1-GPIO14{slash}TXD-Pad8)*%
X7035800Y45974000D03*
%TO.P,J1,9,GND*%
%TO.N,GND*%
X4495800Y43434000D03*
%TO.P,J1,10,GPIO15/RXD*%
%TO.N,unconnected-(J1-GPIO15{slash}RXD-Pad10)*%
X7035800Y43434000D03*
%TO.P,J1,11,GPIO17*%
%TO.N,/Relay Pin 4/K*%
X4495800Y40894000D03*
%TO.P,J1,12,GPIO18/PWM0*%
%TO.N,unconnected-(J1-GPIO18{slash}PWM0-Pad12)*%
X7035800Y40894000D03*
%TO.P,J1,13,GPIO27*%
%TO.N,/Relay Pin 10/K*%
X4495800Y38354000D03*
%TO.P,J1,14,GND*%
%TO.N,GND*%
X7035800Y38354000D03*
%TO.P,J1,15,GPIO22*%
%TO.N,/Relay Pin 5/K*%
X4495800Y35814000D03*
%TO.P,J1,16,GPIO23*%
%TO.N,/Relay Pin 6/K*%
X7035800Y35814000D03*
%TO.P,J1,17,3V3*%
%TO.N,+3V3*%
X4495800Y33274000D03*
%TO.P,J1,18,GPIO24*%
%TO.N,/Relay Pin 7/K*%
X7035800Y33274000D03*
%TO.P,J1,19,MOSI0/GPIO10*%
%TO.N,unconnected-(J1-MOSI0{slash}GPIO10-Pad19)*%
X4495800Y30734000D03*
%TO.P,J1,20,GND*%
%TO.N,GND*%
X7035800Y30734000D03*
%TO.P,J1,21,MISO0/GPIO9*%
%TO.N,unconnected-(J1-MISO0{slash}GPIO9-Pad21)*%
X4495800Y28194000D03*
%TO.P,J1,22,GPIO25*%
%TO.N,/Relay Pin 8/K*%
X7035800Y28194000D03*
%TO.P,J1,23,SCLK0/GPIO11*%
%TO.N,unconnected-(J1-SCLK0{slash}GPIO11-Pad23)*%
X4495800Y25654000D03*
%TO.P,J1,24,~{CE0}/GPIO8*%
%TO.N,unconnected-(J1-~{CE0}{slash}GPIO8-Pad24)*%
X7035800Y25654000D03*
%TO.P,J1,25,GND*%
%TO.N,GND*%
X4495800Y23114000D03*
%TO.P,J1,26,~{CE1}/GPIO7*%
%TO.N,unconnected-(J1-~{CE1}{slash}GPIO7-Pad26)*%
X7035800Y23114000D03*
%TO.P,J1,27,ID_SD/GPIO0*%
%TO.N,unconnected-(J1-ID_SD{slash}GPIO0-Pad27)*%
X4495800Y20574000D03*
%TO.P,J1,28,ID_SC/GPIO1*%
%TO.N,unconnected-(J1-ID_SC{slash}GPIO1-Pad28)*%
X7035800Y20574000D03*
%TO.P,J1,29,GCLK1/GPIO5*%
%TO.N,/Relay Pin 1/K*%
X4495800Y18034000D03*
%TO.P,J1,30,GND*%
%TO.N,GND*%
X7035800Y18034000D03*
%TO.P,J1,31,GCLK2/GPIO6*%
%TO.N,/Relay Pin 2/K*%
X4495800Y15494000D03*
%TO.P,J1,32,PWM0/GPIO12*%
%TO.N,unconnected-(J1-PWM0{slash}GPIO12-Pad32)*%
X7035800Y15494000D03*
%TO.P,J1,33,PWM1/GPIO13*%
%TO.N,unconnected-(J1-PWM1{slash}GPIO13-Pad33)*%
X4495800Y12954000D03*
%TO.P,J1,34,GND*%
%TO.N,GND*%
X7035800Y12954000D03*
%TO.P,J1,35,GPIO19/MISO1*%
%TO.N,unconnected-(J1-GPIO19{slash}MISO1-Pad35)*%
X4495800Y10414000D03*
%TO.P,J1,36,GPIO16*%
%TO.N,/GPIO16*%
X7035800Y10414000D03*
%TO.P,J1,37,GPIO26*%
%TO.N,/Relay Pin 9/K*%
X4495800Y7874000D03*
%TO.P,J1,38,GPIO20/MOSI1*%
%TO.N,unconnected-(J1-GPIO20{slash}MOSI1-Pad38)*%
X7035800Y7874000D03*
%TO.P,J1,39,GND*%
%TO.N,GND*%
X4495800Y5334000D03*
%TO.P,J1,40,GPIO21/SCLK1*%
%TO.N,unconnected-(J1-GPIO21{slash}SCLK1-Pad40)*%
X7035800Y5334000D03*
%TD*%
D17*
%TO.P,K1,1*%
%TO.N,Net-(J2-Pin_2)*%
X33197800Y22606000D03*
%TO.P,K1,5*%
%TO.N,GND*%
X33197800Y12446000D03*
%TO.P,K1,6*%
%TO.N,Net-(J2-Pin_1)*%
X33197800Y9906000D03*
%TO.P,K1,7*%
%TO.N,Net-(J2-Pin_3)*%
X40817800Y9906000D03*
%TO.P,K1,8*%
%TO.N,Net-(Q2-E)*%
X40817800Y12446000D03*
%TO.P,K1,12*%
%TO.N,N/C*%
X40817800Y22606000D03*
%TD*%
%TO.P,K5,1*%
%TO.N,Net-(J6-Pin_2)*%
X79933800Y22606000D03*
%TO.P,K5,5*%
%TO.N,GND*%
X79933800Y12446000D03*
%TO.P,K5,6*%
%TO.N,Net-(J6-Pin_1)*%
X79933800Y9906000D03*
%TO.P,K5,7*%
%TO.N,Net-(J6-Pin_3)*%
X87553800Y9906000D03*
%TO.P,K5,8*%
%TO.N,Net-(Q5-E)*%
X87553800Y12446000D03*
%TO.P,K5,12*%
%TO.N,N/C*%
X87553800Y22606000D03*
%TD*%
D20*
%TO.P,Q7,1,C*%
%TO.N,+5V*%
X23164800Y36324000D03*
D21*
%TO.P,Q7,2,B*%
%TO.N,Net-(Q7-B)*%
X24434800Y38394000D03*
%TO.P,Q7,3,E*%
%TO.N,Net-(Q7-E)*%
X25704800Y36324000D03*
%TD*%
D13*
%TO.P,J2,1,Pin_1*%
%TO.N,Net-(J2-Pin_1)*%
X33451800Y5080000D03*
D14*
%TO.P,J2,2,Pin_2*%
%TO.N,Net-(J2-Pin_2)*%
X36951800Y5080000D03*
%TO.P,J2,3,Pin_3*%
%TO.N,Net-(J2-Pin_3)*%
X40451800Y5080000D03*
%TD*%
D15*
%TO.P,R2,1*%
%TO.N,/Relay Pin 2/K*%
X12369800Y15240000D03*
D16*
%TO.P,R2,2*%
%TO.N,Net-(Q1-B)*%
X19989800Y15240000D03*
%TD*%
D17*
%TO.P,K7,1*%
%TO.N,Net-(J8-Pin_2)*%
X75869800Y36576000D03*
%TO.P,K7,5*%
%TO.N,GND*%
X75869800Y46736000D03*
%TO.P,K7,6*%
%TO.N,Net-(J8-Pin_1)*%
X75869800Y49276000D03*
%TO.P,K7,7*%
%TO.N,Net-(J8-Pin_3)*%
X68249800Y49276000D03*
%TO.P,K7,8*%
%TO.N,Net-(Q7-E)*%
X68249800Y46736000D03*
%TO.P,K7,12*%
%TO.N,N/C*%
X68249800Y36576000D03*
%TD*%
D20*
%TO.P,Q9,1,C*%
%TO.N,+5V*%
X23164800Y46484000D03*
D21*
%TO.P,Q9,2,B*%
%TO.N,Net-(Q9-B)*%
X24434800Y48554000D03*
%TO.P,Q9,3,E*%
%TO.N,Net-(Q9-E)*%
X25704800Y46484000D03*
%TD*%
D13*
%TO.P,J10,1,Pin_1*%
%TO.N,Net-(J10-Pin_1)*%
X52135800Y54356000D03*
D14*
%TO.P,J10,2,Pin_2*%
%TO.N,Net-(J10-Pin_2)*%
X48635800Y54356000D03*
%TO.P,J10,3,Pin_3*%
%TO.N,Net-(J10-Pin_3)*%
X45135800Y54356000D03*
%TD*%
D13*
%TO.P,J7,1,Pin_1*%
%TO.N,Net-(J7-Pin_1)*%
X87187800Y54356000D03*
D14*
%TO.P,J7,2,Pin_2*%
%TO.N,Net-(J7-Pin_2)*%
X83687800Y54356000D03*
%TO.P,J7,3,Pin_3*%
%TO.N,Net-(J7-Pin_3)*%
X80187800Y54356000D03*
%TD*%
D20*
%TO.P,Q3,1,C*%
%TO.N,+5V*%
X23164800Y16004000D03*
D21*
%TO.P,Q3,2,B*%
%TO.N,Net-(Q3-B)*%
X24434800Y18074000D03*
%TO.P,Q3,3,E*%
%TO.N,Net-(Q3-E)*%
X25704800Y16004000D03*
%TD*%
D20*
%TO.P,Q2,1,C*%
%TO.N,+5V*%
X23164800Y5844000D03*
D21*
%TO.P,Q2,2,B*%
%TO.N,Net-(Q2-B)*%
X24434800Y7914000D03*
%TO.P,Q2,3,E*%
%TO.N,Net-(Q2-E)*%
X25704800Y5844000D03*
%TD*%
D17*
%TO.P,K8,1*%
%TO.N,Net-(J9-Pin_2)*%
X64185800Y36576000D03*
%TO.P,K8,5*%
%TO.N,GND*%
X64185800Y46736000D03*
%TO.P,K8,6*%
%TO.N,Net-(J9-Pin_1)*%
X64185800Y49276000D03*
%TO.P,K8,7*%
%TO.N,Net-(J9-Pin_3)*%
X56565800Y49276000D03*
%TO.P,K8,8*%
%TO.N,Net-(Q8-E)*%
X56565800Y46736000D03*
%TO.P,K8,12*%
%TO.N,N/C*%
X56565800Y36576000D03*
%TD*%
%TO.P,K10,1*%
%TO.N,Net-(J11-Pin_2)*%
X40817800Y36576000D03*
%TO.P,K10,5*%
%TO.N,GND*%
X40817800Y46736000D03*
%TO.P,K10,6*%
%TO.N,Net-(J11-Pin_1)*%
X40817800Y49276000D03*
%TO.P,K10,7*%
%TO.N,Net-(J11-Pin_3)*%
X33197800Y49276000D03*
%TO.P,K10,8*%
%TO.N,Net-(Q10-E)*%
X33197800Y46736000D03*
%TO.P,K10,12*%
%TO.N,N/C*%
X33197800Y36576000D03*
%TD*%
D20*
%TO.P,Q6,1,C*%
%TO.N,+5V*%
X23164800Y31244000D03*
D21*
%TO.P,Q6,2,B*%
%TO.N,Net-(Q6-B)*%
X24434800Y33314000D03*
%TO.P,Q6,3,E*%
%TO.N,Net-(Q6-E)*%
X25704800Y31244000D03*
%TD*%
D20*
%TO.P,Q4,1,C*%
%TO.N,+5V*%
X23164800Y21084000D03*
D21*
%TO.P,Q4,2,B*%
%TO.N,Net-(Q4-B)*%
X24434800Y23154000D03*
%TO.P,Q4,3,E*%
%TO.N,Net-(Q4-E)*%
X25704800Y21084000D03*
%TD*%
D17*
%TO.P,K9,1*%
%TO.N,Net-(J10-Pin_2)*%
X52501800Y36576000D03*
%TO.P,K9,5*%
%TO.N,GND*%
X52501800Y46736000D03*
%TO.P,K9,6*%
%TO.N,Net-(J10-Pin_1)*%
X52501800Y49276000D03*
%TO.P,K9,7*%
%TO.N,Net-(J10-Pin_3)*%
X44881800Y49276000D03*
%TO.P,K9,8*%
%TO.N,Net-(Q9-E)*%
X44881800Y46736000D03*
%TO.P,K9,12*%
%TO.N,N/C*%
X44881800Y36576000D03*
%TD*%
D20*
%TO.P,Q5,1,C*%
%TO.N,+5V*%
X23164800Y26164000D03*
D21*
%TO.P,Q5,2,B*%
%TO.N,Net-(Q5-B)*%
X24434800Y28234000D03*
%TO.P,Q5,3,E*%
%TO.N,Net-(Q5-E)*%
X25704800Y26164000D03*
%TD*%
D15*
%TO.P,R4,1*%
%TO.N,/Relay Pin 4/K*%
X12369800Y23368000D03*
D16*
%TO.P,R4,2*%
%TO.N,Net-(Q4-B)*%
X19989800Y23368000D03*
%TD*%
D15*
%TO.P,R1,1*%
%TO.N,/Relay Pin 1/K*%
X12369800Y11176000D03*
D16*
%TO.P,R1,2*%
%TO.N,Net-(Q2-B)*%
X19989800Y11176000D03*
%TD*%
D15*
%TO.P,R6,1*%
%TO.N,/Relay Pin 6/K*%
X12369800Y31496000D03*
D16*
%TO.P,R6,2*%
%TO.N,Net-(Q6-B)*%
X19989800Y31496000D03*
%TD*%
D13*
%TO.P,J11,1,Pin_1*%
%TO.N,Net-(J11-Pin_1)*%
X40451800Y54356000D03*
D14*
%TO.P,J11,2,Pin_2*%
%TO.N,Net-(J11-Pin_2)*%
X36951800Y54356000D03*
%TO.P,J11,3,Pin_3*%
%TO.N,Net-(J11-Pin_3)*%
X33451800Y54356000D03*
%TD*%
D20*
%TO.P,Q1,1,C*%
%TO.N,+5V*%
X23164800Y10924000D03*
D21*
%TO.P,Q1,2,B*%
%TO.N,Net-(Q1-B)*%
X24434800Y12994000D03*
%TO.P,Q1,3,E*%
%TO.N,Net-(Q1-E)*%
X25704800Y10924000D03*
%TD*%
D15*
%TO.P,R8,1*%
%TO.N,/Relay Pin 8/K*%
X12369800Y39624000D03*
D16*
%TO.P,R8,2*%
%TO.N,Net-(Q8-B)*%
X19989800Y39624000D03*
%TD*%
D17*
%TO.P,K4,1*%
%TO.N,Net-(J5-Pin_2)*%
X68249800Y22606000D03*
%TO.P,K4,5*%
%TO.N,GND*%
X68249800Y12446000D03*
%TO.P,K4,6*%
%TO.N,Net-(J5-Pin_1)*%
X68249800Y9906000D03*
%TO.P,K4,7*%
%TO.N,Net-(J5-Pin_3)*%
X75869800Y9906000D03*
%TO.P,K4,8*%
%TO.N,Net-(Q4-E)*%
X75869800Y12446000D03*
%TO.P,K4,12*%
%TO.N,N/C*%
X75869800Y22606000D03*
%TD*%
D13*
%TO.P,J5,1,Pin_1*%
%TO.N,Net-(J5-Pin_1)*%
X68503800Y5080000D03*
D14*
%TO.P,J5,2,Pin_2*%
%TO.N,Net-(J5-Pin_2)*%
X72003800Y5080000D03*
%TO.P,J5,3,Pin_3*%
%TO.N,Net-(J5-Pin_3)*%
X75503800Y5080000D03*
%TD*%
D13*
%TO.P,J9,1,Pin_1*%
%TO.N,Net-(J9-Pin_1)*%
X63819800Y54356000D03*
D14*
%TO.P,J9,2,Pin_2*%
%TO.N,Net-(J9-Pin_2)*%
X60319800Y54356000D03*
%TO.P,J9,3,Pin_3*%
%TO.N,Net-(J9-Pin_3)*%
X56819800Y54356000D03*
%TD*%
D15*
%TO.P,R3,1*%
%TO.N,/GPIO16*%
X12369800Y19304000D03*
D16*
%TO.P,R3,2*%
%TO.N,Net-(Q3-B)*%
X19989800Y19304000D03*
%TD*%
D13*
%TO.P,J4,1,Pin_1*%
%TO.N,Net-(J4-Pin_1)*%
X56819800Y5080000D03*
D14*
%TO.P,J4,2,Pin_2*%
%TO.N,Net-(J4-Pin_2)*%
X60319800Y5080000D03*
%TO.P,J4,3,Pin_3*%
%TO.N,Net-(J4-Pin_3)*%
X63819800Y5080000D03*
%TD*%
D20*
%TO.P,Q10,1,C*%
%TO.N,+5V*%
X23164800Y51564000D03*
D21*
%TO.P,Q10,2,B*%
%TO.N,Net-(Q10-B)*%
X24434800Y53634000D03*
%TO.P,Q10,3,E*%
%TO.N,Net-(Q10-E)*%
X25704800Y51564000D03*
%TD*%
D20*
%TO.P,Q8,1,C*%
%TO.N,+5V*%
X23164800Y41404000D03*
D21*
%TO.P,Q8,2,B*%
%TO.N,Net-(Q8-B)*%
X24434800Y43474000D03*
%TO.P,Q8,3,E*%
%TO.N,Net-(Q8-E)*%
X25704800Y41404000D03*
%TD*%
D22*
%TO.N,/GPIO16*%
X12369800Y19304000D02*
X9067800Y16002000D01*
X9067800Y16002000D02*
X9067800Y12446000D01*
X9067800Y12446000D02*
X7035800Y10414000D01*
%TO.N,GND*%
X54615800Y55708000D02*
X56311800Y57404000D01*
X42767800Y10682000D02*
X42767800Y3728000D01*
X66135800Y3728000D02*
X64439800Y2032000D01*
X44881800Y12446000D02*
X44531800Y12446000D01*
X54451800Y10404742D02*
X54451800Y3728000D01*
X32689800Y2032000D02*
X41071800Y2032000D01*
X75869800Y2032000D02*
X77983800Y4146000D01*
X42767800Y3728000D02*
X41071800Y2032000D01*
X56311800Y57404000D02*
X67995800Y57404000D01*
X68249800Y12446000D02*
X67899800Y12446000D01*
X89585800Y55958000D02*
X89585800Y48260000D01*
X67899800Y12446000D02*
X66135800Y10682000D01*
X89585800Y48260000D02*
X89585800Y4649572D01*
X56565800Y12446000D02*
X56493058Y12446000D01*
X66217800Y55626000D02*
X67995800Y57404000D01*
X33197800Y12446000D02*
X32847800Y12446000D01*
X40817800Y46990000D02*
X42067800Y46990000D01*
X77983800Y47600000D02*
X77983800Y55708000D01*
X75869800Y46736000D02*
X77119800Y46736000D01*
X77983800Y4146000D02*
X77983800Y11258000D01*
X53751800Y46736000D02*
X54615800Y47600000D01*
X66135800Y10682000D02*
X66135800Y3728000D01*
X77983800Y11258000D02*
X79171800Y12446000D01*
X64439800Y2032000D02*
X75869800Y2032000D01*
X89585800Y4649572D02*
X86968228Y2032000D01*
X52755800Y2032000D02*
X64439800Y2032000D01*
X32847800Y12446000D02*
X30911800Y10510000D01*
X86968228Y2032000D02*
X75869800Y2032000D01*
X54615800Y47600000D02*
X54615800Y55708000D01*
X77119800Y46736000D02*
X77983800Y47600000D01*
X64185800Y46736000D02*
X64258542Y46736000D01*
X44531800Y12446000D02*
X42767800Y10682000D01*
X30911800Y10510000D02*
X30911800Y3810000D01*
X30911800Y3810000D02*
X32689800Y2032000D01*
X77983800Y55708000D02*
X79679800Y57404000D01*
X89585800Y48260000D02*
X88061800Y46736000D01*
X45355372Y57404000D02*
X56311800Y57404000D01*
X54451800Y3728000D02*
X52755800Y2032000D01*
X42849800Y47772000D02*
X42849800Y54898428D01*
X88061800Y46736000D02*
X87553800Y46736000D01*
X56493058Y12446000D02*
X54451800Y10404742D01*
X79171800Y12446000D02*
X79933800Y12446000D01*
X88139800Y57404000D02*
X89585800Y55958000D01*
X42849800Y54898428D02*
X45355372Y57404000D01*
X64258542Y46736000D02*
X66217800Y48695258D01*
X42067800Y46990000D02*
X42849800Y47772000D01*
X52501800Y46736000D02*
X53751800Y46736000D01*
X79679800Y57404000D02*
X88139800Y57404000D01*
X67995800Y57404000D02*
X79679800Y57404000D01*
X41071800Y2032000D02*
X52755800Y2032000D01*
X66217800Y48695258D02*
X66217800Y55626000D01*
%TO.N,+5V*%
X8685800Y49173258D02*
X8685800Y51944000D01*
X15263058Y45288000D02*
X20013058Y50038000D01*
X18825800Y21484000D02*
X17703800Y22606000D01*
X21839800Y6244000D02*
X23164800Y6244000D01*
X15263058Y45288000D02*
X12571058Y45288000D01*
X8685800Y51944000D02*
X7035800Y53594000D01*
X19227800Y37592000D02*
X17703800Y39116000D01*
X21812800Y32996000D02*
X19251800Y32996000D01*
X19759800Y16740000D02*
X17703800Y18796000D01*
X17703800Y10380000D02*
X21839800Y6244000D01*
X18973800Y25400000D02*
X17703800Y26670000D01*
X23164800Y36724000D02*
X22296800Y37592000D01*
X17703800Y47828000D02*
X17703800Y43942000D01*
X19251800Y32996000D02*
X17703800Y34544000D01*
X23164800Y51964000D02*
X21238800Y50038000D01*
X21812800Y12676000D02*
X20013800Y12676000D01*
X23164800Y16404000D02*
X22828800Y16740000D01*
X23164800Y11324000D02*
X21812800Y12676000D01*
X17703800Y18796000D02*
X17703800Y14986000D01*
X17703800Y43942000D02*
X17703800Y42926000D01*
X12571058Y45288000D02*
X8685800Y49173258D01*
X22296800Y37592000D02*
X19227800Y37592000D01*
X15263058Y45288000D02*
X16357800Y45288000D01*
X23164800Y26564000D02*
X22000800Y25400000D01*
X17703800Y39116000D02*
X17703800Y34544000D01*
X7035800Y51054000D02*
X7035800Y53594000D01*
X22000800Y25400000D02*
X18973800Y25400000D01*
X17703800Y14986000D02*
X17703800Y10380000D01*
X17703800Y26670000D02*
X17703800Y22606000D01*
X23164800Y31644000D02*
X21812800Y32996000D01*
X17703800Y22606000D02*
X17703800Y18796000D01*
X19279800Y46252000D02*
X17703800Y47828000D01*
X18825800Y41804000D02*
X17703800Y42926000D01*
X23164800Y21484000D02*
X18825800Y21484000D01*
X22532800Y46252000D02*
X19279800Y46252000D01*
X22828800Y16740000D02*
X19759800Y16740000D01*
X17703800Y34544000D02*
X17703800Y26670000D01*
X23164800Y41804000D02*
X18825800Y41804000D01*
X23164800Y46884000D02*
X22532800Y46252000D01*
X20013058Y50038000D02*
X21238800Y50038000D01*
X16357800Y45288000D02*
X17703800Y43942000D01*
X17703800Y42926000D02*
X17703800Y39116000D01*
X20013800Y12676000D02*
X17703800Y14986000D01*
D23*
%TO.N,Net-(J2-Pin_3)*%
X40451800Y9540000D02*
X40817800Y9906000D01*
X40451800Y5080000D02*
X40451800Y9540000D01*
%TO.N,Net-(J2-Pin_1)*%
X33451800Y5080000D02*
X33451800Y9652000D01*
X33451800Y9652000D02*
X33197800Y9906000D01*
%TO.N,Net-(J2-Pin_2)*%
X36951800Y18852000D02*
X36951800Y5080000D01*
X33197800Y22606000D02*
X36951800Y18852000D01*
%TO.N,Net-(J3-Pin_3)*%
X52135800Y9540000D02*
X52501800Y9906000D01*
X52135800Y5080000D02*
X52135800Y9540000D01*
%TO.N,Net-(J3-Pin_1)*%
X45135800Y9652000D02*
X44881800Y9906000D01*
X45135800Y5080000D02*
X45135800Y9652000D01*
%TO.N,Net-(J3-Pin_2)*%
X48635800Y5080000D02*
X48635800Y18740000D01*
X44881800Y22494000D02*
X48635800Y18740000D01*
X44881800Y22606000D02*
X44881800Y22494000D01*
%TO.N,Net-(J4-Pin_3)*%
X63819800Y5080000D02*
X63819800Y9540000D01*
X63819800Y9540000D02*
X64185800Y9906000D01*
%TO.N,Net-(J4-Pin_1)*%
X56819800Y5080000D02*
X56819800Y9652000D01*
X56819800Y9652000D02*
X56565800Y9906000D01*
%TO.N,Net-(J4-Pin_2)*%
X60319800Y18852000D02*
X60319800Y5080000D01*
X56565800Y22606000D02*
X60319800Y18852000D01*
%TO.N,Net-(J5-Pin_3)*%
X75503800Y5080000D02*
X75503800Y9540000D01*
X75503800Y9540000D02*
X75869800Y9906000D01*
%TO.N,Net-(J5-Pin_2)*%
X72003800Y18852000D02*
X72003800Y5080000D01*
X68249800Y22606000D02*
X72003800Y18852000D01*
%TO.N,Net-(J5-Pin_1)*%
X68503800Y5080000D02*
X68503800Y9652000D01*
X68503800Y9652000D02*
X68249800Y9906000D01*
%TO.N,Net-(J6-Pin_1)*%
X80187800Y9652000D02*
X79933800Y9906000D01*
X80187800Y5080000D02*
X80187800Y9652000D01*
%TO.N,Net-(J6-Pin_2)*%
X83687800Y5080000D02*
X83687800Y18740000D01*
X79933800Y22494000D02*
X83687800Y18740000D01*
X79933800Y22606000D02*
X79933800Y22494000D01*
%TO.N,Net-(J6-Pin_3)*%
X87187800Y5080000D02*
X87187800Y9540000D01*
X87187800Y9540000D02*
X87553800Y9906000D01*
%TO.N,Net-(J7-Pin_3)*%
X80187800Y49530000D02*
X79933800Y49276000D01*
X80187800Y54356000D02*
X80187800Y49530000D01*
%TO.N,Net-(J7-Pin_1)*%
X87187800Y49642000D02*
X87553800Y49276000D01*
X87187800Y54356000D02*
X87187800Y49642000D01*
%TO.N,Net-(J7-Pin_2)*%
X83687800Y47046000D02*
X83743800Y46990000D01*
X83687800Y54356000D02*
X83687800Y47046000D01*
X87553800Y42672000D02*
X87553800Y36576000D01*
X83743800Y46482000D02*
X87553800Y42672000D01*
X83743800Y46990000D02*
X83743800Y46482000D01*
%TO.N,Net-(J8-Pin_1)*%
X75503800Y54356000D02*
X75503800Y49642000D01*
X75503800Y49642000D02*
X75869800Y49276000D01*
%TO.N,Net-(J8-Pin_2)*%
X72003800Y46538000D02*
X75869800Y42672000D01*
X72003800Y54356000D02*
X72003800Y46538000D01*
X75869800Y42672000D02*
X75869800Y36576000D01*
%TO.N,Net-(J8-Pin_3)*%
X68503800Y54356000D02*
X68503800Y49530000D01*
X68503800Y49530000D02*
X68249800Y49276000D01*
%TO.N,Net-(J9-Pin_3)*%
X56819800Y54356000D02*
X56819800Y49530000D01*
X56819800Y49530000D02*
X56565800Y49276000D01*
%TO.N,Net-(J9-Pin_1)*%
X63819800Y49642000D02*
X64185800Y49276000D01*
X63819800Y54356000D02*
X63819800Y49642000D01*
%TO.N,Net-(J9-Pin_2)*%
X60319800Y46538000D02*
X64185800Y42672000D01*
X64185800Y42672000D02*
X64185800Y36576000D01*
X60319800Y54356000D02*
X60319800Y46538000D01*
%TO.N,Net-(J10-Pin_2)*%
X52501800Y42926000D02*
X52501800Y36576000D01*
X48635800Y54356000D02*
X48635800Y46792000D01*
X48635800Y46792000D02*
X52501800Y42926000D01*
%TO.N,Net-(J10-Pin_3)*%
X45135800Y49530000D02*
X44881800Y49276000D01*
X45135800Y54356000D02*
X45135800Y49530000D01*
%TO.N,Net-(J10-Pin_1)*%
X52135800Y49642000D02*
X52501800Y49276000D01*
X52135800Y54356000D02*
X52135800Y49642000D01*
%TO.N,Net-(J11-Pin_3)*%
X33197800Y49276000D02*
X33451800Y49530000D01*
X33451800Y49530000D02*
X33451800Y54356000D01*
%TO.N,Net-(J11-Pin_1)*%
X40451800Y49642000D02*
X40451800Y54356000D01*
X40817800Y49276000D02*
X40451800Y49642000D01*
%TO.N,Net-(J11-Pin_2)*%
X36951800Y54356000D02*
X36951800Y40696000D01*
X36951800Y40696000D02*
X40817800Y36830000D01*
D22*
%TO.N,Net-(Q2-E)*%
X29711800Y13024000D02*
X29711800Y21732742D01*
X25759800Y6299000D02*
X25759800Y9072000D01*
X40817800Y12700000D02*
X40817800Y12446000D01*
X34032542Y24384000D02*
X38785800Y19630742D01*
X25759800Y9072000D02*
X29711800Y13024000D01*
X38785800Y14732000D02*
X40817800Y12700000D01*
X32363058Y24384000D02*
X34032542Y24384000D01*
X29711800Y21732742D02*
X32363058Y24384000D01*
X38785800Y19630742D02*
X38785800Y14732000D01*
%TO.N,Net-(Q1-E)*%
X28511800Y22229798D02*
X28511800Y14131000D01*
X46475800Y25584000D02*
X31866002Y25584000D01*
X52501800Y19558000D02*
X46475800Y25584000D01*
X31866002Y25584000D02*
X28511800Y22229798D01*
X25759800Y11379000D02*
X25759800Y11324000D01*
X28511800Y14131000D02*
X25759800Y11379000D01*
X52501800Y12446000D02*
X52501800Y19558000D01*
%TO.N,Net-(Q3-E)*%
X27311800Y17956000D02*
X25759800Y16404000D01*
X31368946Y26784000D02*
X27311800Y22726854D01*
X64185800Y18910000D02*
X56311800Y26784000D01*
X27311800Y22726854D02*
X27311800Y17956000D01*
X64185800Y12446000D02*
X64185800Y18910000D01*
X56311800Y26784000D02*
X31368946Y26784000D01*
%TO.N,Net-(Q4-E)*%
X75869800Y19856000D02*
X67741800Y27984000D01*
X75869800Y12446000D02*
X75869800Y18586000D01*
X67741800Y27984000D02*
X66471800Y27984000D01*
X30871890Y27984000D02*
X25759800Y22871910D01*
X75869800Y12446000D02*
X75869800Y19856000D01*
X66471800Y27984000D02*
X30871890Y27984000D01*
X25759800Y22871910D02*
X25759800Y21484000D01*
%TO.N,Net-(Q5-E)*%
X25759800Y26564000D02*
X28379800Y29184000D01*
X27695000Y28554200D02*
X25704800Y26564000D01*
X87553800Y19993258D02*
X87553800Y12446000D01*
X28379800Y29184000D02*
X78363058Y29184000D01*
X78363058Y29184000D02*
X87553800Y19993258D01*
%TO.N,Net-(Q6-E)*%
X25759800Y31589000D02*
X25759800Y31644000D01*
X79933800Y46736000D02*
X81883800Y44786000D01*
X81883800Y44786000D02*
X81883800Y34208000D01*
X26964800Y30384000D02*
X25759800Y31589000D01*
X78059800Y30384000D02*
X26964800Y30384000D01*
X81883800Y34208000D02*
X78059800Y30384000D01*
%TO.N,Net-(Q7-E)*%
X70535800Y44450000D02*
X70535800Y35306000D01*
X30899800Y31584000D02*
X25759800Y36724000D01*
X68249800Y46736000D02*
X70535800Y44450000D01*
X66813800Y31584000D02*
X30899800Y31584000D01*
X25859800Y36569000D02*
X25859800Y36724000D01*
X70535800Y35306000D02*
X66813800Y31584000D01*
%TO.N,Net-(Q8-E)*%
X58515800Y44786000D02*
X56565800Y46736000D01*
X55313800Y32784000D02*
X56819800Y34290000D01*
X32244744Y32784000D02*
X55313800Y32784000D01*
X25759800Y41655258D02*
X25759800Y39268944D01*
X25937800Y41804000D02*
X25859800Y41804000D01*
X25759800Y39268944D02*
X32244744Y32784000D01*
X56819800Y34290000D02*
X56892542Y34290000D01*
X56892542Y34290000D02*
X58515800Y35913258D01*
X58515800Y35913258D02*
X58515800Y44786000D01*
%TO.N,Net-(Q9-E)*%
X45389800Y33984000D02*
X32741800Y33984000D01*
X47167800Y35762000D02*
X45389800Y33984000D01*
X25859800Y46708000D02*
X25859800Y46884000D01*
X47167800Y44450000D02*
X47167800Y35762000D01*
X27863800Y38862000D02*
X27863800Y44780000D01*
X32741800Y33984000D02*
X27863800Y38862000D01*
X27863800Y44780000D02*
X25759800Y46884000D01*
X44881800Y46736000D02*
X47167800Y44450000D01*
%TO.N,Net-(Q10-E)*%
X28879800Y46990000D02*
X25759800Y50110000D01*
X25759800Y50110000D02*
X25759800Y51964000D01*
X33197800Y46990000D02*
X28879800Y46990000D01*
D24*
%TO.N,Net-(Q1-B)*%
X23402800Y13626000D02*
X21603800Y13626000D01*
X21603800Y13626000D02*
X19989800Y15240000D01*
X24434800Y12594000D02*
X23402800Y13626000D01*
%TO.N,Net-(Q2-B)*%
X24434800Y7514000D02*
X23651800Y7514000D01*
X23651800Y7514000D02*
X19989800Y11176000D01*
%TO.N,Net-(Q3-B)*%
X24434800Y17674000D02*
X22804800Y19304000D01*
X22804800Y19304000D02*
X19989800Y19304000D01*
%TO.N,Net-(Q4-B)*%
X24434800Y22754000D02*
X20603800Y22754000D01*
X20603800Y22754000D02*
X19989800Y23368000D01*
%TO.N,Net-(Q5-B)*%
X20391800Y27834000D02*
X19989800Y27432000D01*
D22*
X24269801Y28231999D02*
X24434800Y28067000D01*
D24*
X24434800Y27834000D02*
X20391800Y27834000D01*
%TO.N,Net-(Q6-B)*%
X24434800Y30099000D02*
X24434800Y32914000D01*
X24019800Y29684000D02*
X24434800Y30099000D01*
X21801800Y29684000D02*
X24019800Y29684000D01*
X19989800Y31496000D02*
X21801800Y29684000D01*
%TO.N,Net-(Q7-B)*%
X24333200Y34823400D02*
X20726400Y34823400D01*
X24434800Y34925000D02*
X24333200Y34823400D01*
X20726400Y34823400D02*
X19989800Y35560000D01*
X24434800Y37994000D02*
X24434800Y34925000D01*
%TO.N,Net-(Q8-B)*%
X20319800Y39954000D02*
X19989800Y39624000D01*
X24264800Y39954000D02*
X20319800Y39954000D01*
X24434800Y40124000D02*
X24264800Y39954000D01*
X24434800Y43074000D02*
X24434800Y40124000D01*
%TO.N,Net-(Q9-B)*%
X24214200Y44983400D02*
X21285200Y44983400D01*
X21285200Y44983400D02*
X19989800Y43688000D01*
X24434800Y48154000D02*
X24434800Y45204000D01*
X24434800Y45204000D02*
X24214200Y44983400D01*
%TO.N,Net-(Q10-B)*%
X23457970Y50088800D02*
X21121170Y47752000D01*
X21121170Y47752000D02*
X19989800Y47752000D01*
X24434800Y53234000D02*
X24434800Y50284000D01*
X24434800Y50284000D02*
X24239600Y50088800D01*
X24239600Y50088800D02*
X23457970Y50088800D01*
D22*
X19989800Y47752000D02*
X20243800Y48006000D01*
%TO.N,/Relay Pin 2/K*%
X2463800Y13462000D02*
X4495800Y15494000D01*
X8051800Y3302000D02*
X3733800Y3302000D01*
X3733800Y3302000D02*
X2463800Y4572000D01*
X9321800Y4572000D02*
X8051800Y3302000D01*
X9321800Y10390742D02*
X9321800Y4572000D01*
X12369800Y13438742D02*
X9321800Y10390742D01*
X2463800Y4572000D02*
X2463800Y13462000D01*
X12369800Y15240000D02*
X12369800Y13438742D01*
%TO.N,/Relay Pin 6/K*%
X13969800Y33096000D02*
X12369800Y31496000D01*
X13055800Y37160000D02*
X13969800Y36246000D01*
X13055800Y37160000D02*
X8381800Y37160000D01*
X8381800Y37160000D02*
X7035800Y35814000D01*
X13969800Y36246000D02*
X13969800Y33096000D01*
%TO.N,/Relay Pin 7/K*%
X9321800Y35560000D02*
X7035800Y33274000D01*
X12369800Y35560000D02*
X9321800Y35560000D01*
%TO.N,/Relay Pin 8/K*%
X13055800Y29896000D02*
X15169800Y32010000D01*
X7289800Y28194000D02*
X8991800Y29896000D01*
X8991800Y29896000D02*
X13055800Y29896000D01*
X12369800Y39624000D02*
X15169800Y36824000D01*
X7035800Y28194000D02*
X7289800Y28194000D01*
X15169800Y36824000D02*
X15169800Y32010000D01*
%TO.N,/Relay Pin 1/K*%
X1193800Y4144944D02*
X1193800Y14732000D01*
X1193800Y14732000D02*
X4495800Y18034000D01*
X10591800Y9398000D02*
X10591800Y4144944D01*
X10591800Y4144944D02*
X8548856Y2102000D01*
X3236744Y2102000D02*
X1193800Y4144944D01*
X12369800Y11176000D02*
X10591800Y9398000D01*
X8548856Y2102000D02*
X3236744Y2102000D01*
%TO.N,/Relay Pin 10/K*%
X2463800Y40386000D02*
X4495800Y38354000D01*
X3479800Y55626000D02*
X2463800Y54610000D01*
X2463800Y54610000D02*
X2463800Y40386000D01*
X12369800Y51054000D02*
X7797800Y55626000D01*
X12369800Y47752000D02*
X12369800Y51054000D01*
X7797800Y55626000D02*
X3479800Y55626000D01*
%TD*%
%TA.AperFunction,Conductor*%
%TO.N,GND*%
G36*
X11446791Y34639815D02*
G01*
X11467428Y34623186D01*
X11499616Y34590998D01*
X11530662Y34559952D01*
X11552472Y34544681D01*
X11717066Y34429432D01*
X11923304Y34333261D01*
X12143108Y34274365D01*
X12305030Y34260199D01*
X12369798Y34254532D01*
X12369800Y34254532D01*
X12369802Y34254532D01*
X12426473Y34259491D01*
X12596492Y34274365D01*
X12816296Y34333261D01*
X12892895Y34368981D01*
X12961973Y34379472D01*
X13025757Y34350952D01*
X13063996Y34292476D01*
X13069300Y34256598D01*
X13069300Y33520363D01*
X13049615Y33453324D01*
X13032981Y33432682D01*
X12436745Y32836447D01*
X12375422Y32802962D01*
X12359872Y32800600D01*
X12143112Y32781636D01*
X12143102Y32781634D01*
X11923311Y32722742D01*
X11923302Y32722739D01*
X11717067Y32626569D01*
X11717065Y32626568D01*
X11530658Y32496046D01*
X11369754Y32335142D01*
X11239232Y32148735D01*
X11239231Y32148733D01*
X11143061Y31942498D01*
X11143058Y31942489D01*
X11084166Y31722698D01*
X11084164Y31722687D01*
X11064332Y31496002D01*
X11064332Y31495999D01*
X11084164Y31269314D01*
X11084166Y31269303D01*
X11143058Y31049512D01*
X11143060Y31049508D01*
X11143061Y31049504D01*
X11173606Y30984001D01*
X11178780Y30972905D01*
X11189272Y30903827D01*
X11160752Y30840043D01*
X11102276Y30801804D01*
X11066398Y30796500D01*
X8903106Y30796500D01*
X8729141Y30761897D01*
X8729132Y30761894D01*
X8565257Y30694016D01*
X8565256Y30694015D01*
X8469609Y30630105D01*
X8417765Y30595465D01*
X8382630Y30560330D01*
X8342618Y30520318D01*
X8281298Y30486834D01*
X8254939Y30484000D01*
X7468812Y30484000D01*
X7501725Y30541007D01*
X7535800Y30668174D01*
X7535800Y30799826D01*
X7501725Y30926993D01*
X7468812Y30984000D01*
X8366436Y30984000D01*
X8366435Y30984001D01*
X8309232Y31197487D01*
X8309229Y31197493D01*
X8209400Y31411578D01*
X8209399Y31411580D01*
X8073913Y31605074D01*
X8073908Y31605080D01*
X7906878Y31772110D01*
X7721205Y31902121D01*
X7677580Y31956698D01*
X7670388Y32026196D01*
X7701910Y32088551D01*
X7721206Y32105270D01*
X7721642Y32105575D01*
X7907201Y32235505D01*
X8074295Y32402599D01*
X8209835Y32596170D01*
X8309703Y32810337D01*
X8370863Y33038592D01*
X8391459Y33274000D01*
X8389888Y33291948D01*
X8403653Y33360445D01*
X8425732Y33390434D01*
X9658481Y34623181D01*
X9719804Y34656666D01*
X9746162Y34659500D01*
X11379752Y34659500D01*
X11446791Y34639815D01*
G37*
%TD.AperFunction*%
%TA.AperFunction,Conductor*%
G36*
X62056567Y53738952D02*
G01*
X62105126Y53688714D01*
X62119300Y53631145D01*
X62119300Y53108130D01*
X62119301Y53108124D01*
X62125708Y53048517D01*
X62176002Y52913672D01*
X62176006Y52913665D01*
X62262252Y52798456D01*
X62262255Y52798453D01*
X62377464Y52712207D01*
X62377473Y52712202D01*
X62488632Y52670743D01*
X62544566Y52628873D01*
X62568984Y52563408D01*
X62569300Y52554561D01*
X62569300Y49602774D01*
X62567773Y49583376D01*
X62535300Y49378352D01*
X62535300Y49173649D01*
X62567322Y48971466D01*
X62630581Y48776777D01*
X62723515Y48594387D01*
X62843828Y48428787D01*
X62988586Y48284029D01*
X63130143Y48181184D01*
X63154190Y48163713D01*
X63226224Y48127010D01*
X63247429Y48116205D01*
X63298225Y48068230D01*
X63315020Y48000409D01*
X63292482Y47934274D01*
X63247429Y47895235D01*
X63154450Y47847860D01*
X62988905Y47727583D01*
X62988904Y47727583D01*
X62844217Y47582896D01*
X62844217Y47582895D01*
X62723940Y47417350D01*
X62631044Y47235030D01*
X62567809Y47040414D01*
X62559191Y46986000D01*
X63752788Y46986000D01*
X63719875Y46928993D01*
X63685800Y46801826D01*
X63685800Y46670174D01*
X63719875Y46543007D01*
X63752788Y46486000D01*
X62559191Y46486000D01*
X62567809Y46431587D01*
X62567809Y46431586D01*
X62587788Y46370097D01*
X62589783Y46300255D01*
X62553702Y46240423D01*
X62491001Y46209595D01*
X62421587Y46217560D01*
X62382176Y46244098D01*
X61606619Y47019655D01*
X61573134Y47080978D01*
X61570300Y47107336D01*
X61570300Y53153299D01*
X61589985Y53220338D01*
X61597347Y53230604D01*
X61728759Y53395388D01*
X61856193Y53616112D01*
X61879874Y53676451D01*
X61922687Y53731660D01*
X61988556Y53754961D01*
X62056567Y53738952D01*
G37*
%TD.AperFunction*%
%TA.AperFunction,Conductor*%
G36*
X73740567Y53738952D02*
G01*
X73789126Y53688714D01*
X73803300Y53631145D01*
X73803300Y53108130D01*
X73803301Y53108124D01*
X73809708Y53048517D01*
X73860002Y52913672D01*
X73860006Y52913665D01*
X73946252Y52798456D01*
X73946255Y52798453D01*
X74061464Y52712207D01*
X74061473Y52712202D01*
X74172632Y52670743D01*
X74228566Y52628873D01*
X74252984Y52563408D01*
X74253300Y52554561D01*
X74253300Y49602774D01*
X74251773Y49583376D01*
X74219300Y49378352D01*
X74219300Y49173649D01*
X74251322Y48971466D01*
X74314581Y48776777D01*
X74407515Y48594387D01*
X74527828Y48428787D01*
X74672586Y48284029D01*
X74814143Y48181184D01*
X74838190Y48163713D01*
X74910224Y48127010D01*
X74931429Y48116205D01*
X74982225Y48068230D01*
X74999020Y48000409D01*
X74976482Y47934274D01*
X74931429Y47895235D01*
X74838450Y47847860D01*
X74672905Y47727583D01*
X74672904Y47727583D01*
X74528217Y47582896D01*
X74528217Y47582895D01*
X74407940Y47417350D01*
X74315044Y47235030D01*
X74251809Y47040414D01*
X74243191Y46986000D01*
X75436788Y46986000D01*
X75403875Y46928993D01*
X75369800Y46801826D01*
X75369800Y46670174D01*
X75403875Y46543007D01*
X75436788Y46486000D01*
X74243191Y46486000D01*
X74251809Y46431587D01*
X74251809Y46431586D01*
X74271788Y46370097D01*
X74273783Y46300255D01*
X74237702Y46240423D01*
X74175001Y46209595D01*
X74105587Y46217560D01*
X74066176Y46244098D01*
X73290619Y47019655D01*
X73257134Y47080978D01*
X73254300Y47107336D01*
X73254300Y53153299D01*
X73273985Y53220338D01*
X73281347Y53230604D01*
X73412759Y53395388D01*
X73540193Y53616112D01*
X73563874Y53676451D01*
X73606687Y53731660D01*
X73672556Y53754961D01*
X73740567Y53738952D01*
G37*
%TD.AperFunction*%
%TA.AperFunction,Conductor*%
G36*
X85424567Y53738952D02*
G01*
X85473126Y53688714D01*
X85487300Y53631145D01*
X85487300Y53108130D01*
X85487301Y53108124D01*
X85493708Y53048517D01*
X85544002Y52913672D01*
X85544006Y52913665D01*
X85630252Y52798456D01*
X85630255Y52798453D01*
X85745464Y52712207D01*
X85745473Y52712202D01*
X85856632Y52670743D01*
X85912566Y52628873D01*
X85936984Y52563408D01*
X85937300Y52554561D01*
X85937300Y49602774D01*
X85935773Y49583376D01*
X85903300Y49378352D01*
X85903300Y49173649D01*
X85935322Y48971466D01*
X85998581Y48776777D01*
X86091515Y48594387D01*
X86211828Y48428787D01*
X86356586Y48284029D01*
X86498143Y48181184D01*
X86522190Y48163713D01*
X86594224Y48127010D01*
X86615429Y48116205D01*
X86666225Y48068230D01*
X86683020Y48000409D01*
X86660482Y47934274D01*
X86615429Y47895235D01*
X86522450Y47847860D01*
X86356905Y47727583D01*
X86356904Y47727583D01*
X86212217Y47582896D01*
X86212217Y47582895D01*
X86091940Y47417350D01*
X85999044Y47235030D01*
X85935809Y47040414D01*
X85927191Y46986000D01*
X87120788Y46986000D01*
X87087875Y46928993D01*
X87053800Y46801826D01*
X87053800Y46670174D01*
X87087875Y46543007D01*
X87120788Y46486000D01*
X85927191Y46486000D01*
X85935809Y46431587D01*
X85935809Y46431586D01*
X85955788Y46370097D01*
X85957783Y46300255D01*
X85921702Y46240423D01*
X85859001Y46209595D01*
X85789587Y46217560D01*
X85750176Y46244098D01*
X85030619Y46963655D01*
X84997134Y47024978D01*
X84994300Y47051336D01*
X84994300Y47088423D01*
X84963509Y47282827D01*
X84944369Y47341732D01*
X84938300Y47380051D01*
X84938300Y53153299D01*
X84957985Y53220338D01*
X84965347Y53230604D01*
X85096759Y53395388D01*
X85224193Y53616112D01*
X85247874Y53676451D01*
X85290687Y53731660D01*
X85356556Y53754961D01*
X85424567Y53738952D01*
G37*
%TD.AperFunction*%
%TA.AperFunction,Conductor*%
G36*
X50372567Y53738952D02*
G01*
X50421126Y53688714D01*
X50435300Y53631145D01*
X50435300Y53108130D01*
X50435301Y53108124D01*
X50441708Y53048517D01*
X50492002Y52913672D01*
X50492006Y52913665D01*
X50578252Y52798456D01*
X50578255Y52798453D01*
X50693464Y52712207D01*
X50693473Y52712202D01*
X50804632Y52670743D01*
X50860566Y52628873D01*
X50884984Y52563408D01*
X50885300Y52554561D01*
X50885300Y49602774D01*
X50883773Y49583376D01*
X50851300Y49378352D01*
X50851300Y49173649D01*
X50883322Y48971466D01*
X50946581Y48776777D01*
X51039515Y48594387D01*
X51159828Y48428787D01*
X51304586Y48284029D01*
X51446143Y48181184D01*
X51470190Y48163713D01*
X51542224Y48127010D01*
X51563429Y48116205D01*
X51614225Y48068230D01*
X51631020Y48000409D01*
X51608482Y47934274D01*
X51563429Y47895235D01*
X51470450Y47847860D01*
X51304905Y47727583D01*
X51304904Y47727583D01*
X51160217Y47582896D01*
X51160217Y47582895D01*
X51039940Y47417350D01*
X50947044Y47235030D01*
X50883809Y47040414D01*
X50875191Y46986000D01*
X52068788Y46986000D01*
X52035875Y46928993D01*
X52001800Y46801826D01*
X52001800Y46670174D01*
X52035875Y46543007D01*
X52068788Y46486000D01*
X50866343Y46486000D01*
X50827833Y46460861D01*
X50757966Y46460362D01*
X50704369Y46491905D01*
X49922619Y47273655D01*
X49889134Y47334978D01*
X49886300Y47361336D01*
X49886300Y53153299D01*
X49905985Y53220338D01*
X49913347Y53230604D01*
X50044759Y53395388D01*
X50172193Y53616112D01*
X50195874Y53676451D01*
X50238687Y53731660D01*
X50304556Y53754961D01*
X50372567Y53738952D01*
G37*
%TD.AperFunction*%
%TA.AperFunction,Conductor*%
G36*
X90519492Y59517915D02*
G01*
X90565247Y59465111D01*
X90576452Y59413654D01*
X90591270Y24683184D01*
X90601747Y124053D01*
X90582091Y57005D01*
X90529307Y11228D01*
X90477747Y0D01*
X124053Y0D01*
X57014Y19685D01*
X11259Y72489D01*
X53Y124053D01*
X6323Y14820691D01*
X293300Y14820691D01*
X293300Y14820690D01*
X293300Y4056248D01*
X327903Y3882285D01*
X327904Y3882281D01*
X327905Y3882278D01*
X348679Y3832128D01*
X348679Y3832127D01*
X395783Y3718403D01*
X395790Y3718392D01*
X449727Y3637670D01*
X449728Y3637669D01*
X464597Y3615416D01*
X494334Y3570910D01*
X494338Y3570905D01*
X2662708Y1402536D01*
X2662710Y1402534D01*
X2721780Y1363067D01*
X2721783Y1363064D01*
X2810193Y1303990D01*
X2810197Y1303987D01*
X2892137Y1270047D01*
X2974078Y1236105D01*
X3148047Y1201501D01*
X3148051Y1201500D01*
X3148052Y1201500D01*
X8637549Y1201500D01*
X8637550Y1201501D01*
X8811522Y1236105D01*
X8893462Y1270047D01*
X8975403Y1303987D01*
X8975405Y1303989D01*
X8975408Y1303990D01*
X9063811Y1363061D01*
X9063811Y1363062D01*
X9063815Y1363064D01*
X9122892Y1402536D01*
X11291264Y3570908D01*
X11335872Y3637669D01*
X11389813Y3718397D01*
X11389814Y3718401D01*
X11389816Y3718403D01*
X11412230Y3772518D01*
X11436921Y3832127D01*
X11457695Y3882278D01*
X11492300Y4056252D01*
X11492300Y4233636D01*
X11492300Y5633089D01*
X14329300Y5633089D01*
X14329300Y5390512D01*
X14360961Y5150015D01*
X14423747Y4915696D01*
X14516573Y4691595D01*
X14516577Y4691586D01*
X14530258Y4667890D01*
X14637864Y4481511D01*
X14637866Y4481508D01*
X14637867Y4481507D01*
X14785533Y4289064D01*
X14785539Y4289057D01*
X14957056Y4117540D01*
X14957062Y4117535D01*
X15149511Y3969864D01*
X15359588Y3848576D01*
X15583700Y3755746D01*
X15818011Y3692962D01*
X15998386Y3669216D01*
X16058511Y3661300D01*
X16058512Y3661300D01*
X16301089Y3661300D01*
X16349188Y3667633D01*
X16541589Y3692962D01*
X16775900Y3755746D01*
X17000012Y3848576D01*
X17210089Y3969864D01*
X17402538Y4117535D01*
X17574065Y4289062D01*
X17721736Y4481511D01*
X17843024Y4691588D01*
X17935854Y4915700D01*
X17998638Y5150011D01*
X18030300Y5390512D01*
X18030300Y5633088D01*
X18029257Y5641007D01*
X18013651Y5759553D01*
X17998638Y5873589D01*
X17935854Y6107900D01*
X17843024Y6332012D01*
X17721736Y6542089D01*
X17574065Y6734538D01*
X17574060Y6734544D01*
X17402543Y6906061D01*
X17402536Y6906067D01*
X17210093Y7053733D01*
X17210092Y7053734D01*
X17210089Y7053736D01*
X17018786Y7164185D01*
X17000014Y7175023D01*
X17000005Y7175027D01*
X16775904Y7267853D01*
X16541585Y7330639D01*
X16301089Y7362300D01*
X16301088Y7362300D01*
X16058512Y7362300D01*
X16058511Y7362300D01*
X15818014Y7330639D01*
X15583695Y7267853D01*
X15359594Y7175027D01*
X15359585Y7175023D01*
X15149506Y7053733D01*
X14957063Y6906067D01*
X14957056Y6906061D01*
X14785539Y6734544D01*
X14785533Y6734537D01*
X14637867Y6542094D01*
X14516577Y6332015D01*
X14516573Y6332006D01*
X14423747Y6107905D01*
X14360961Y5873586D01*
X14329300Y5633089D01*
X11492300Y5633089D01*
X11492300Y8973639D01*
X11511985Y9040678D01*
X11528619Y9061320D01*
X11910134Y9442835D01*
X12302854Y9835556D01*
X12364175Y9869039D01*
X12379716Y9871400D01*
X12596492Y9890365D01*
X12816296Y9949261D01*
X13022534Y10045432D01*
X13208939Y10175953D01*
X13369847Y10336861D01*
X13500368Y10523266D01*
X13596539Y10729504D01*
X13655435Y10949308D01*
X13675268Y11176000D01*
X13674803Y11181310D01*
X13661470Y11333713D01*
X13655435Y11402692D01*
X13596539Y11622496D01*
X13500368Y11828734D01*
X13369847Y12015139D01*
X13369845Y12015142D01*
X13208941Y12176046D01*
X13022534Y12306568D01*
X13022532Y12306569D01*
X12834259Y12394363D01*
X12781820Y12440536D01*
X12762668Y12507729D01*
X12782884Y12574610D01*
X12798977Y12594420D01*
X13069264Y12864706D01*
X13133549Y12960916D01*
X13167813Y13012195D01*
X13215619Y13127610D01*
X13235695Y13176076D01*
X13270300Y13350050D01*
X13270300Y13527434D01*
X13270300Y14249952D01*
X13289985Y14316991D01*
X13306614Y14337629D01*
X13369847Y14400861D01*
X13500368Y14587266D01*
X13596539Y14793504D01*
X13655435Y15013308D01*
X13675268Y15240000D01*
X13673641Y15258592D01*
X13666918Y15335442D01*
X13655435Y15466692D01*
X13596539Y15686496D01*
X13500368Y15892734D01*
X13369847Y16079139D01*
X13369845Y16079142D01*
X13208941Y16240046D01*
X13022534Y16370568D01*
X13022532Y16370569D01*
X12816297Y16466739D01*
X12816288Y16466742D01*
X12596497Y16525634D01*
X12596493Y16525635D01*
X12596492Y16525635D01*
X12596491Y16525636D01*
X12596486Y16525636D01*
X12369802Y16545468D01*
X12369798Y16545468D01*
X12143113Y16525636D01*
X12143102Y16525634D01*
X11923311Y16466742D01*
X11923302Y16466739D01*
X11717067Y16370569D01*
X11717065Y16370568D01*
X11530658Y16240046D01*
X11369754Y16079142D01*
X11239232Y15892735D01*
X11239231Y15892733D01*
X11143061Y15686498D01*
X11143058Y15686489D01*
X11084166Y15466698D01*
X11084164Y15466687D01*
X11064332Y15240002D01*
X11064332Y15239999D01*
X11084164Y15013314D01*
X11084166Y15013303D01*
X11143058Y14793512D01*
X11143061Y14793503D01*
X11239231Y14587268D01*
X11239232Y14587266D01*
X11369751Y14400863D01*
X11369752Y14400862D01*
X11369753Y14400861D01*
X11432982Y14337632D01*
X11466466Y14276311D01*
X11469300Y14249952D01*
X11469300Y13863105D01*
X11449615Y13796066D01*
X11432981Y13775424D01*
X10179981Y12522424D01*
X10118658Y12488939D01*
X10048966Y12493923D01*
X9993033Y12535795D01*
X9968616Y12601259D01*
X9968300Y12610105D01*
X9968300Y15577639D01*
X9987985Y15644678D01*
X10004614Y15665315D01*
X12302854Y17963556D01*
X12364175Y17997039D01*
X12379716Y17999400D01*
X12596492Y18018365D01*
X12816296Y18077261D01*
X13022534Y18173432D01*
X13208939Y18303953D01*
X13369847Y18464861D01*
X13500368Y18651266D01*
X13596539Y18857504D01*
X13655435Y19077308D01*
X13675268Y19304000D01*
X13674399Y19313928D01*
X13664101Y19431638D01*
X13655435Y19530692D01*
X13596539Y19750496D01*
X13500368Y19956734D01*
X13369847Y20143139D01*
X13369845Y20143142D01*
X13208941Y20304046D01*
X13022534Y20434568D01*
X13022532Y20434569D01*
X12816297Y20530739D01*
X12816288Y20530742D01*
X12596497Y20589634D01*
X12596493Y20589635D01*
X12596492Y20589635D01*
X12596491Y20589636D01*
X12596486Y20589636D01*
X12369802Y20609468D01*
X12369798Y20609468D01*
X12143113Y20589636D01*
X12143102Y20589634D01*
X11923311Y20530742D01*
X11923302Y20530739D01*
X11717067Y20434569D01*
X11717065Y20434568D01*
X11530658Y20304046D01*
X11369754Y20143142D01*
X11239232Y19956735D01*
X11239231Y19956733D01*
X11143061Y19750498D01*
X11143058Y19750489D01*
X11084166Y19530698D01*
X11084164Y19530688D01*
X11065200Y19313928D01*
X11039747Y19248860D01*
X11029353Y19237055D01*
X8368337Y16576039D01*
X8350605Y16549500D01*
X8334660Y16525635D01*
X8328864Y16516961D01*
X8328863Y16516960D01*
X8269788Y16428550D01*
X8269787Y16428548D01*
X8265052Y16417116D01*
X8221211Y16362712D01*
X8154917Y16340647D01*
X8087218Y16357926D01*
X8062810Y16376886D01*
X7994320Y16445376D01*
X7907201Y16532495D01*
X7721205Y16662731D01*
X7677581Y16717308D01*
X7670388Y16786807D01*
X7701910Y16849161D01*
X7721205Y16865881D01*
X7906882Y16995895D01*
X8073905Y17162918D01*
X8209400Y17356422D01*
X8309229Y17570508D01*
X8309232Y17570514D01*
X8366436Y17784000D01*
X7468812Y17784000D01*
X7501725Y17841007D01*
X7535800Y17968174D01*
X7535800Y18099826D01*
X7501725Y18226993D01*
X7468812Y18284000D01*
X8366436Y18284000D01*
X8366435Y18284001D01*
X8309232Y18497487D01*
X8309229Y18497493D01*
X8209400Y18711578D01*
X8209399Y18711580D01*
X8073913Y18905074D01*
X8073908Y18905080D01*
X7906878Y19072110D01*
X7721205Y19202121D01*
X7677580Y19256698D01*
X7670388Y19326196D01*
X7701910Y19388551D01*
X7721206Y19405270D01*
X7733787Y19414079D01*
X7907201Y19535505D01*
X8074295Y19702599D01*
X8209835Y19896170D01*
X8309703Y20110337D01*
X8370863Y20338592D01*
X8391459Y20574000D01*
X8370863Y20809408D01*
X8309703Y21037663D01*
X8209835Y21251829D01*
X8204225Y21259842D01*
X8074294Y21445403D01*
X7907202Y21612494D01*
X7907196Y21612499D01*
X7721642Y21742425D01*
X7678017Y21797002D01*
X7670823Y21866500D01*
X7702346Y21928855D01*
X7721642Y21945575D01*
X7876394Y22053934D01*
X7907201Y22075505D01*
X8074295Y22242599D01*
X8209835Y22436170D01*
X8309703Y22650337D01*
X8370863Y22878592D01*
X8391459Y23114000D01*
X8370863Y23349408D01*
X8365881Y23368002D01*
X11064332Y23368002D01*
X11064332Y23367999D01*
X11084164Y23141314D01*
X11084166Y23141303D01*
X11143058Y22921512D01*
X11143061Y22921503D01*
X11239231Y22715268D01*
X11239232Y22715266D01*
X11369754Y22528859D01*
X11530658Y22367955D01*
X11530661Y22367953D01*
X11717066Y22237432D01*
X11923304Y22141261D01*
X12143108Y22082365D01*
X12305030Y22068199D01*
X12369798Y22062532D01*
X12369800Y22062532D01*
X12369802Y22062532D01*
X12426473Y22067491D01*
X12596492Y22082365D01*
X12816296Y22141261D01*
X13022534Y22237432D01*
X13208939Y22367953D01*
X13369847Y22528861D01*
X13500368Y22715266D01*
X13596539Y22921504D01*
X13655435Y23141308D01*
X13675268Y23368000D01*
X13670630Y23421007D01*
X13662345Y23515706D01*
X13655435Y23594692D01*
X13596539Y23814496D01*
X13500368Y24020734D01*
X13369847Y24207139D01*
X13369845Y24207142D01*
X13208941Y24368046D01*
X13022534Y24498568D01*
X13022532Y24498569D01*
X12816297Y24594739D01*
X12816288Y24594742D01*
X12596497Y24653634D01*
X12596493Y24653635D01*
X12596492Y24653635D01*
X12596491Y24653636D01*
X12596486Y24653636D01*
X12369802Y24673468D01*
X12369798Y24673468D01*
X12143113Y24653636D01*
X12143102Y24653634D01*
X11923311Y24594742D01*
X11923302Y24594739D01*
X11717067Y24498569D01*
X11717065Y24498568D01*
X11530658Y24368046D01*
X11369754Y24207142D01*
X11239232Y24020735D01*
X11239231Y24020733D01*
X11143061Y23814498D01*
X11143058Y23814489D01*
X11084166Y23594698D01*
X11084164Y23594687D01*
X11064332Y23368002D01*
X8365881Y23368002D01*
X8309703Y23577663D01*
X8209835Y23791829D01*
X8204531Y23799405D01*
X8074294Y23985403D01*
X7907202Y24152494D01*
X7907196Y24152499D01*
X7721642Y24282425D01*
X7678017Y24337002D01*
X7670823Y24406500D01*
X7702346Y24468855D01*
X7721642Y24485575D01*
X7780803Y24527000D01*
X7907201Y24615505D01*
X8074295Y24782599D01*
X8209835Y24976170D01*
X8309703Y25190337D01*
X8370863Y25418592D01*
X8391459Y25654000D01*
X8370863Y25889408D01*
X8309703Y26117663D01*
X8209835Y26331829D01*
X8204225Y26339842D01*
X8074294Y26525403D01*
X7907202Y26692494D01*
X7907196Y26692499D01*
X7721642Y26822425D01*
X7678017Y26877002D01*
X7670823Y26946500D01*
X7702346Y27008855D01*
X7721642Y27025575D01*
X7804367Y27083500D01*
X7907201Y27155505D01*
X8074295Y27322599D01*
X8150900Y27432002D01*
X11064332Y27432002D01*
X11064332Y27431999D01*
X11084164Y27205314D01*
X11084166Y27205303D01*
X11143058Y26985512D01*
X11143061Y26985503D01*
X11239231Y26779268D01*
X11239232Y26779266D01*
X11369754Y26592859D01*
X11530658Y26431955D01*
X11530661Y26431953D01*
X11717066Y26301432D01*
X11923304Y26205261D01*
X12143108Y26146365D01*
X12305030Y26132199D01*
X12369798Y26126532D01*
X12369800Y26126532D01*
X12369802Y26126532D01*
X12426473Y26131491D01*
X12596492Y26146365D01*
X12816296Y26205261D01*
X13022534Y26301432D01*
X13208939Y26431953D01*
X13369847Y26592861D01*
X13500368Y26779266D01*
X13596539Y26985504D01*
X13655435Y27205308D01*
X13675268Y27432000D01*
X13655435Y27658692D01*
X13596539Y27878496D01*
X13500368Y28084734D01*
X13369847Y28271139D01*
X13369845Y28271142D01*
X13208941Y28432046D01*
X13022534Y28562568D01*
X13022532Y28562569D01*
X12816297Y28658739D01*
X12816288Y28658742D01*
X12596497Y28717634D01*
X12596493Y28717635D01*
X12596492Y28717635D01*
X12596491Y28717636D01*
X12596486Y28717636D01*
X12369802Y28737468D01*
X12369798Y28737468D01*
X12143113Y28717636D01*
X12143102Y28717634D01*
X11923311Y28658742D01*
X11923302Y28658739D01*
X11717067Y28562569D01*
X11717065Y28562568D01*
X11530658Y28432046D01*
X11369754Y28271142D01*
X11239232Y28084735D01*
X11239231Y28084733D01*
X11143061Y27878498D01*
X11143058Y27878489D01*
X11084166Y27658698D01*
X11084164Y27658687D01*
X11064332Y27432002D01*
X8150900Y27432002D01*
X8209835Y27516170D01*
X8309703Y27730337D01*
X8370863Y27958592D01*
X8371049Y27960721D01*
X8371392Y27961598D01*
X8371802Y27963921D01*
X8372268Y27963839D01*
X8396497Y28025787D01*
X8406888Y28037590D01*
X9328480Y28959181D01*
X9389803Y28992666D01*
X9416161Y28995500D01*
X13144493Y28995500D01*
X13144494Y28995501D01*
X13318466Y29030105D01*
X13400406Y29064047D01*
X13482347Y29097987D01*
X13482349Y29097989D01*
X13482352Y29097990D01*
X13570755Y29157061D01*
X13570755Y29157062D01*
X13570759Y29157064D01*
X13629836Y29196536D01*
X15869263Y31435964D01*
X15869264Y31435965D01*
X15967813Y31583453D01*
X16035694Y31747334D01*
X16039792Y31767933D01*
X16066544Y31902425D01*
X16070300Y31921309D01*
X16070300Y36912691D01*
X16057036Y36979374D01*
X16057036Y36979377D01*
X16035696Y37086659D01*
X16035695Y37086666D01*
X15981235Y37218142D01*
X15967813Y37250547D01*
X15873331Y37391949D01*
X15869264Y37398036D01*
X13710246Y39557054D01*
X13676761Y39618377D01*
X13674399Y39633928D01*
X13673326Y39646196D01*
X13655435Y39850692D01*
X13596539Y40070496D01*
X13500368Y40276734D01*
X13369847Y40463139D01*
X13369845Y40463142D01*
X13208941Y40624046D01*
X13022534Y40754568D01*
X13022532Y40754569D01*
X12816297Y40850739D01*
X12816288Y40850742D01*
X12596497Y40909634D01*
X12596493Y40909635D01*
X12596492Y40909635D01*
X12596491Y40909636D01*
X12596486Y40909636D01*
X12369802Y40929468D01*
X12369798Y40929468D01*
X12143113Y40909636D01*
X12143102Y40909634D01*
X11923311Y40850742D01*
X11923302Y40850739D01*
X11717067Y40754569D01*
X11717065Y40754568D01*
X11530658Y40624046D01*
X11369754Y40463142D01*
X11239232Y40276735D01*
X11239231Y40276733D01*
X11143061Y40070498D01*
X11143061Y40070496D01*
X11084166Y39850698D01*
X11084164Y39850687D01*
X11064332Y39624002D01*
X11064332Y39623999D01*
X11084164Y39397314D01*
X11084166Y39397303D01*
X11143058Y39177512D01*
X11143061Y39177503D01*
X11239231Y38971268D01*
X11239232Y38971266D01*
X11369754Y38784859D01*
X11530658Y38623955D01*
X11530661Y38623953D01*
X11717066Y38493432D01*
X11923304Y38397261D01*
X11923309Y38397260D01*
X11923311Y38397259D01*
X11950354Y38390013D01*
X12143108Y38338365D01*
X12359873Y38319401D01*
X12424941Y38293949D01*
X12436746Y38283554D01*
X12448119Y38272181D01*
X12481604Y38210858D01*
X12476620Y38141166D01*
X12434748Y38085233D01*
X12369284Y38060816D01*
X12360438Y38060500D01*
X8460965Y38060500D01*
X8393926Y38080185D01*
X8368038Y38104000D01*
X7468812Y38104000D01*
X7501725Y38161007D01*
X7535800Y38288174D01*
X7535800Y38419826D01*
X7501725Y38546993D01*
X7468812Y38604000D01*
X8366436Y38604000D01*
X8366435Y38604001D01*
X8309232Y38817487D01*
X8309229Y38817493D01*
X8209400Y39031578D01*
X8209399Y39031580D01*
X8073913Y39225074D01*
X8073908Y39225080D01*
X7906878Y39392110D01*
X7721205Y39522121D01*
X7677580Y39576698D01*
X7670388Y39646196D01*
X7701910Y39708551D01*
X7721206Y39725270D01*
X7845015Y39811962D01*
X7907201Y39855505D01*
X8074295Y40022599D01*
X8209835Y40216170D01*
X8309703Y40430337D01*
X8370863Y40658592D01*
X8391459Y40894000D01*
X8370863Y41129408D01*
X8309703Y41357663D01*
X8209835Y41571829D01*
X8204225Y41579842D01*
X8074294Y41765403D01*
X7907202Y41932494D01*
X7907196Y41932499D01*
X7721642Y42062425D01*
X7678017Y42117002D01*
X7670823Y42186500D01*
X7702346Y42248855D01*
X7721642Y42265575D01*
X7851730Y42356664D01*
X7907201Y42395505D01*
X8074295Y42562599D01*
X8209835Y42756170D01*
X8309703Y42970337D01*
X8370863Y43198592D01*
X8391459Y43434000D01*
X8370863Y43669408D01*
X8309703Y43897663D01*
X8209835Y44111829D01*
X8204531Y44119405D01*
X8074294Y44305403D01*
X7907202Y44472494D01*
X7907196Y44472499D01*
X7721642Y44602425D01*
X7678017Y44657002D01*
X7670823Y44726500D01*
X7702346Y44788855D01*
X7721642Y44805575D01*
X7811781Y44868691D01*
X7907201Y44935505D01*
X8074295Y45102599D01*
X8209835Y45296170D01*
X8309703Y45510337D01*
X8370863Y45738592D01*
X8391459Y45974000D01*
X8370863Y46209408D01*
X8312026Y46428993D01*
X8309705Y46437656D01*
X8309704Y46437657D01*
X8309703Y46437663D01*
X8209835Y46651829D01*
X8206951Y46655949D01*
X8074294Y46845403D01*
X7907202Y47012494D01*
X7907201Y47012495D01*
X7721205Y47142731D01*
X7677581Y47197308D01*
X7670388Y47266807D01*
X7701910Y47329161D01*
X7721205Y47345881D01*
X7906882Y47475895D01*
X8073905Y47642918D01*
X8209400Y47836422D01*
X8306203Y48044016D01*
X8352375Y48096455D01*
X8419569Y48115607D01*
X8486450Y48095391D01*
X8506266Y48079292D01*
X11641934Y44943624D01*
X11675419Y44882301D01*
X11670435Y44812609D01*
X11628563Y44756676D01*
X11625377Y44754368D01*
X11530656Y44688044D01*
X11369754Y44527142D01*
X11239232Y44340735D01*
X11239231Y44340733D01*
X11143061Y44134498D01*
X11143058Y44134489D01*
X11084166Y43914698D01*
X11084164Y43914687D01*
X11064332Y43688002D01*
X11064332Y43687999D01*
X11084164Y43461314D01*
X11084166Y43461303D01*
X11143058Y43241512D01*
X11143061Y43241503D01*
X11239231Y43035268D01*
X11239232Y43035266D01*
X11369754Y42848859D01*
X11530658Y42687955D01*
X11530661Y42687953D01*
X11717066Y42557432D01*
X11923304Y42461261D01*
X12143108Y42402365D01*
X12305030Y42388199D01*
X12369798Y42382532D01*
X12369800Y42382532D01*
X12369802Y42382532D01*
X12426473Y42387491D01*
X12596492Y42402365D01*
X12816296Y42461261D01*
X13022534Y42557432D01*
X13208939Y42687953D01*
X13369847Y42848861D01*
X13500368Y43035266D01*
X13596539Y43241504D01*
X13655435Y43461308D01*
X13675268Y43688000D01*
X13670630Y43741007D01*
X13662486Y43834099D01*
X13655435Y43914692D01*
X13596539Y44134496D01*
X13560819Y44211096D01*
X13550328Y44280173D01*
X13578848Y44343957D01*
X13637324Y44382196D01*
X13673202Y44387500D01*
X15174366Y44387500D01*
X15174367Y44387500D01*
X15933438Y44387500D01*
X16000477Y44367815D01*
X16021119Y44351181D01*
X16766981Y43605320D01*
X16800466Y43543997D01*
X16803300Y43517639D01*
X16803300Y10291304D01*
X16837903Y10117340D01*
X16837905Y10117332D01*
X16846136Y10097464D01*
X16846137Y10097461D01*
X16905785Y9953456D01*
X16905790Y9953447D01*
X16961193Y9870532D01*
X16961193Y9870531D01*
X17004332Y9805969D01*
X17004338Y9805961D01*
X21140336Y5669965D01*
X21227663Y5582638D01*
X21265766Y5544535D01*
X21413246Y5445991D01*
X21413259Y5445984D01*
X21547183Y5390512D01*
X21577134Y5378106D01*
X21577138Y5378106D01*
X21577139Y5378105D01*
X21751105Y5343500D01*
X21751108Y5343500D01*
X21751109Y5343500D01*
X21990301Y5343500D01*
X22057340Y5323815D01*
X22103095Y5271011D01*
X22114301Y5219500D01*
X22114301Y4896124D01*
X22120708Y4836517D01*
X22171002Y4701672D01*
X22171006Y4701665D01*
X22257252Y4586456D01*
X22257255Y4586453D01*
X22372464Y4500207D01*
X22372471Y4500203D01*
X22507317Y4449909D01*
X22507316Y4449909D01*
X22514244Y4449165D01*
X22566927Y4443500D01*
X23762672Y4443501D01*
X23822283Y4449909D01*
X23957131Y4500204D01*
X24072346Y4586454D01*
X24158596Y4701669D01*
X24208891Y4836517D01*
X24215300Y4896127D01*
X24215299Y6389501D01*
X24234984Y6456539D01*
X24287787Y6502294D01*
X24339299Y6513500D01*
X24530300Y6513500D01*
X24597339Y6493815D01*
X24643094Y6441011D01*
X24654300Y6389500D01*
X24654300Y5175442D01*
X24668957Y5045352D01*
X24668959Y5045342D01*
X24721176Y4896117D01*
X24726678Y4880394D01*
X24819653Y4732424D01*
X24943224Y4608853D01*
X25091194Y4515878D01*
X25256143Y4458159D01*
X25256149Y4458159D01*
X25256151Y4458158D01*
X25297550Y4453494D01*
X25386242Y4443501D01*
X25386245Y4443500D01*
X25386248Y4443500D01*
X26023355Y4443500D01*
X26023356Y4443501D01*
X26153457Y4458159D01*
X26318406Y4515878D01*
X26466376Y4608853D01*
X26589947Y4732424D01*
X26682922Y4880394D01*
X26740641Y5045343D01*
X26755300Y5175448D01*
X26755300Y6512552D01*
X26740641Y6642657D01*
X26682922Y6807606D01*
X26679303Y6813365D01*
X26660300Y6879333D01*
X26660300Y8647638D01*
X26679985Y8714677D01*
X26696619Y8735319D01*
X30411261Y12449961D01*
X30411264Y12449964D01*
X30474458Y12544541D01*
X30509813Y12597453D01*
X30544100Y12680229D01*
X30577695Y12761334D01*
X30612300Y12935308D01*
X30612300Y13112692D01*
X30612300Y21308381D01*
X30631985Y21375420D01*
X30648615Y21396058D01*
X31430036Y22177480D01*
X31491359Y22210964D01*
X31561051Y22205980D01*
X31616984Y22164108D01*
X31635648Y22128117D01*
X31642581Y22106777D01*
X31704496Y21985265D01*
X31732828Y21929659D01*
X31735515Y21924387D01*
X31855828Y21758787D01*
X32000586Y21614029D01*
X32155549Y21501444D01*
X32166190Y21493713D01*
X32282407Y21434497D01*
X32348576Y21400782D01*
X32348578Y21400782D01*
X32348581Y21400780D01*
X32426631Y21375420D01*
X32543265Y21337523D01*
X32616596Y21325909D01*
X32687092Y21314743D01*
X32750227Y21284814D01*
X32755375Y21279951D01*
X35664981Y18370345D01*
X35698466Y18309022D01*
X35701300Y18282664D01*
X35701300Y6282703D01*
X35681615Y6215664D01*
X35674247Y6205390D01*
X35542841Y6040612D01*
X35415408Y5819891D01*
X35391727Y5759553D01*
X35348910Y5704339D01*
X35283040Y5681039D01*
X35215030Y5697050D01*
X35166472Y5747289D01*
X35152299Y5804856D01*
X35152299Y6327871D01*
X35152298Y6327877D01*
X35152297Y6327884D01*
X35145891Y6387483D01*
X35140400Y6402204D01*
X35095597Y6522329D01*
X35095593Y6522336D01*
X35009347Y6637545D01*
X35009344Y6637548D01*
X34894135Y6723794D01*
X34894129Y6723797D01*
X34782966Y6765259D01*
X34727033Y6807131D01*
X34702616Y6872595D01*
X34702300Y6881441D01*
X34702300Y9277468D01*
X34715816Y9333764D01*
X34753017Y9406775D01*
X34753018Y9406777D01*
X34753020Y9406781D01*
X34816277Y9601466D01*
X34848300Y9803648D01*
X34848300Y10008352D01*
X34834186Y10097464D01*
X34816277Y10210535D01*
X34779231Y10324549D01*
X34753020Y10405219D01*
X34753018Y10405222D01*
X34753018Y10405224D01*
X34685587Y10537563D01*
X34660087Y10587610D01*
X34652356Y10598251D01*
X34539771Y10753214D01*
X34395013Y10897972D01*
X34229411Y11018287D01*
X34136169Y11065797D01*
X34085374Y11113771D01*
X34068579Y11181593D01*
X34091117Y11247727D01*
X34136171Y11286766D01*
X34229147Y11334139D01*
X34394694Y11454418D01*
X34394695Y11454418D01*
X34539382Y11599105D01*
X34539382Y11599106D01*
X34659659Y11764651D01*
X34752555Y11946971D01*
X34815790Y12141587D01*
X34824409Y12196000D01*
X33630812Y12196000D01*
X33663725Y12253007D01*
X33697800Y12380174D01*
X33697800Y12511826D01*
X33663725Y12638993D01*
X33630812Y12696000D01*
X34824409Y12696000D01*
X34815790Y12750414D01*
X34752555Y12945030D01*
X34659659Y13127350D01*
X34539382Y13292895D01*
X34539382Y13292896D01*
X34394695Y13437583D01*
X34229149Y13557860D01*
X34046831Y13650756D01*
X33852217Y13713991D01*
X33650117Y13746000D01*
X33447800Y13746000D01*
X33447800Y12879012D01*
X33390793Y12911925D01*
X33263626Y12946000D01*
X33131974Y12946000D01*
X33004807Y12911925D01*
X32947800Y12879012D01*
X32947800Y13746000D01*
X32745483Y13746000D01*
X32543382Y13713991D01*
X32348768Y13650756D01*
X32166450Y13557860D01*
X32000905Y13437583D01*
X32000904Y13437583D01*
X31856217Y13292896D01*
X31856217Y13292895D01*
X31735940Y13127350D01*
X31643044Y12945030D01*
X31579809Y12750414D01*
X31571191Y12696000D01*
X32764788Y12696000D01*
X32731875Y12638993D01*
X32697800Y12511826D01*
X32697800Y12380174D01*
X32731875Y12253007D01*
X32764788Y12196000D01*
X31571191Y12196000D01*
X31579809Y12141587D01*
X31643044Y11946971D01*
X31735940Y11764651D01*
X31856217Y11599106D01*
X31856217Y11599105D01*
X32000904Y11454418D01*
X32166452Y11334139D01*
X32259428Y11286766D01*
X32310225Y11238792D01*
X32327020Y11170971D01*
X32304483Y11104836D01*
X32259430Y11065797D01*
X32166188Y11018287D01*
X32000586Y10897972D01*
X31855828Y10753214D01*
X31735515Y10587614D01*
X31642581Y10405224D01*
X31579322Y10210535D01*
X31547300Y10008352D01*
X31547300Y9803649D01*
X31579322Y9601466D01*
X31642581Y9406777D01*
X31735515Y9224387D01*
X31855828Y9058787D01*
X32000584Y8914031D01*
X32038419Y8886543D01*
X32150185Y8805341D01*
X32192851Y8750013D01*
X32201300Y8705024D01*
X32201300Y6881440D01*
X32181615Y6814401D01*
X32128811Y6768646D01*
X32120633Y6765258D01*
X32009471Y6723798D01*
X32009464Y6723794D01*
X31894255Y6637548D01*
X31894252Y6637545D01*
X31808006Y6522336D01*
X31808002Y6522329D01*
X31757708Y6387483D01*
X31752253Y6336740D01*
X31751301Y6327877D01*
X31751300Y6327865D01*
X31751301Y3832134D01*
X31751301Y3832127D01*
X31757708Y3772517D01*
X31808002Y3637672D01*
X31808005Y3637667D01*
X31894252Y3522456D01*
X31894255Y3522453D01*
X32009464Y3436207D01*
X32009471Y3436203D01*
X32144317Y3385909D01*
X32144316Y3385909D01*
X32151244Y3385165D01*
X32203927Y3379500D01*
X34699672Y3379501D01*
X34759283Y3385909D01*
X34894131Y3436204D01*
X35009346Y3522454D01*
X35095596Y3637669D01*
X35145891Y3772517D01*
X35152300Y3832127D01*
X35152299Y4355146D01*
X35171983Y4422182D01*
X35224787Y4467937D01*
X35293946Y4477881D01*
X35357502Y4448856D01*
X35391727Y4400447D01*
X35413823Y4344147D01*
X35415409Y4340108D01*
X35453005Y4274989D01*
X35542841Y4119388D01*
X35701750Y3920123D01*
X35888583Y3746768D01*
X36099166Y3603195D01*
X36099171Y3603193D01*
X36099172Y3603192D01*
X36099173Y3603191D01*
X36221128Y3544462D01*
X36328792Y3492613D01*
X36328793Y3492613D01*
X36328796Y3492611D01*
X36572342Y3417487D01*
X36824365Y3379500D01*
X37079235Y3379500D01*
X37331258Y3417487D01*
X37574804Y3492611D01*
X37804434Y3603195D01*
X38015017Y3746768D01*
X38201850Y3920123D01*
X38360759Y4119388D01*
X38488193Y4340112D01*
X38581308Y4577363D01*
X38581310Y4577376D01*
X38582678Y4581804D01*
X38584124Y4581358D01*
X38615013Y4636588D01*
X38676673Y4669448D01*
X38746310Y4663757D01*
X38801816Y4621320D01*
X38819992Y4581518D01*
X38820922Y4581804D01*
X38822290Y4577370D01*
X38822292Y4577363D01*
X38915407Y4340112D01*
X39042841Y4119388D01*
X39201750Y3920123D01*
X39388583Y3746768D01*
X39599166Y3603195D01*
X39599171Y3603193D01*
X39599172Y3603192D01*
X39599173Y3603191D01*
X39721128Y3544462D01*
X39828792Y3492613D01*
X39828793Y3492613D01*
X39828796Y3492611D01*
X40072342Y3417487D01*
X40324365Y3379500D01*
X40579235Y3379500D01*
X40831258Y3417487D01*
X41074804Y3492611D01*
X41304434Y3603195D01*
X41515017Y3746768D01*
X41701850Y3920123D01*
X41860759Y4119388D01*
X41988193Y4340112D01*
X42081308Y4577363D01*
X42138022Y4825843D01*
X42157068Y5080000D01*
X42152496Y5141007D01*
X42138022Y5334155D01*
X42135889Y5343500D01*
X42081308Y5582637D01*
X41988193Y5819888D01*
X41860759Y6040612D01*
X41729353Y6205390D01*
X41702944Y6270077D01*
X41702300Y6282703D01*
X41702300Y8642770D01*
X41721985Y8709809D01*
X41770006Y8753255D01*
X41849410Y8793713D01*
X41977181Y8886543D01*
X42015013Y8914029D01*
X42015015Y8914032D01*
X42015019Y8914034D01*
X42159766Y9058781D01*
X42159768Y9058785D01*
X42159771Y9058787D01*
X42225420Y9149147D01*
X42280087Y9224390D01*
X42373020Y9406781D01*
X42436277Y9601466D01*
X42468300Y9803648D01*
X42468300Y10008352D01*
X42454186Y10097464D01*
X42436277Y10210535D01*
X42399231Y10324549D01*
X42373020Y10405219D01*
X42373018Y10405222D01*
X42373018Y10405224D01*
X42305587Y10537563D01*
X42280087Y10587610D01*
X42272356Y10598251D01*
X42159771Y10753214D01*
X42015013Y10897972D01*
X41849414Y11018285D01*
X41774968Y11056217D01*
X41756717Y11065517D01*
X41705923Y11113489D01*
X41689128Y11181310D01*
X41711665Y11247445D01*
X41756717Y11286484D01*
X41849410Y11333713D01*
X41870570Y11349087D01*
X42015013Y11454029D01*
X42015015Y11454032D01*
X42015019Y11454034D01*
X42159766Y11598781D01*
X42159768Y11598785D01*
X42159771Y11598787D01*
X42225500Y11689257D01*
X42280087Y11764390D01*
X42373020Y11946781D01*
X42436277Y12141466D01*
X42468300Y12343648D01*
X42468300Y12548352D01*
X42449268Y12668516D01*
X42436277Y12750535D01*
X42383838Y12911925D01*
X42373020Y12945219D01*
X42373018Y12945222D01*
X42373018Y12945224D01*
X42280219Y13127350D01*
X42280087Y13127610D01*
X42280085Y13127612D01*
X42280083Y13127617D01*
X42159771Y13293214D01*
X42015013Y13437972D01*
X41849413Y13558285D01*
X41849412Y13558286D01*
X41849410Y13558287D01*
X41775824Y13595781D01*
X41667023Y13651219D01*
X41472334Y13714478D01*
X41294535Y13742638D01*
X41270152Y13746500D01*
X41270151Y13746500D01*
X41096162Y13746500D01*
X41029123Y13766185D01*
X41008481Y13782819D01*
X39722619Y15068681D01*
X39689134Y15130004D01*
X39686300Y15156362D01*
X39686300Y19719435D01*
X39686299Y19719439D01*
X39665012Y19826456D01*
X39651695Y19893408D01*
X39625464Y19956734D01*
X39613965Y19984495D01*
X39613945Y19984541D01*
X39613943Y19984547D01*
X39583813Y20057289D01*
X39542806Y20118659D01*
X39524736Y20145703D01*
X39524736Y20145704D01*
X39524733Y20145706D01*
X39485266Y20204776D01*
X36981690Y22708352D01*
X39167300Y22708352D01*
X39167300Y22503649D01*
X39199322Y22301466D01*
X39262581Y22106777D01*
X39324496Y21985265D01*
X39352828Y21929659D01*
X39355515Y21924387D01*
X39475828Y21758787D01*
X39620586Y21614029D01*
X39775549Y21501444D01*
X39786190Y21493713D01*
X39902407Y21434497D01*
X39968576Y21400782D01*
X39968578Y21400782D01*
X39968581Y21400780D01*
X40046631Y21375420D01*
X40163265Y21337523D01*
X40264357Y21321512D01*
X40365448Y21305500D01*
X40365449Y21305500D01*
X41270151Y21305500D01*
X41270152Y21305500D01*
X41472334Y21337523D01*
X41667019Y21400780D01*
X41849410Y21493713D01*
X42012897Y21612492D01*
X42015013Y21614029D01*
X42015015Y21614032D01*
X42015019Y21614034D01*
X42159766Y21758781D01*
X42159768Y21758785D01*
X42159771Y21758787D01*
X42224516Y21847903D01*
X42280087Y21924390D01*
X42373020Y22106781D01*
X42436277Y22301466D01*
X42468300Y22503648D01*
X42468300Y22708352D01*
X42452677Y22806993D01*
X42436277Y22910535D01*
X42373018Y23105224D01*
X42335006Y23179826D01*
X42280087Y23287610D01*
X42238889Y23344315D01*
X42159771Y23453214D01*
X42015013Y23597972D01*
X41849413Y23718285D01*
X41849412Y23718286D01*
X41849410Y23718287D01*
X41775824Y23755781D01*
X41667023Y23811219D01*
X41472334Y23874478D01*
X41297795Y23902122D01*
X41270152Y23906500D01*
X40365448Y23906500D01*
X40341129Y23902649D01*
X40163265Y23874478D01*
X39968576Y23811219D01*
X39786186Y23718285D01*
X39620586Y23597972D01*
X39475828Y23453214D01*
X39355515Y23287614D01*
X39262581Y23105224D01*
X39199322Y22910535D01*
X39167300Y22708352D01*
X36981690Y22708352D01*
X35218223Y24471819D01*
X35184738Y24533142D01*
X35189722Y24602834D01*
X35231594Y24658767D01*
X35297058Y24683184D01*
X35305904Y24683500D01*
X46051438Y24683500D01*
X46118477Y24663815D01*
X46139119Y24647181D01*
X51564981Y19221319D01*
X51598466Y19159996D01*
X51601300Y19133638D01*
X51601300Y13701079D01*
X51581615Y13634040D01*
X51533596Y13590595D01*
X51470188Y13558287D01*
X51304586Y13437972D01*
X51159828Y13293214D01*
X51039517Y13127617D01*
X51039514Y13127612D01*
X51039513Y13127610D01*
X51039381Y13127350D01*
X50946581Y12945224D01*
X50883322Y12750535D01*
X50851300Y12548352D01*
X50851300Y12343649D01*
X50883322Y12141466D01*
X50946581Y11946777D01*
X51010491Y11821347D01*
X51036828Y11769659D01*
X51039515Y11764387D01*
X51159828Y11598787D01*
X51304586Y11454029D01*
X51459549Y11341444D01*
X51470190Y11333713D01*
X51561640Y11287117D01*
X51562880Y11286485D01*
X51613676Y11238510D01*
X51630471Y11170689D01*
X51607934Y11104554D01*
X51562880Y11065515D01*
X51470186Y11018285D01*
X51304586Y10897972D01*
X51159828Y10753214D01*
X51039515Y10587614D01*
X50946581Y10405224D01*
X50883322Y10210535D01*
X50851300Y10008352D01*
X50851300Y9803649D01*
X50883773Y9598623D01*
X50885300Y9579225D01*
X50885300Y6282703D01*
X50865615Y6215664D01*
X50858247Y6205390D01*
X50726841Y6040612D01*
X50599408Y5819891D01*
X50506292Y5582638D01*
X50504922Y5578196D01*
X50503477Y5578642D01*
X50472580Y5523407D01*
X50410917Y5490551D01*
X50341280Y5496248D01*
X50285778Y5538689D01*
X50267605Y5578483D01*
X50266678Y5578196D01*
X50265309Y5582631D01*
X50265308Y5582637D01*
X50172193Y5819888D01*
X50044759Y6040612D01*
X49913353Y6205390D01*
X49886944Y6270077D01*
X49886300Y6282703D01*
X49886300Y18838423D01*
X49855509Y19032823D01*
X49855509Y19032826D01*
X49805877Y19185576D01*
X49794684Y19220026D01*
X49705324Y19395405D01*
X49589629Y19554645D01*
X46568619Y22575655D01*
X46535134Y22636978D01*
X46532300Y22663336D01*
X46532300Y22708352D01*
X46500277Y22910535D01*
X46437018Y23105224D01*
X46399006Y23179826D01*
X46344087Y23287610D01*
X46302889Y23344315D01*
X46223771Y23453214D01*
X46079013Y23597972D01*
X45913413Y23718285D01*
X45913412Y23718286D01*
X45913410Y23718287D01*
X45839824Y23755781D01*
X45731023Y23811219D01*
X45536334Y23874478D01*
X45361795Y23902122D01*
X45334152Y23906500D01*
X44429448Y23906500D01*
X44405129Y23902649D01*
X44227265Y23874478D01*
X44032576Y23811219D01*
X43850186Y23718285D01*
X43684586Y23597972D01*
X43539828Y23453214D01*
X43419515Y23287614D01*
X43326581Y23105224D01*
X43263322Y22910535D01*
X43231300Y22708352D01*
X43231300Y22503649D01*
X43263322Y22301466D01*
X43326581Y22106777D01*
X43388496Y21985265D01*
X43416828Y21929659D01*
X43419515Y21924387D01*
X43539828Y21758787D01*
X43684586Y21614029D01*
X43839549Y21501444D01*
X43850190Y21493713D01*
X43966407Y21434497D01*
X44032576Y21400782D01*
X44032578Y21400782D01*
X44032581Y21400780D01*
X44110631Y21375420D01*
X44227262Y21337524D01*
X44227263Y21337524D01*
X44227266Y21337523D01*
X44238012Y21335821D01*
X44301146Y21305894D01*
X44306297Y21301029D01*
X47348981Y18258345D01*
X47382466Y18197022D01*
X47385300Y18170664D01*
X47385300Y6282703D01*
X47365615Y6215664D01*
X47358247Y6205390D01*
X47226841Y6040612D01*
X47099408Y5819891D01*
X47075727Y5759553D01*
X47032910Y5704339D01*
X46967040Y5681039D01*
X46899030Y5697050D01*
X46850472Y5747289D01*
X46836299Y5804856D01*
X46836299Y6327871D01*
X46836298Y6327877D01*
X46836297Y6327884D01*
X46829891Y6387483D01*
X46824400Y6402204D01*
X46779597Y6522329D01*
X46779593Y6522336D01*
X46693347Y6637545D01*
X46693344Y6637548D01*
X46578135Y6723794D01*
X46578129Y6723797D01*
X46466966Y6765259D01*
X46411033Y6807131D01*
X46386616Y6872595D01*
X46386300Y6881441D01*
X46386300Y9277468D01*
X46399816Y9333764D01*
X46437017Y9406775D01*
X46437018Y9406777D01*
X46437020Y9406781D01*
X46500277Y9601466D01*
X46532300Y9803648D01*
X46532300Y10008352D01*
X46518186Y10097464D01*
X46500277Y10210535D01*
X46463231Y10324549D01*
X46437020Y10405219D01*
X46437018Y10405222D01*
X46437018Y10405224D01*
X46369587Y10537563D01*
X46344087Y10587610D01*
X46336356Y10598251D01*
X46223771Y10753214D01*
X46079013Y10897972D01*
X45913411Y11018287D01*
X45820169Y11065797D01*
X45769374Y11113771D01*
X45752579Y11181593D01*
X45775117Y11247727D01*
X45820171Y11286766D01*
X45913147Y11334139D01*
X46078694Y11454418D01*
X46078695Y11454418D01*
X46223382Y11599105D01*
X46223382Y11599106D01*
X46343659Y11764651D01*
X46436555Y11946971D01*
X46499790Y12141587D01*
X46508409Y12196000D01*
X45314812Y12196000D01*
X45347725Y12253007D01*
X45381800Y12380174D01*
X45381800Y12511826D01*
X45347725Y12638993D01*
X45314812Y12696000D01*
X46508409Y12696000D01*
X46499790Y12750414D01*
X46436555Y12945030D01*
X46343659Y13127350D01*
X46223382Y13292895D01*
X46223382Y13292896D01*
X46078695Y13437583D01*
X45913149Y13557860D01*
X45730831Y13650756D01*
X45536217Y13713991D01*
X45334117Y13746000D01*
X45131800Y13746000D01*
X45131800Y12879012D01*
X45074793Y12911925D01*
X44947626Y12946000D01*
X44815974Y12946000D01*
X44688807Y12911925D01*
X44631800Y12879012D01*
X44631800Y13746000D01*
X44429483Y13746000D01*
X44227382Y13713991D01*
X44032768Y13650756D01*
X43850450Y13557860D01*
X43684905Y13437583D01*
X43684904Y13437583D01*
X43540217Y13292896D01*
X43540217Y13292895D01*
X43419940Y13127350D01*
X43327044Y12945030D01*
X43263809Y12750414D01*
X43255191Y12696000D01*
X44448788Y12696000D01*
X44415875Y12638993D01*
X44381800Y12511826D01*
X44381800Y12380174D01*
X44415875Y12253007D01*
X44448788Y12196000D01*
X43255191Y12196000D01*
X43263809Y12141587D01*
X43327044Y11946971D01*
X43419940Y11764651D01*
X43540217Y11599106D01*
X43540217Y11599105D01*
X43684904Y11454418D01*
X43850452Y11334139D01*
X43943428Y11286766D01*
X43994225Y11238792D01*
X44011020Y11170971D01*
X43988483Y11104836D01*
X43943430Y11065797D01*
X43850188Y11018287D01*
X43684586Y10897972D01*
X43539828Y10753214D01*
X43419515Y10587614D01*
X43326581Y10405224D01*
X43263322Y10210535D01*
X43231300Y10008352D01*
X43231300Y9803649D01*
X43263322Y9601466D01*
X43326581Y9406777D01*
X43419515Y9224387D01*
X43539828Y9058787D01*
X43684584Y8914031D01*
X43722419Y8886543D01*
X43834185Y8805341D01*
X43876851Y8750013D01*
X43885300Y8705024D01*
X43885300Y6881440D01*
X43865615Y6814401D01*
X43812811Y6768646D01*
X43804633Y6765258D01*
X43693471Y6723798D01*
X43693464Y6723794D01*
X43578255Y6637548D01*
X43578252Y6637545D01*
X43492006Y6522336D01*
X43492002Y6522329D01*
X43441708Y6387483D01*
X43436253Y6336740D01*
X43435301Y6327877D01*
X43435300Y6327865D01*
X43435301Y3832134D01*
X43435301Y3832127D01*
X43441708Y3772517D01*
X43492002Y3637672D01*
X43492005Y3637667D01*
X43578252Y3522456D01*
X43578255Y3522453D01*
X43693464Y3436207D01*
X43693471Y3436203D01*
X43828317Y3385909D01*
X43828316Y3385909D01*
X43835244Y3385165D01*
X43887927Y3379500D01*
X46383672Y3379501D01*
X46443283Y3385909D01*
X46578131Y3436204D01*
X46693346Y3522454D01*
X46779596Y3637669D01*
X46829891Y3772517D01*
X46836300Y3832127D01*
X46836299Y4355146D01*
X46855983Y4422182D01*
X46908787Y4467937D01*
X46977946Y4477881D01*
X47041502Y4448856D01*
X47075727Y4400447D01*
X47097823Y4344147D01*
X47099409Y4340108D01*
X47137005Y4274989D01*
X47226841Y4119388D01*
X47385750Y3920123D01*
X47572583Y3746768D01*
X47783166Y3603195D01*
X47783171Y3603193D01*
X47783172Y3603192D01*
X47783173Y3603191D01*
X47905128Y3544462D01*
X48012792Y3492613D01*
X48012793Y3492613D01*
X48012796Y3492611D01*
X48256342Y3417487D01*
X48508365Y3379500D01*
X48763235Y3379500D01*
X49015258Y3417487D01*
X49258804Y3492611D01*
X49488434Y3603195D01*
X49699017Y3746768D01*
X49885850Y3920123D01*
X50044759Y4119388D01*
X50172193Y4340112D01*
X50265308Y4577363D01*
X50265310Y4577376D01*
X50266678Y4581804D01*
X50268124Y4581358D01*
X50299013Y4636588D01*
X50360673Y4669448D01*
X50430310Y4663757D01*
X50485816Y4621320D01*
X50503992Y4581518D01*
X50504922Y4581804D01*
X50506290Y4577370D01*
X50506292Y4577363D01*
X50599407Y4340112D01*
X50726841Y4119388D01*
X50885750Y3920123D01*
X51072583Y3746768D01*
X51283166Y3603195D01*
X51283171Y3603193D01*
X51283172Y3603192D01*
X51283173Y3603191D01*
X51405128Y3544462D01*
X51512792Y3492613D01*
X51512793Y3492613D01*
X51512796Y3492611D01*
X51756342Y3417487D01*
X52008365Y3379500D01*
X52263235Y3379500D01*
X52515258Y3417487D01*
X52758804Y3492611D01*
X52988434Y3603195D01*
X53199017Y3746768D01*
X53385850Y3920123D01*
X53544759Y4119388D01*
X53672193Y4340112D01*
X53765308Y4577363D01*
X53822022Y4825843D01*
X53841068Y5080000D01*
X53836496Y5141007D01*
X53822022Y5334155D01*
X53819889Y5343500D01*
X53765308Y5582637D01*
X53672193Y5819888D01*
X53544759Y6040612D01*
X53413353Y6205390D01*
X53386944Y6270077D01*
X53386300Y6282703D01*
X53386300Y8642770D01*
X53405985Y8709809D01*
X53454006Y8753255D01*
X53533410Y8793713D01*
X53661181Y8886543D01*
X53699013Y8914029D01*
X53699015Y8914032D01*
X53699019Y8914034D01*
X53843766Y9058781D01*
X53843768Y9058785D01*
X53843771Y9058787D01*
X53909420Y9149147D01*
X53964087Y9224390D01*
X54057020Y9406781D01*
X54120277Y9601466D01*
X54152300Y9803648D01*
X54152300Y10008352D01*
X54138186Y10097464D01*
X54120277Y10210535D01*
X54083231Y10324549D01*
X54057020Y10405219D01*
X54057018Y10405222D01*
X54057018Y10405224D01*
X53989587Y10537563D01*
X53964087Y10587610D01*
X53956356Y10598251D01*
X53843771Y10753214D01*
X53699013Y10897972D01*
X53533414Y11018285D01*
X53458968Y11056217D01*
X53440717Y11065517D01*
X53389923Y11113489D01*
X53373128Y11181310D01*
X53395665Y11247445D01*
X53440717Y11286484D01*
X53533410Y11333713D01*
X53554570Y11349087D01*
X53699013Y11454029D01*
X53699015Y11454032D01*
X53699019Y11454034D01*
X53843766Y11598781D01*
X53843768Y11598785D01*
X53843771Y11598787D01*
X53909500Y11689257D01*
X53964087Y11764390D01*
X54057020Y11946781D01*
X54120277Y12141466D01*
X54152300Y12343648D01*
X54152300Y12548352D01*
X54133268Y12668516D01*
X54120277Y12750535D01*
X54067838Y12911925D01*
X54057020Y12945219D01*
X54057018Y12945222D01*
X54057018Y12945224D01*
X53964219Y13127350D01*
X53964087Y13127610D01*
X53964085Y13127612D01*
X53964083Y13127617D01*
X53843771Y13293214D01*
X53699013Y13437972D01*
X53533411Y13558287D01*
X53470004Y13590595D01*
X53419209Y13638569D01*
X53402300Y13701079D01*
X53402300Y19646693D01*
X53402299Y19646697D01*
X53398331Y19666648D01*
X53367695Y19820666D01*
X53332942Y19904566D01*
X53331746Y19907454D01*
X53299816Y19984541D01*
X53299814Y19984545D01*
X53299813Y19984547D01*
X53221325Y20102012D01*
X53201264Y20132036D01*
X53201262Y20132039D01*
X53201259Y20132042D01*
X52239481Y21093819D01*
X52205996Y21155142D01*
X52210980Y21224833D01*
X52252852Y21280767D01*
X52318316Y21305184D01*
X52327162Y21305500D01*
X52954151Y21305500D01*
X52954152Y21305500D01*
X53156334Y21337523D01*
X53351019Y21400780D01*
X53533410Y21493713D01*
X53696897Y21612492D01*
X53699013Y21614029D01*
X53699015Y21614032D01*
X53699019Y21614034D01*
X53843766Y21758781D01*
X53843768Y21758785D01*
X53843771Y21758787D01*
X53908516Y21847903D01*
X53964087Y21924390D01*
X54057020Y22106781D01*
X54120277Y22301466D01*
X54152300Y22503648D01*
X54152300Y22708352D01*
X54136677Y22806993D01*
X54120277Y22910535D01*
X54057018Y23105224D01*
X54019006Y23179826D01*
X53964087Y23287610D01*
X53922889Y23344315D01*
X53843771Y23453214D01*
X53699013Y23597972D01*
X53533413Y23718285D01*
X53533412Y23718286D01*
X53533410Y23718287D01*
X53459824Y23755781D01*
X53351023Y23811219D01*
X53156334Y23874478D01*
X52981795Y23902122D01*
X52954152Y23906500D01*
X52049448Y23906500D01*
X52025129Y23902649D01*
X51847265Y23874478D01*
X51652576Y23811219D01*
X51470186Y23718285D01*
X51304586Y23597972D01*
X51159828Y23453214D01*
X51039515Y23287614D01*
X50946581Y23105224D01*
X50883323Y22910536D01*
X50858421Y22753315D01*
X50828491Y22690181D01*
X50769180Y22653250D01*
X50699317Y22654248D01*
X50648267Y22685033D01*
X47661481Y25671819D01*
X47627996Y25733142D01*
X47632980Y25802834D01*
X47674852Y25858767D01*
X47740316Y25883184D01*
X47749162Y25883500D01*
X55887438Y25883500D01*
X55954477Y25863815D01*
X55975119Y25847181D01*
X63248981Y18573320D01*
X63282466Y18511997D01*
X63285300Y18485639D01*
X63285300Y13701079D01*
X63265615Y13634040D01*
X63217596Y13590595D01*
X63154188Y13558287D01*
X62988586Y13437972D01*
X62843828Y13293214D01*
X62723517Y13127617D01*
X62723514Y13127612D01*
X62723513Y13127610D01*
X62723381Y13127350D01*
X62630581Y12945224D01*
X62567322Y12750535D01*
X62535300Y12548352D01*
X62535300Y12343649D01*
X62567322Y12141466D01*
X62630581Y11946777D01*
X62694491Y11821347D01*
X62720828Y11769659D01*
X62723515Y11764387D01*
X62843828Y11598787D01*
X62988586Y11454029D01*
X63143549Y11341444D01*
X63154190Y11333713D01*
X63245640Y11287117D01*
X63246880Y11286485D01*
X63297676Y11238510D01*
X63314471Y11170689D01*
X63291934Y11104554D01*
X63246880Y11065515D01*
X63154186Y11018285D01*
X62988586Y10897972D01*
X62843828Y10753214D01*
X62723515Y10587614D01*
X62630581Y10405224D01*
X62567322Y10210535D01*
X62535300Y10008352D01*
X62535300Y9803649D01*
X62567773Y9598623D01*
X62569300Y9579225D01*
X62569300Y6282703D01*
X62549615Y6215664D01*
X62542247Y6205390D01*
X62410841Y6040612D01*
X62283408Y5819891D01*
X62190292Y5582638D01*
X62188922Y5578196D01*
X62187477Y5578642D01*
X62156580Y5523407D01*
X62094917Y5490551D01*
X62025280Y5496248D01*
X61969778Y5538689D01*
X61951605Y5578483D01*
X61950678Y5578196D01*
X61949309Y5582631D01*
X61949308Y5582637D01*
X61856193Y5819888D01*
X61728759Y6040612D01*
X61597353Y6205390D01*
X61570944Y6270077D01*
X61570300Y6282703D01*
X61570300Y18950423D01*
X61539509Y19144823D01*
X61539509Y19144826D01*
X61531654Y19169000D01*
X61530463Y19172667D01*
X61478685Y19332024D01*
X61427929Y19431638D01*
X61389324Y19507405D01*
X61273629Y19666645D01*
X58241849Y22698425D01*
X58208364Y22759748D01*
X58207057Y22766708D01*
X58200676Y22806993D01*
X58191647Y22864000D01*
X58184277Y22910535D01*
X58121018Y23105224D01*
X58083006Y23179826D01*
X58028087Y23287610D01*
X57986889Y23344315D01*
X57907771Y23453214D01*
X57763013Y23597972D01*
X57597413Y23718285D01*
X57597412Y23718286D01*
X57597410Y23718287D01*
X57523824Y23755781D01*
X57415023Y23811219D01*
X57220334Y23874478D01*
X57045795Y23902122D01*
X57018152Y23906500D01*
X56113448Y23906500D01*
X56089129Y23902649D01*
X55911265Y23874478D01*
X55716576Y23811219D01*
X55534186Y23718285D01*
X55368586Y23597972D01*
X55223828Y23453214D01*
X55103515Y23287614D01*
X55010581Y23105224D01*
X54947322Y22910535D01*
X54915300Y22708352D01*
X54915300Y22503649D01*
X54947322Y22301466D01*
X55010581Y22106777D01*
X55072496Y21985265D01*
X55100828Y21929659D01*
X55103515Y21924387D01*
X55223828Y21758787D01*
X55368586Y21614029D01*
X55523549Y21501444D01*
X55534190Y21493713D01*
X55650407Y21434497D01*
X55716576Y21400782D01*
X55716578Y21400782D01*
X55716581Y21400780D01*
X55794631Y21375420D01*
X55911265Y21337523D01*
X55984596Y21325909D01*
X56055092Y21314743D01*
X56118227Y21284814D01*
X56123375Y21279951D01*
X59032981Y18370345D01*
X59066466Y18309022D01*
X59069300Y18282664D01*
X59069300Y6282703D01*
X59049615Y6215664D01*
X59042247Y6205390D01*
X58910841Y6040612D01*
X58783408Y5819891D01*
X58759727Y5759553D01*
X58716910Y5704339D01*
X58651040Y5681039D01*
X58583030Y5697050D01*
X58534472Y5747289D01*
X58520299Y5804856D01*
X58520299Y6327871D01*
X58520298Y6327877D01*
X58520297Y6327884D01*
X58513891Y6387483D01*
X58508400Y6402204D01*
X58463597Y6522329D01*
X58463593Y6522336D01*
X58377347Y6637545D01*
X58377344Y6637548D01*
X58262135Y6723794D01*
X58262129Y6723797D01*
X58150966Y6765259D01*
X58095033Y6807131D01*
X58070616Y6872595D01*
X58070300Y6881441D01*
X58070300Y9277468D01*
X58083816Y9333764D01*
X58121017Y9406775D01*
X58121018Y9406777D01*
X58121020Y9406781D01*
X58184277Y9601466D01*
X58216300Y9803648D01*
X58216300Y10008352D01*
X58202186Y10097464D01*
X58184277Y10210535D01*
X58147231Y10324549D01*
X58121020Y10405219D01*
X58121018Y10405222D01*
X58121018Y10405224D01*
X58053587Y10537563D01*
X58028087Y10587610D01*
X58020356Y10598251D01*
X57907771Y10753214D01*
X57763013Y10897972D01*
X57597411Y11018287D01*
X57504169Y11065797D01*
X57453374Y11113771D01*
X57436579Y11181593D01*
X57459117Y11247727D01*
X57504171Y11286766D01*
X57597147Y11334139D01*
X57762694Y11454418D01*
X57762695Y11454418D01*
X57907382Y11599105D01*
X57907382Y11599106D01*
X58027659Y11764651D01*
X58120555Y11946971D01*
X58183790Y12141587D01*
X58192409Y12196000D01*
X56998812Y12196000D01*
X57031725Y12253007D01*
X57065800Y12380174D01*
X57065800Y12511826D01*
X57031725Y12638993D01*
X56998812Y12696000D01*
X58192409Y12696000D01*
X58183790Y12750414D01*
X58120555Y12945030D01*
X58027659Y13127350D01*
X57907382Y13292895D01*
X57907382Y13292896D01*
X57762695Y13437583D01*
X57597149Y13557860D01*
X57414831Y13650756D01*
X57220217Y13713991D01*
X57018117Y13746000D01*
X56815800Y13746000D01*
X56815800Y12879012D01*
X56758793Y12911925D01*
X56631626Y12946000D01*
X56499974Y12946000D01*
X56372807Y12911925D01*
X56315800Y12879012D01*
X56315800Y13746000D01*
X56113483Y13746000D01*
X55911382Y13713991D01*
X55716768Y13650756D01*
X55534450Y13557860D01*
X55368905Y13437583D01*
X55368904Y13437583D01*
X55224217Y13292896D01*
X55224217Y13292895D01*
X55103940Y13127350D01*
X55011044Y12945030D01*
X54947809Y12750414D01*
X54939191Y12696000D01*
X56132788Y12696000D01*
X56099875Y12638993D01*
X56065800Y12511826D01*
X56065800Y12380174D01*
X56099875Y12253007D01*
X56132788Y12196000D01*
X54939191Y12196000D01*
X54947809Y12141587D01*
X55011044Y11946971D01*
X55103940Y11764651D01*
X55224217Y11599106D01*
X55224217Y11599105D01*
X55368904Y11454418D01*
X55534452Y11334139D01*
X55627428Y11286766D01*
X55678225Y11238792D01*
X55695020Y11170971D01*
X55672483Y11104836D01*
X55627430Y11065797D01*
X55534188Y11018287D01*
X55368586Y10897972D01*
X55223828Y10753214D01*
X55103515Y10587614D01*
X55010581Y10405224D01*
X54947322Y10210535D01*
X54915300Y10008352D01*
X54915300Y9803649D01*
X54947322Y9601466D01*
X55010581Y9406777D01*
X55103515Y9224387D01*
X55223828Y9058787D01*
X55368584Y8914031D01*
X55406419Y8886543D01*
X55518185Y8805341D01*
X55560851Y8750013D01*
X55569300Y8705024D01*
X55569300Y6881440D01*
X55549615Y6814401D01*
X55496811Y6768646D01*
X55488633Y6765258D01*
X55377471Y6723798D01*
X55377464Y6723794D01*
X55262255Y6637548D01*
X55262252Y6637545D01*
X55176006Y6522336D01*
X55176002Y6522329D01*
X55125708Y6387483D01*
X55120253Y6336740D01*
X55119301Y6327877D01*
X55119300Y6327865D01*
X55119301Y3832134D01*
X55119301Y3832127D01*
X55125708Y3772517D01*
X55176002Y3637672D01*
X55176005Y3637667D01*
X55262252Y3522456D01*
X55262255Y3522453D01*
X55377464Y3436207D01*
X55377471Y3436203D01*
X55512317Y3385909D01*
X55512316Y3385909D01*
X55519244Y3385165D01*
X55571927Y3379500D01*
X58067672Y3379501D01*
X58127283Y3385909D01*
X58262131Y3436204D01*
X58377346Y3522454D01*
X58463596Y3637669D01*
X58513891Y3772517D01*
X58520300Y3832127D01*
X58520299Y4355146D01*
X58539983Y4422182D01*
X58592787Y4467937D01*
X58661946Y4477881D01*
X58725502Y4448856D01*
X58759727Y4400447D01*
X58781823Y4344147D01*
X58783409Y4340108D01*
X58821005Y4274989D01*
X58910841Y4119388D01*
X59069750Y3920123D01*
X59256583Y3746768D01*
X59467166Y3603195D01*
X59467171Y3603193D01*
X59467172Y3603192D01*
X59467173Y3603191D01*
X59589128Y3544462D01*
X59696792Y3492613D01*
X59696793Y3492613D01*
X59696796Y3492611D01*
X59940342Y3417487D01*
X60192365Y3379500D01*
X60447235Y3379500D01*
X60699258Y3417487D01*
X60942804Y3492611D01*
X61172434Y3603195D01*
X61383017Y3746768D01*
X61569850Y3920123D01*
X61728759Y4119388D01*
X61856193Y4340112D01*
X61949308Y4577363D01*
X61949310Y4577376D01*
X61950678Y4581804D01*
X61952124Y4581358D01*
X61983013Y4636588D01*
X62044673Y4669448D01*
X62114310Y4663757D01*
X62169816Y4621320D01*
X62187992Y4581518D01*
X62188922Y4581804D01*
X62190290Y4577370D01*
X62190292Y4577363D01*
X62283407Y4340112D01*
X62410841Y4119388D01*
X62569750Y3920123D01*
X62756583Y3746768D01*
X62967166Y3603195D01*
X62967171Y3603193D01*
X62967172Y3603192D01*
X62967173Y3603191D01*
X63089128Y3544462D01*
X63196792Y3492613D01*
X63196793Y3492613D01*
X63196796Y3492611D01*
X63440342Y3417487D01*
X63692365Y3379500D01*
X63947235Y3379500D01*
X64199258Y3417487D01*
X64442804Y3492611D01*
X64672434Y3603195D01*
X64883017Y3746768D01*
X65069850Y3920123D01*
X65228759Y4119388D01*
X65356193Y4340112D01*
X65449308Y4577363D01*
X65506022Y4825843D01*
X65525068Y5080000D01*
X65520496Y5141007D01*
X65506022Y5334155D01*
X65503889Y5343500D01*
X65449308Y5582637D01*
X65356193Y5819888D01*
X65228759Y6040612D01*
X65097353Y6205390D01*
X65070944Y6270077D01*
X65070300Y6282703D01*
X65070300Y8642770D01*
X65089985Y8709809D01*
X65138006Y8753255D01*
X65217410Y8793713D01*
X65345181Y8886543D01*
X65383013Y8914029D01*
X65383015Y8914032D01*
X65383019Y8914034D01*
X65527766Y9058781D01*
X65527768Y9058785D01*
X65527771Y9058787D01*
X65593420Y9149147D01*
X65648087Y9224390D01*
X65741020Y9406781D01*
X65804277Y9601466D01*
X65836300Y9803648D01*
X65836300Y10008352D01*
X65822186Y10097464D01*
X65804277Y10210535D01*
X65767231Y10324549D01*
X65741020Y10405219D01*
X65741018Y10405222D01*
X65741018Y10405224D01*
X65673587Y10537563D01*
X65648087Y10587610D01*
X65640356Y10598251D01*
X65527771Y10753214D01*
X65383013Y10897972D01*
X65217414Y11018285D01*
X65142968Y11056217D01*
X65124717Y11065517D01*
X65073923Y11113489D01*
X65057128Y11181310D01*
X65079665Y11247445D01*
X65124717Y11286484D01*
X65217410Y11333713D01*
X65238570Y11349087D01*
X65383013Y11454029D01*
X65383015Y11454032D01*
X65383019Y11454034D01*
X65527766Y11598781D01*
X65527768Y11598785D01*
X65527771Y11598787D01*
X65593500Y11689257D01*
X65648087Y11764390D01*
X65741020Y11946781D01*
X65804277Y12141466D01*
X65836300Y12343648D01*
X65836300Y12548352D01*
X65817268Y12668516D01*
X65804277Y12750535D01*
X65751838Y12911925D01*
X65741020Y12945219D01*
X65741018Y12945222D01*
X65741018Y12945224D01*
X65648219Y13127350D01*
X65648087Y13127610D01*
X65648085Y13127612D01*
X65648083Y13127617D01*
X65527771Y13293214D01*
X65383013Y13437972D01*
X65217411Y13558287D01*
X65154004Y13590595D01*
X65103209Y13638569D01*
X65086300Y13701079D01*
X65086300Y18998693D01*
X65081684Y19021897D01*
X65074760Y19056706D01*
X65071696Y19072109D01*
X65057233Y19144823D01*
X65051695Y19172666D01*
X64997294Y19304000D01*
X64983813Y19336547D01*
X64944484Y19395406D01*
X64885265Y19484034D01*
X64833792Y19535507D01*
X64759835Y19609464D01*
X63139757Y21229542D01*
X63106273Y21290864D01*
X63111257Y21360556D01*
X63153129Y21416489D01*
X63218593Y21440906D01*
X63283734Y21427707D01*
X63336576Y21400782D01*
X63336578Y21400782D01*
X63336581Y21400780D01*
X63414631Y21375420D01*
X63531265Y21337523D01*
X63632357Y21321512D01*
X63733448Y21305500D01*
X63733449Y21305500D01*
X64638151Y21305500D01*
X64638152Y21305500D01*
X64840334Y21337523D01*
X65035019Y21400780D01*
X65217410Y21493713D01*
X65380897Y21612492D01*
X65383013Y21614029D01*
X65383015Y21614032D01*
X65383019Y21614034D01*
X65527766Y21758781D01*
X65527768Y21758785D01*
X65527771Y21758787D01*
X65592516Y21847903D01*
X65648087Y21924390D01*
X65741020Y22106781D01*
X65804277Y22301466D01*
X65836300Y22503648D01*
X65836300Y22708352D01*
X65820677Y22806993D01*
X65804277Y22910535D01*
X65741018Y23105224D01*
X65703006Y23179826D01*
X65648087Y23287610D01*
X65606889Y23344315D01*
X65527771Y23453214D01*
X65383013Y23597972D01*
X65217413Y23718285D01*
X65217412Y23718286D01*
X65217410Y23718287D01*
X65143824Y23755781D01*
X65035023Y23811219D01*
X64840334Y23874478D01*
X64665795Y23902122D01*
X64638152Y23906500D01*
X63733448Y23906500D01*
X63709129Y23902649D01*
X63531265Y23874478D01*
X63336576Y23811219D01*
X63154186Y23718285D01*
X62988586Y23597972D01*
X62843828Y23453214D01*
X62723515Y23287614D01*
X62630581Y23105224D01*
X62567322Y22910535D01*
X62535300Y22708352D01*
X62535300Y22503649D01*
X62567322Y22301466D01*
X62630582Y22106774D01*
X62657506Y22053934D01*
X62670402Y21985265D01*
X62644125Y21920525D01*
X62587019Y21880268D01*
X62517213Y21877276D01*
X62459340Y21909959D01*
X61019895Y23349404D01*
X57497481Y26871819D01*
X57463996Y26933142D01*
X57468980Y27002834D01*
X57510852Y27058767D01*
X57576316Y27083184D01*
X57585162Y27083500D01*
X66383109Y27083500D01*
X67317438Y27083500D01*
X67384477Y27063815D01*
X67405119Y27047181D01*
X74932981Y19519319D01*
X74966466Y19457996D01*
X74969300Y19431638D01*
X74969300Y13701079D01*
X74949615Y13634040D01*
X74901596Y13590595D01*
X74838188Y13558287D01*
X74672586Y13437972D01*
X74527828Y13293214D01*
X74407517Y13127617D01*
X74407514Y13127612D01*
X74407513Y13127610D01*
X74407381Y13127350D01*
X74314581Y12945224D01*
X74251322Y12750535D01*
X74219300Y12548352D01*
X74219300Y12343649D01*
X74251322Y12141466D01*
X74314581Y11946777D01*
X74378491Y11821347D01*
X74404828Y11769659D01*
X74407515Y11764387D01*
X74527828Y11598787D01*
X74672586Y11454029D01*
X74827549Y11341444D01*
X74838190Y11333713D01*
X74929640Y11287117D01*
X74930880Y11286485D01*
X74981676Y11238510D01*
X74998471Y11170689D01*
X74975934Y11104554D01*
X74930880Y11065515D01*
X74838186Y11018285D01*
X74672586Y10897972D01*
X74527828Y10753214D01*
X74407515Y10587614D01*
X74314581Y10405224D01*
X74251322Y10210535D01*
X74219300Y10008352D01*
X74219300Y9803649D01*
X74251773Y9598623D01*
X74253300Y9579225D01*
X74253300Y6282703D01*
X74233615Y6215664D01*
X74226247Y6205390D01*
X74094841Y6040612D01*
X73967408Y5819891D01*
X73874292Y5582638D01*
X73872922Y5578196D01*
X73871477Y5578642D01*
X73840580Y5523407D01*
X73778917Y5490551D01*
X73709280Y5496248D01*
X73653778Y5538689D01*
X73635605Y5578483D01*
X73634678Y5578196D01*
X73633309Y5582631D01*
X73633308Y5582637D01*
X73540193Y5819888D01*
X73412759Y6040612D01*
X73281353Y6205390D01*
X73254944Y6270077D01*
X73254300Y6282703D01*
X73254300Y18950423D01*
X73223509Y19144823D01*
X73223509Y19144826D01*
X73215654Y19169000D01*
X73214463Y19172667D01*
X73162685Y19332024D01*
X73111929Y19431638D01*
X73073324Y19507405D01*
X72957629Y19666645D01*
X69925849Y22698425D01*
X69892364Y22759748D01*
X69891057Y22766708D01*
X69884676Y22806993D01*
X69875647Y22864000D01*
X69868277Y22910535D01*
X69805018Y23105224D01*
X69767006Y23179826D01*
X69712087Y23287610D01*
X69670889Y23344315D01*
X69591771Y23453214D01*
X69447013Y23597972D01*
X69281413Y23718285D01*
X69281412Y23718286D01*
X69281410Y23718287D01*
X69207824Y23755781D01*
X69099023Y23811219D01*
X68904334Y23874478D01*
X68729795Y23902122D01*
X68702152Y23906500D01*
X67797448Y23906500D01*
X67773129Y23902649D01*
X67595265Y23874478D01*
X67400576Y23811219D01*
X67218186Y23718285D01*
X67052586Y23597972D01*
X66907828Y23453214D01*
X66787515Y23287614D01*
X66694581Y23105224D01*
X66631322Y22910535D01*
X66599300Y22708352D01*
X66599300Y22503649D01*
X66631322Y22301466D01*
X66694581Y22106777D01*
X66756496Y21985265D01*
X66784828Y21929659D01*
X66787515Y21924387D01*
X66907828Y21758787D01*
X67052586Y21614029D01*
X67207549Y21501444D01*
X67218190Y21493713D01*
X67334407Y21434497D01*
X67400576Y21400782D01*
X67400578Y21400782D01*
X67400581Y21400780D01*
X67478631Y21375420D01*
X67595265Y21337523D01*
X67668596Y21325909D01*
X67739092Y21314743D01*
X67802227Y21284814D01*
X67807375Y21279951D01*
X70716981Y18370345D01*
X70750466Y18309022D01*
X70753300Y18282664D01*
X70753300Y6282703D01*
X70733615Y6215664D01*
X70726247Y6205390D01*
X70594841Y6040612D01*
X70467408Y5819891D01*
X70443727Y5759553D01*
X70400910Y5704339D01*
X70335040Y5681039D01*
X70267030Y5697050D01*
X70218472Y5747289D01*
X70204299Y5804856D01*
X70204299Y6327871D01*
X70204298Y6327877D01*
X70204297Y6327884D01*
X70197891Y6387483D01*
X70192400Y6402204D01*
X70147597Y6522329D01*
X70147593Y6522336D01*
X70061347Y6637545D01*
X70061344Y6637548D01*
X69946135Y6723794D01*
X69946129Y6723797D01*
X69834966Y6765259D01*
X69779033Y6807131D01*
X69754616Y6872595D01*
X69754300Y6881441D01*
X69754300Y9277468D01*
X69767816Y9333764D01*
X69805017Y9406775D01*
X69805018Y9406777D01*
X69805020Y9406781D01*
X69868277Y9601466D01*
X69900300Y9803648D01*
X69900300Y10008352D01*
X69886186Y10097464D01*
X69868277Y10210535D01*
X69831231Y10324549D01*
X69805020Y10405219D01*
X69805018Y10405222D01*
X69805018Y10405224D01*
X69737587Y10537563D01*
X69712087Y10587610D01*
X69704356Y10598251D01*
X69591771Y10753214D01*
X69447013Y10897972D01*
X69281411Y11018287D01*
X69188169Y11065797D01*
X69137374Y11113771D01*
X69120579Y11181593D01*
X69143117Y11247727D01*
X69188171Y11286766D01*
X69281147Y11334139D01*
X69446694Y11454418D01*
X69446695Y11454418D01*
X69591382Y11599105D01*
X69591382Y11599106D01*
X69711659Y11764651D01*
X69804555Y11946971D01*
X69867790Y12141587D01*
X69876409Y12196000D01*
X68682812Y12196000D01*
X68715725Y12253007D01*
X68749800Y12380174D01*
X68749800Y12511826D01*
X68715725Y12638993D01*
X68682812Y12696000D01*
X69876409Y12696000D01*
X69867790Y12750414D01*
X69804555Y12945030D01*
X69711659Y13127350D01*
X69591382Y13292895D01*
X69591382Y13292896D01*
X69446695Y13437583D01*
X69281149Y13557860D01*
X69098831Y13650756D01*
X68904217Y13713991D01*
X68702117Y13746000D01*
X68499800Y13746000D01*
X68499800Y12879012D01*
X68442793Y12911925D01*
X68315626Y12946000D01*
X68183974Y12946000D01*
X68056807Y12911925D01*
X67999800Y12879012D01*
X67999800Y13746000D01*
X67797483Y13746000D01*
X67595382Y13713991D01*
X67400768Y13650756D01*
X67218450Y13557860D01*
X67052905Y13437583D01*
X67052904Y13437583D01*
X66908217Y13292896D01*
X66908217Y13292895D01*
X66787940Y13127350D01*
X66695044Y12945030D01*
X66631809Y12750414D01*
X66623191Y12696000D01*
X67816788Y12696000D01*
X67783875Y12638993D01*
X67749800Y12511826D01*
X67749800Y12380174D01*
X67783875Y12253007D01*
X67816788Y12196000D01*
X66623191Y12196000D01*
X66631809Y12141587D01*
X66695044Y11946971D01*
X66787940Y11764651D01*
X66908217Y11599106D01*
X66908217Y11599105D01*
X67052904Y11454418D01*
X67218452Y11334139D01*
X67311428Y11286766D01*
X67362225Y11238792D01*
X67379020Y11170971D01*
X67356483Y11104836D01*
X67311430Y11065797D01*
X67218188Y11018287D01*
X67052586Y10897972D01*
X66907828Y10753214D01*
X66787515Y10587614D01*
X66694581Y10405224D01*
X66631322Y10210535D01*
X66599300Y10008352D01*
X66599300Y9803649D01*
X66631322Y9601466D01*
X66694581Y9406777D01*
X66787515Y9224387D01*
X66907828Y9058787D01*
X67052584Y8914031D01*
X67090419Y8886543D01*
X67202185Y8805341D01*
X67244851Y8750013D01*
X67253300Y8705024D01*
X67253300Y6881440D01*
X67233615Y6814401D01*
X67180811Y6768646D01*
X67172633Y6765258D01*
X67061471Y6723798D01*
X67061464Y6723794D01*
X66946255Y6637548D01*
X66946252Y6637545D01*
X66860006Y6522336D01*
X66860002Y6522329D01*
X66809708Y6387483D01*
X66804253Y6336740D01*
X66803301Y6327877D01*
X66803300Y6327865D01*
X66803301Y3832134D01*
X66803301Y3832127D01*
X66809708Y3772517D01*
X66860002Y3637672D01*
X66860005Y3637667D01*
X66946252Y3522456D01*
X66946255Y3522453D01*
X67061464Y3436207D01*
X67061471Y3436203D01*
X67196317Y3385909D01*
X67196316Y3385909D01*
X67203244Y3385165D01*
X67255927Y3379500D01*
X69751672Y3379501D01*
X69811283Y3385909D01*
X69946131Y3436204D01*
X70061346Y3522454D01*
X70147596Y3637669D01*
X70197891Y3772517D01*
X70204300Y3832127D01*
X70204299Y4355146D01*
X70223983Y4422182D01*
X70276787Y4467937D01*
X70345946Y4477881D01*
X70409502Y4448856D01*
X70443727Y4400447D01*
X70465823Y4344147D01*
X70467409Y4340108D01*
X70505005Y4274989D01*
X70594841Y4119388D01*
X70753750Y3920123D01*
X70940583Y3746768D01*
X71151166Y3603195D01*
X71151171Y3603193D01*
X71151172Y3603192D01*
X71151173Y3603191D01*
X71273128Y3544462D01*
X71380792Y3492613D01*
X71380793Y3492613D01*
X71380796Y3492611D01*
X71624342Y3417487D01*
X71876365Y3379500D01*
X72131235Y3379500D01*
X72383258Y3417487D01*
X72626804Y3492611D01*
X72856434Y3603195D01*
X73067017Y3746768D01*
X73253850Y3920123D01*
X73412759Y4119388D01*
X73540193Y4340112D01*
X73633308Y4577363D01*
X73633310Y4577376D01*
X73634678Y4581804D01*
X73636124Y4581358D01*
X73667013Y4636588D01*
X73728673Y4669448D01*
X73798310Y4663757D01*
X73853816Y4621320D01*
X73871992Y4581518D01*
X73872922Y4581804D01*
X73874290Y4577370D01*
X73874292Y4577363D01*
X73967407Y4340112D01*
X74094841Y4119388D01*
X74253750Y3920123D01*
X74440583Y3746768D01*
X74651166Y3603195D01*
X74651171Y3603193D01*
X74651172Y3603192D01*
X74651173Y3603191D01*
X74773128Y3544462D01*
X74880792Y3492613D01*
X74880793Y3492613D01*
X74880796Y3492611D01*
X75124342Y3417487D01*
X75376365Y3379500D01*
X75631235Y3379500D01*
X75883258Y3417487D01*
X76126804Y3492611D01*
X76356434Y3603195D01*
X76567017Y3746768D01*
X76753850Y3920123D01*
X76912759Y4119388D01*
X77040193Y4340112D01*
X77133308Y4577363D01*
X77190022Y4825843D01*
X77209068Y5080000D01*
X77204496Y5141007D01*
X77190022Y5334155D01*
X77187889Y5343500D01*
X77133308Y5582637D01*
X77040193Y5819888D01*
X76912759Y6040612D01*
X76781353Y6205390D01*
X76754944Y6270077D01*
X76754300Y6282703D01*
X76754300Y8642770D01*
X76773985Y8709809D01*
X76822006Y8753255D01*
X76901410Y8793713D01*
X77029181Y8886543D01*
X77067013Y8914029D01*
X77067015Y8914032D01*
X77067019Y8914034D01*
X77211766Y9058781D01*
X77211768Y9058785D01*
X77211771Y9058787D01*
X77277420Y9149147D01*
X77332087Y9224390D01*
X77425020Y9406781D01*
X77488277Y9601466D01*
X77520300Y9803648D01*
X77520300Y10008352D01*
X77506186Y10097464D01*
X77488277Y10210535D01*
X77451231Y10324549D01*
X77425020Y10405219D01*
X77425018Y10405222D01*
X77425018Y10405224D01*
X77357587Y10537563D01*
X77332087Y10587610D01*
X77324356Y10598251D01*
X77211771Y10753214D01*
X77067013Y10897972D01*
X76901414Y11018285D01*
X76826968Y11056217D01*
X76808717Y11065517D01*
X76757923Y11113489D01*
X76741128Y11181310D01*
X76763665Y11247445D01*
X76808717Y11286484D01*
X76901410Y11333713D01*
X76922570Y11349087D01*
X77067013Y11454029D01*
X77067015Y11454032D01*
X77067019Y11454034D01*
X77211766Y11598781D01*
X77211768Y11598785D01*
X77211771Y11598787D01*
X77277500Y11689257D01*
X77332087Y11764390D01*
X77425020Y11946781D01*
X77488277Y12141466D01*
X77520300Y12343648D01*
X77520300Y12548352D01*
X77501268Y12668516D01*
X77488277Y12750535D01*
X77435838Y12911925D01*
X77425020Y12945219D01*
X77425018Y12945222D01*
X77425018Y12945224D01*
X77332219Y13127350D01*
X77332087Y13127610D01*
X77332085Y13127612D01*
X77332083Y13127617D01*
X77211771Y13293214D01*
X77067013Y13437972D01*
X76901411Y13558287D01*
X76838004Y13590595D01*
X76787209Y13638569D01*
X76770300Y13701079D01*
X76770300Y19944693D01*
X76770299Y19944697D01*
X76767904Y19956736D01*
X76735695Y20118666D01*
X76678840Y20255924D01*
X76667813Y20282547D01*
X76576100Y20419805D01*
X76569264Y20430036D01*
X76569261Y20430039D01*
X76569259Y20430042D01*
X75905481Y21093819D01*
X75871996Y21155142D01*
X75876980Y21224833D01*
X75918851Y21280767D01*
X75984316Y21305184D01*
X75993162Y21305500D01*
X76322151Y21305500D01*
X76322152Y21305500D01*
X76524334Y21337523D01*
X76719019Y21400780D01*
X76901410Y21493713D01*
X77064897Y21612492D01*
X77067013Y21614029D01*
X77067015Y21614032D01*
X77067019Y21614034D01*
X77211766Y21758781D01*
X77211768Y21758785D01*
X77211771Y21758787D01*
X77276516Y21847903D01*
X77332087Y21924390D01*
X77425020Y22106781D01*
X77488277Y22301466D01*
X77520300Y22503648D01*
X77520300Y22708352D01*
X77504677Y22806993D01*
X77488277Y22910535D01*
X77425018Y23105224D01*
X77387006Y23179826D01*
X77332087Y23287610D01*
X77290889Y23344315D01*
X77211771Y23453214D01*
X77067013Y23597972D01*
X76901413Y23718285D01*
X76901412Y23718286D01*
X76901410Y23718287D01*
X76827824Y23755781D01*
X76719023Y23811219D01*
X76524334Y23874478D01*
X76349795Y23902122D01*
X76322152Y23906500D01*
X75417448Y23906500D01*
X75393129Y23902649D01*
X75215265Y23874478D01*
X75020576Y23811219D01*
X74838186Y23718285D01*
X74672586Y23597972D01*
X74527828Y23453214D01*
X74407515Y23287614D01*
X74314581Y23105224D01*
X74273987Y22980287D01*
X74234549Y22922612D01*
X74170190Y22895414D01*
X74101344Y22907329D01*
X74068375Y22930925D01*
X68927481Y28071819D01*
X68893996Y28133142D01*
X68898980Y28202834D01*
X68940852Y28258767D01*
X69006316Y28283184D01*
X69015162Y28283500D01*
X77938696Y28283500D01*
X78005735Y28263815D01*
X78026377Y28247181D01*
X86616981Y19656577D01*
X86650466Y19595254D01*
X86653300Y19568896D01*
X86653300Y13701079D01*
X86633615Y13634040D01*
X86585596Y13590595D01*
X86522188Y13558287D01*
X86356586Y13437972D01*
X86211828Y13293214D01*
X86091517Y13127617D01*
X86091514Y13127612D01*
X86091513Y13127610D01*
X86091381Y13127350D01*
X85998581Y12945224D01*
X85935322Y12750535D01*
X85903300Y12548352D01*
X85903300Y12343649D01*
X85935322Y12141466D01*
X85998581Y11946777D01*
X86062491Y11821347D01*
X86088828Y11769659D01*
X86091515Y11764387D01*
X86211828Y11598787D01*
X86356586Y11454029D01*
X86511549Y11341444D01*
X86522190Y11333713D01*
X86613640Y11287117D01*
X86614880Y11286485D01*
X86665676Y11238510D01*
X86682471Y11170689D01*
X86659934Y11104554D01*
X86614880Y11065515D01*
X86522186Y11018285D01*
X86356586Y10897972D01*
X86211828Y10753214D01*
X86091515Y10587614D01*
X85998581Y10405224D01*
X85935322Y10210535D01*
X85903300Y10008352D01*
X85903300Y9803649D01*
X85935773Y9598623D01*
X85937300Y9579225D01*
X85937300Y6282703D01*
X85917615Y6215664D01*
X85910247Y6205390D01*
X85778841Y6040612D01*
X85651408Y5819891D01*
X85558292Y5582638D01*
X85556922Y5578196D01*
X85555477Y5578642D01*
X85524580Y5523407D01*
X85462917Y5490551D01*
X85393280Y5496248D01*
X85337778Y5538689D01*
X85319605Y5578483D01*
X85318678Y5578196D01*
X85317309Y5582631D01*
X85317308Y5582637D01*
X85224193Y5819888D01*
X85096759Y6040612D01*
X84965353Y6205390D01*
X84938944Y6270077D01*
X84938300Y6282703D01*
X84938300Y18838423D01*
X84907509Y19032823D01*
X84907509Y19032826D01*
X84857877Y19185576D01*
X84846684Y19220026D01*
X84757324Y19395405D01*
X84641629Y19554645D01*
X81620619Y22575655D01*
X81587134Y22636978D01*
X81584300Y22663336D01*
X81584300Y22708352D01*
X81552277Y22910535D01*
X81489018Y23105224D01*
X81451006Y23179826D01*
X81396087Y23287610D01*
X81354889Y23344315D01*
X81275771Y23453214D01*
X81131013Y23597972D01*
X80965413Y23718285D01*
X80965412Y23718286D01*
X80965410Y23718287D01*
X80891824Y23755781D01*
X80783023Y23811219D01*
X80588334Y23874478D01*
X80413795Y23902122D01*
X80386152Y23906500D01*
X79481448Y23906500D01*
X79457129Y23902649D01*
X79279265Y23874478D01*
X79084576Y23811219D01*
X78902186Y23718285D01*
X78736586Y23597972D01*
X78591828Y23453214D01*
X78471515Y23287614D01*
X78378581Y23105224D01*
X78315322Y22910535D01*
X78283300Y22708352D01*
X78283300Y22503649D01*
X78315322Y22301466D01*
X78378581Y22106777D01*
X78440496Y21985265D01*
X78468828Y21929659D01*
X78471515Y21924387D01*
X78591828Y21758787D01*
X78736586Y21614029D01*
X78891549Y21501444D01*
X78902190Y21493713D01*
X79018407Y21434497D01*
X79084576Y21400782D01*
X79084578Y21400782D01*
X79084581Y21400780D01*
X79162631Y21375420D01*
X79279262Y21337524D01*
X79279263Y21337524D01*
X79279266Y21337523D01*
X79290012Y21335821D01*
X79353146Y21305894D01*
X79358297Y21301029D01*
X82400981Y18258345D01*
X82434466Y18197022D01*
X82437300Y18170664D01*
X82437300Y6282703D01*
X82417615Y6215664D01*
X82410247Y6205390D01*
X82278841Y6040612D01*
X82151408Y5819891D01*
X82127727Y5759553D01*
X82084910Y5704339D01*
X82019040Y5681039D01*
X81951030Y5697050D01*
X81902472Y5747289D01*
X81888299Y5804856D01*
X81888299Y6327871D01*
X81888298Y6327877D01*
X81888297Y6327884D01*
X81881891Y6387483D01*
X81876400Y6402204D01*
X81831597Y6522329D01*
X81831593Y6522336D01*
X81745347Y6637545D01*
X81745344Y6637548D01*
X81630135Y6723794D01*
X81630129Y6723797D01*
X81518966Y6765259D01*
X81463033Y6807131D01*
X81438616Y6872595D01*
X81438300Y6881441D01*
X81438300Y9277468D01*
X81451816Y9333764D01*
X81489017Y9406775D01*
X81489018Y9406777D01*
X81489020Y9406781D01*
X81552277Y9601466D01*
X81584300Y9803648D01*
X81584300Y10008352D01*
X81570186Y10097464D01*
X81552277Y10210535D01*
X81515231Y10324549D01*
X81489020Y10405219D01*
X81489018Y10405222D01*
X81489018Y10405224D01*
X81421587Y10537563D01*
X81396087Y10587610D01*
X81388356Y10598251D01*
X81275771Y10753214D01*
X81131013Y10897972D01*
X80965411Y11018287D01*
X80872169Y11065797D01*
X80821374Y11113771D01*
X80804579Y11181593D01*
X80827117Y11247727D01*
X80872171Y11286766D01*
X80965147Y11334139D01*
X81130694Y11454418D01*
X81130695Y11454418D01*
X81275382Y11599105D01*
X81275382Y11599106D01*
X81395659Y11764651D01*
X81488555Y11946971D01*
X81551790Y12141587D01*
X81560409Y12196000D01*
X80366812Y12196000D01*
X80399725Y12253007D01*
X80433800Y12380174D01*
X80433800Y12511826D01*
X80399725Y12638993D01*
X80366812Y12696000D01*
X81560409Y12696000D01*
X81551790Y12750414D01*
X81488555Y12945030D01*
X81395659Y13127350D01*
X81275382Y13292895D01*
X81275382Y13292896D01*
X81130695Y13437583D01*
X80965149Y13557860D01*
X80782831Y13650756D01*
X80588217Y13713991D01*
X80386117Y13746000D01*
X80183800Y13746000D01*
X80183800Y12879012D01*
X80126793Y12911925D01*
X79999626Y12946000D01*
X79867974Y12946000D01*
X79740807Y12911925D01*
X79683800Y12879012D01*
X79683800Y13746000D01*
X79481483Y13746000D01*
X79279382Y13713991D01*
X79084768Y13650756D01*
X78902450Y13557860D01*
X78736905Y13437583D01*
X78736904Y13437583D01*
X78592217Y13292896D01*
X78592217Y13292895D01*
X78471940Y13127350D01*
X78379044Y12945030D01*
X78315809Y12750414D01*
X78307191Y12696000D01*
X79500788Y12696000D01*
X79467875Y12638993D01*
X79433800Y12511826D01*
X79433800Y12380174D01*
X79467875Y12253007D01*
X79500788Y12196000D01*
X78307191Y12196000D01*
X78315809Y12141587D01*
X78379044Y11946971D01*
X78471940Y11764651D01*
X78592217Y11599106D01*
X78592217Y11599105D01*
X78736904Y11454418D01*
X78902452Y11334139D01*
X78995428Y11286766D01*
X79046225Y11238792D01*
X79063020Y11170971D01*
X79040483Y11104836D01*
X78995430Y11065797D01*
X78902188Y11018287D01*
X78736586Y10897972D01*
X78591828Y10753214D01*
X78471515Y10587614D01*
X78378581Y10405224D01*
X78315322Y10210535D01*
X78283300Y10008352D01*
X78283300Y9803649D01*
X78315322Y9601466D01*
X78378581Y9406777D01*
X78471515Y9224387D01*
X78591828Y9058787D01*
X78736584Y8914031D01*
X78774419Y8886543D01*
X78886185Y8805341D01*
X78928851Y8750013D01*
X78937300Y8705024D01*
X78937300Y6881440D01*
X78917615Y6814401D01*
X78864811Y6768646D01*
X78856633Y6765258D01*
X78745471Y6723798D01*
X78745464Y6723794D01*
X78630255Y6637548D01*
X78630252Y6637545D01*
X78544006Y6522336D01*
X78544002Y6522329D01*
X78493708Y6387483D01*
X78488253Y6336740D01*
X78487301Y6327877D01*
X78487300Y6327865D01*
X78487301Y3832134D01*
X78487301Y3832127D01*
X78493708Y3772517D01*
X78544002Y3637672D01*
X78544005Y3637667D01*
X78630252Y3522456D01*
X78630255Y3522453D01*
X78745464Y3436207D01*
X78745471Y3436203D01*
X78880317Y3385909D01*
X78880316Y3385909D01*
X78887244Y3385165D01*
X78939927Y3379500D01*
X81435672Y3379501D01*
X81495283Y3385909D01*
X81630131Y3436204D01*
X81745346Y3522454D01*
X81831596Y3637669D01*
X81881891Y3772517D01*
X81888300Y3832127D01*
X81888299Y4355146D01*
X81907983Y4422182D01*
X81960787Y4467937D01*
X82029946Y4477881D01*
X82093502Y4448856D01*
X82127727Y4400447D01*
X82149823Y4344147D01*
X82151409Y4340108D01*
X82189005Y4274989D01*
X82278841Y4119388D01*
X82437750Y3920123D01*
X82624583Y3746768D01*
X82835166Y3603195D01*
X82835171Y3603193D01*
X82835172Y3603192D01*
X82835173Y3603191D01*
X82957128Y3544462D01*
X83064792Y3492613D01*
X83064793Y3492613D01*
X83064796Y3492611D01*
X83308342Y3417487D01*
X83560365Y3379500D01*
X83815235Y3379500D01*
X84067258Y3417487D01*
X84310804Y3492611D01*
X84540434Y3603195D01*
X84751017Y3746768D01*
X84937850Y3920123D01*
X85096759Y4119388D01*
X85224193Y4340112D01*
X85317308Y4577363D01*
X85317310Y4577376D01*
X85318678Y4581804D01*
X85320124Y4581358D01*
X85351013Y4636588D01*
X85412673Y4669448D01*
X85482310Y4663757D01*
X85537816Y4621320D01*
X85555992Y4581518D01*
X85556922Y4581804D01*
X85558290Y4577370D01*
X85558292Y4577363D01*
X85651407Y4340112D01*
X85778841Y4119388D01*
X85937750Y3920123D01*
X86124583Y3746768D01*
X86335166Y3603195D01*
X86335171Y3603193D01*
X86335172Y3603192D01*
X86335173Y3603191D01*
X86457128Y3544462D01*
X86564792Y3492613D01*
X86564793Y3492613D01*
X86564796Y3492611D01*
X86808342Y3417487D01*
X87060365Y3379500D01*
X87315235Y3379500D01*
X87567258Y3417487D01*
X87810804Y3492611D01*
X88040434Y3603195D01*
X88251017Y3746768D01*
X88437850Y3920123D01*
X88596759Y4119388D01*
X88724193Y4340112D01*
X88817308Y4577363D01*
X88874022Y4825843D01*
X88893068Y5080000D01*
X88888496Y5141007D01*
X88874022Y5334155D01*
X88871889Y5343500D01*
X88817308Y5582637D01*
X88724193Y5819888D01*
X88596759Y6040612D01*
X88465353Y6205390D01*
X88438944Y6270077D01*
X88438300Y6282703D01*
X88438300Y8642770D01*
X88457985Y8709809D01*
X88506006Y8753255D01*
X88585410Y8793713D01*
X88713181Y8886543D01*
X88751013Y8914029D01*
X88751015Y8914032D01*
X88751019Y8914034D01*
X88895766Y9058781D01*
X88895768Y9058785D01*
X88895771Y9058787D01*
X88961420Y9149147D01*
X89016087Y9224390D01*
X89109020Y9406781D01*
X89172277Y9601466D01*
X89204300Y9803648D01*
X89204300Y10008352D01*
X89190186Y10097464D01*
X89172277Y10210535D01*
X89135231Y10324549D01*
X89109020Y10405219D01*
X89109018Y10405222D01*
X89109018Y10405224D01*
X89041587Y10537563D01*
X89016087Y10587610D01*
X89008356Y10598251D01*
X88895771Y10753214D01*
X88751013Y10897972D01*
X88585414Y11018285D01*
X88510968Y11056217D01*
X88492717Y11065517D01*
X88441923Y11113489D01*
X88425128Y11181310D01*
X88447665Y11247445D01*
X88492717Y11286484D01*
X88585410Y11333713D01*
X88606570Y11349087D01*
X88751013Y11454029D01*
X88751015Y11454032D01*
X88751019Y11454034D01*
X88895766Y11598781D01*
X88895768Y11598785D01*
X88895771Y11598787D01*
X88961500Y11689257D01*
X89016087Y11764390D01*
X89109020Y11946781D01*
X89172277Y12141466D01*
X89204300Y12343648D01*
X89204300Y12548352D01*
X89185268Y12668516D01*
X89172277Y12750535D01*
X89119838Y12911925D01*
X89109020Y12945219D01*
X89109018Y12945222D01*
X89109018Y12945224D01*
X89016219Y13127350D01*
X89016087Y13127610D01*
X89016085Y13127612D01*
X89016083Y13127617D01*
X88895771Y13293214D01*
X88751013Y13437972D01*
X88585411Y13558287D01*
X88522004Y13590595D01*
X88471209Y13638569D01*
X88454300Y13701079D01*
X88454300Y20081951D01*
X88454299Y20081955D01*
X88419695Y20255924D01*
X88419694Y20255927D01*
X88378266Y20355941D01*
X88378261Y20355951D01*
X88378236Y20356013D01*
X88351813Y20419805D01*
X88261168Y20555464D01*
X88261168Y20555465D01*
X88261165Y20555468D01*
X88253264Y20567294D01*
X87726739Y21093819D01*
X87693254Y21155142D01*
X87698238Y21224834D01*
X87740110Y21280767D01*
X87805574Y21305184D01*
X87814420Y21305500D01*
X88006151Y21305500D01*
X88006152Y21305500D01*
X88208334Y21337523D01*
X88403019Y21400780D01*
X88585410Y21493713D01*
X88748897Y21612492D01*
X88751013Y21614029D01*
X88751015Y21614032D01*
X88751019Y21614034D01*
X88895766Y21758781D01*
X88895768Y21758785D01*
X88895771Y21758787D01*
X88960516Y21847903D01*
X89016087Y21924390D01*
X89109020Y22106781D01*
X89172277Y22301466D01*
X89204300Y22503648D01*
X89204300Y22708352D01*
X89188677Y22806993D01*
X89172277Y22910535D01*
X89109018Y23105224D01*
X89071006Y23179826D01*
X89016087Y23287610D01*
X88974889Y23344315D01*
X88895771Y23453214D01*
X88751013Y23597972D01*
X88585413Y23718285D01*
X88585412Y23718286D01*
X88585410Y23718287D01*
X88511824Y23755781D01*
X88403023Y23811219D01*
X88208334Y23874478D01*
X88033795Y23902122D01*
X88006152Y23906500D01*
X87101448Y23906500D01*
X87077129Y23902649D01*
X86899265Y23874478D01*
X86704576Y23811219D01*
X86522186Y23718285D01*
X86356586Y23597972D01*
X86211828Y23453214D01*
X86091515Y23287614D01*
X85998579Y23105220D01*
X85991647Y23083883D01*
X85952209Y23026208D01*
X85887850Y22999011D01*
X85819004Y23010927D01*
X85786036Y23034522D01*
X78972610Y29847949D01*
X78939125Y29909272D01*
X78944109Y29978964D01*
X78972610Y30023311D01*
X79296588Y30347289D01*
X82748483Y30347289D01*
X82748483Y30104712D01*
X82780144Y29864215D01*
X82842930Y29629896D01*
X82935756Y29405795D01*
X82935759Y29405788D01*
X83057047Y29195711D01*
X83057049Y29195708D01*
X83057050Y29195707D01*
X83204716Y29003264D01*
X83204722Y29003257D01*
X83376239Y28831740D01*
X83376245Y28831735D01*
X83568694Y28684064D01*
X83778771Y28562776D01*
X84002883Y28469946D01*
X84237194Y28407162D01*
X84417569Y28383416D01*
X84477694Y28375500D01*
X84477695Y28375500D01*
X84720272Y28375500D01*
X84768371Y28381833D01*
X84960772Y28407162D01*
X85195083Y28469946D01*
X85419195Y28562776D01*
X85629272Y28684064D01*
X85821721Y28831735D01*
X85993248Y29003262D01*
X86140919Y29195711D01*
X86262207Y29405788D01*
X86355037Y29629900D01*
X86417821Y29864211D01*
X86449483Y30104712D01*
X86449483Y30347288D01*
X86417821Y30587789D01*
X86355037Y30822100D01*
X86262207Y31046212D01*
X86140919Y31256289D01*
X86033718Y31395997D01*
X85993249Y31448737D01*
X85993243Y31448744D01*
X85821726Y31620261D01*
X85821719Y31620267D01*
X85629276Y31767933D01*
X85629275Y31767934D01*
X85629272Y31767936D01*
X85419195Y31889224D01*
X85412148Y31892143D01*
X85195087Y31982053D01*
X84968941Y32042649D01*
X84960772Y32044838D01*
X84960771Y32044839D01*
X84960768Y32044839D01*
X84720272Y32076500D01*
X84720271Y32076500D01*
X84477695Y32076500D01*
X84477694Y32076500D01*
X84237197Y32044839D01*
X84002878Y31982053D01*
X83778777Y31889227D01*
X83778768Y31889223D01*
X83677612Y31830820D01*
X83576591Y31772495D01*
X83568689Y31767933D01*
X83376246Y31620267D01*
X83376239Y31620261D01*
X83204722Y31448744D01*
X83204716Y31448737D01*
X83057050Y31256294D01*
X82935760Y31046215D01*
X82935756Y31046206D01*
X82842930Y30822105D01*
X82780144Y30587786D01*
X82748483Y30347289D01*
X79296588Y30347289D01*
X82583262Y33633963D01*
X82583264Y33633965D01*
X82612758Y33678106D01*
X82681813Y33781453D01*
X82709392Y33848036D01*
X82749695Y33945334D01*
X82784300Y34119309D01*
X82784300Y34296692D01*
X82784300Y44874691D01*
X82784300Y44874692D01*
X82784300Y44874695D01*
X82784299Y44874699D01*
X82749696Y45048659D01*
X82749693Y45048668D01*
X82681816Y45212541D01*
X82681809Y45212554D01*
X82583265Y45360034D01*
X82527484Y45415815D01*
X82457835Y45485464D01*
X81591422Y46351877D01*
X81557938Y46413199D01*
X81556631Y46458955D01*
X81584300Y46633649D01*
X81584300Y46838352D01*
X81552277Y47040535D01*
X81513738Y47159145D01*
X81489020Y47235219D01*
X81489018Y47235222D01*
X81489018Y47235224D01*
X81453204Y47305512D01*
X81396087Y47417610D01*
X81374294Y47447606D01*
X81275771Y47583214D01*
X81131013Y47727972D01*
X80965414Y47848285D01*
X80923104Y47869843D01*
X80872717Y47895517D01*
X80821923Y47943489D01*
X80805128Y48011310D01*
X80827665Y48077445D01*
X80872717Y48116484D01*
X80965410Y48163713D01*
X81013273Y48198487D01*
X81131013Y48284029D01*
X81131015Y48284032D01*
X81131019Y48284034D01*
X81275766Y48428781D01*
X81275768Y48428785D01*
X81275771Y48428787D01*
X81347463Y48527464D01*
X81396087Y48594390D01*
X81489020Y48776781D01*
X81552277Y48971466D01*
X81584300Y49173648D01*
X81584300Y49378352D01*
X81556718Y49552495D01*
X81552277Y49580535D01*
X81500328Y49740417D01*
X81489020Y49775219D01*
X81489018Y49775222D01*
X81489017Y49775227D01*
X81451815Y49848240D01*
X81438300Y49904534D01*
X81438300Y53153299D01*
X81457985Y53220338D01*
X81465347Y53230604D01*
X81596759Y53395388D01*
X81724193Y53616112D01*
X81817308Y53853363D01*
X81817310Y53853376D01*
X81818678Y53857804D01*
X81820124Y53857358D01*
X81851013Y53912588D01*
X81912673Y53945448D01*
X81982310Y53939757D01*
X82037816Y53897320D01*
X82055992Y53857518D01*
X82056922Y53857804D01*
X82058290Y53853370D01*
X82058292Y53853363D01*
X82151407Y53616112D01*
X82278841Y53395388D01*
X82410247Y53230611D01*
X82436655Y53165926D01*
X82437300Y53153299D01*
X82437300Y46947578D01*
X82468090Y46753174D01*
X82487231Y46694268D01*
X82493300Y46655949D01*
X82493300Y46383578D01*
X82524090Y46189174D01*
X82584917Y46001970D01*
X82674276Y45826595D01*
X82789972Y45667354D01*
X82789974Y45667352D01*
X86266981Y42190345D01*
X86300466Y42129022D01*
X86303300Y42102664D01*
X86303300Y37566047D01*
X86283615Y37499008D01*
X86266981Y37478366D01*
X86211832Y37423218D01*
X86211828Y37423214D01*
X86091515Y37257614D01*
X85998581Y37075224D01*
X85935322Y36880535D01*
X85903300Y36678352D01*
X85903300Y36473649D01*
X85935322Y36271466D01*
X85998581Y36076777D01*
X86091515Y35894387D01*
X86211828Y35728787D01*
X86356586Y35584029D01*
X86490544Y35486705D01*
X86522190Y35463713D01*
X86613642Y35417116D01*
X86704576Y35370782D01*
X86704578Y35370782D01*
X86704581Y35370780D01*
X86801707Y35339222D01*
X86899265Y35307523D01*
X87000357Y35291512D01*
X87101448Y35275500D01*
X87101449Y35275500D01*
X88006151Y35275500D01*
X88006152Y35275500D01*
X88208334Y35307523D01*
X88403019Y35370780D01*
X88585410Y35463713D01*
X88737071Y35573900D01*
X88751013Y35584029D01*
X88751015Y35584032D01*
X88751019Y35584034D01*
X88895766Y35728781D01*
X88895768Y35728785D01*
X88895771Y35728787D01*
X88965355Y35824563D01*
X89016087Y35894390D01*
X89109020Y36076781D01*
X89172277Y36271466D01*
X89204300Y36473648D01*
X89204300Y36678352D01*
X89182445Y36816337D01*
X89172277Y36880535D01*
X89133738Y36999145D01*
X89109020Y37075219D01*
X89109018Y37075222D01*
X89109018Y37075224D01*
X89075303Y37141393D01*
X89016087Y37257610D01*
X89008356Y37268251D01*
X88895771Y37423214D01*
X88840619Y37478366D01*
X88807134Y37539689D01*
X88804300Y37566047D01*
X88804300Y42770423D01*
X88773509Y42964825D01*
X88771719Y42970336D01*
X88757307Y43014691D01*
X88712684Y43152026D01*
X88623324Y43327405D01*
X88507629Y43486645D01*
X86711898Y45282376D01*
X86678413Y45343699D01*
X86683397Y45413391D01*
X86725269Y45469324D01*
X86790733Y45493741D01*
X86837898Y45487988D01*
X86899382Y45468010D01*
X87101483Y45436000D01*
X87303800Y45436000D01*
X87303800Y46302988D01*
X87360807Y46270075D01*
X87487974Y46236000D01*
X87619626Y46236000D01*
X87746793Y46270075D01*
X87803800Y46302988D01*
X87803800Y45436000D01*
X88006117Y45436000D01*
X88208217Y45468010D01*
X88402831Y45531245D01*
X88585149Y45624141D01*
X88750694Y45744418D01*
X88750695Y45744418D01*
X88895382Y45889105D01*
X88895382Y45889106D01*
X89015659Y46054651D01*
X89108555Y46236971D01*
X89171790Y46431587D01*
X89180409Y46486000D01*
X87986812Y46486000D01*
X88019725Y46543007D01*
X88053800Y46670174D01*
X88053800Y46801826D01*
X88019725Y46928993D01*
X87986812Y46986000D01*
X89180409Y46986000D01*
X89171790Y47040414D01*
X89108555Y47235030D01*
X89015659Y47417350D01*
X88895382Y47582895D01*
X88895382Y47582896D01*
X88750695Y47727583D01*
X88585149Y47847860D01*
X88492170Y47895235D01*
X88441374Y47943210D01*
X88424579Y48011031D01*
X88447116Y48077165D01*
X88492170Y48116205D01*
X88492720Y48116485D01*
X88585410Y48163713D01*
X88633273Y48198487D01*
X88751013Y48284029D01*
X88751015Y48284032D01*
X88751019Y48284034D01*
X88895766Y48428781D01*
X88895768Y48428785D01*
X88895771Y48428787D01*
X88967463Y48527464D01*
X89016087Y48594390D01*
X89109020Y48776781D01*
X89172277Y48971466D01*
X89204300Y49173648D01*
X89204300Y49378352D01*
X89176718Y49552495D01*
X89172277Y49580535D01*
X89120328Y49740417D01*
X89109020Y49775219D01*
X89109018Y49775222D01*
X89109018Y49775224D01*
X89061310Y49868855D01*
X89016087Y49957610D01*
X89002550Y49976242D01*
X88895771Y50123214D01*
X88751013Y50267972D01*
X88585411Y50388287D01*
X88506004Y50428748D01*
X88455208Y50476723D01*
X88438300Y50539232D01*
X88438300Y52554561D01*
X88457985Y52621600D01*
X88510789Y52667355D01*
X88518968Y52670743D01*
X88630126Y52712202D01*
X88630126Y52712203D01*
X88630131Y52712204D01*
X88745346Y52798454D01*
X88831596Y52913669D01*
X88881891Y53048517D01*
X88888300Y53108127D01*
X88888299Y55603872D01*
X88881891Y55663483D01*
X88872287Y55689232D01*
X88831597Y55798329D01*
X88831593Y55798336D01*
X88745347Y55913545D01*
X88745344Y55913548D01*
X88630135Y55999794D01*
X88630128Y55999798D01*
X88495282Y56050092D01*
X88495283Y56050092D01*
X88435683Y56056499D01*
X88435681Y56056500D01*
X88435673Y56056500D01*
X88435664Y56056500D01*
X85939929Y56056500D01*
X85939923Y56056499D01*
X85880316Y56050092D01*
X85745471Y55999798D01*
X85745464Y55999794D01*
X85630255Y55913548D01*
X85630252Y55913545D01*
X85544006Y55798336D01*
X85544002Y55798329D01*
X85493708Y55663483D01*
X85487301Y55603884D01*
X85487301Y55603877D01*
X85487300Y55603865D01*
X85487300Y55080858D01*
X85467615Y55013819D01*
X85414811Y54968064D01*
X85345653Y54958120D01*
X85282097Y54987145D01*
X85247872Y55035555D01*
X85224193Y55095888D01*
X85096759Y55316612D01*
X84937850Y55515877D01*
X84751017Y55689232D01*
X84540434Y55832805D01*
X84540430Y55832807D01*
X84540427Y55832809D01*
X84540426Y55832810D01*
X84310806Y55943388D01*
X84310808Y55943388D01*
X84067266Y56018511D01*
X84067262Y56018512D01*
X84067258Y56018513D01*
X83946031Y56036786D01*
X83815240Y56056500D01*
X83815235Y56056500D01*
X83560365Y56056500D01*
X83560359Y56056500D01*
X83403409Y56032843D01*
X83308342Y56018513D01*
X83308339Y56018512D01*
X83308333Y56018511D01*
X83064792Y55943388D01*
X82835173Y55832810D01*
X82835172Y55832809D01*
X82624582Y55689232D01*
X82437752Y55515879D01*
X82437750Y55515877D01*
X82278841Y55316612D01*
X82151408Y55095891D01*
X82058292Y54858638D01*
X82056922Y54854196D01*
X82055477Y54854642D01*
X82024580Y54799407D01*
X81962917Y54766551D01*
X81893280Y54772248D01*
X81837778Y54814689D01*
X81819605Y54854483D01*
X81818678Y54854196D01*
X81817309Y54858631D01*
X81817308Y54858637D01*
X81724193Y55095888D01*
X81596759Y55316612D01*
X81437850Y55515877D01*
X81251017Y55689232D01*
X81040434Y55832805D01*
X81040430Y55832807D01*
X81040427Y55832809D01*
X81040426Y55832810D01*
X80810806Y55943388D01*
X80810808Y55943388D01*
X80567266Y56018511D01*
X80567262Y56018512D01*
X80567258Y56018513D01*
X80446031Y56036786D01*
X80315240Y56056500D01*
X80315235Y56056500D01*
X80060365Y56056500D01*
X80060359Y56056500D01*
X79903409Y56032843D01*
X79808342Y56018513D01*
X79808339Y56018512D01*
X79808333Y56018511D01*
X79564792Y55943388D01*
X79335173Y55832810D01*
X79335172Y55832809D01*
X79124582Y55689232D01*
X78937752Y55515879D01*
X78937750Y55515877D01*
X78778841Y55316612D01*
X78651408Y55095891D01*
X78558292Y54858638D01*
X78558290Y54858631D01*
X78501577Y54610155D01*
X78482532Y54356005D01*
X78482532Y54355996D01*
X78501577Y54101846D01*
X78557343Y53857518D01*
X78558292Y53853363D01*
X78651407Y53616112D01*
X78778841Y53395388D01*
X78910247Y53230611D01*
X78936655Y53165926D01*
X78937300Y53153299D01*
X78937300Y50476978D01*
X78917615Y50409939D01*
X78886185Y50376660D01*
X78736587Y50267972D01*
X78736582Y50267968D01*
X78591828Y50123214D01*
X78471515Y49957614D01*
X78378581Y49775224D01*
X78315322Y49580535D01*
X78283300Y49378352D01*
X78283300Y49173649D01*
X78315322Y48971466D01*
X78378581Y48776777D01*
X78471515Y48594387D01*
X78591828Y48428787D01*
X78736586Y48284029D01*
X78878143Y48181184D01*
X78902190Y48163713D01*
X78978198Y48124985D01*
X78994880Y48116485D01*
X79045676Y48068510D01*
X79062471Y48000689D01*
X79039934Y47934554D01*
X78994880Y47895515D01*
X78902186Y47848285D01*
X78736586Y47727972D01*
X78591828Y47583214D01*
X78471515Y47417614D01*
X78378581Y47235224D01*
X78315322Y47040535D01*
X78283300Y46838352D01*
X78283300Y46633649D01*
X78315322Y46431466D01*
X78378581Y46236777D01*
X78471515Y46054387D01*
X78591828Y45888787D01*
X78736586Y45744029D01*
X78891549Y45631444D01*
X78902190Y45623713D01*
X79018407Y45564497D01*
X79084576Y45530782D01*
X79084578Y45530782D01*
X79084581Y45530780D01*
X79173255Y45501968D01*
X79279265Y45467523D01*
X79364734Y45453986D01*
X79481448Y45435500D01*
X79909438Y45435500D01*
X79976477Y45415815D01*
X79997119Y45399181D01*
X80946981Y44449320D01*
X80980466Y44387997D01*
X80983300Y44361639D01*
X80983300Y37881522D01*
X80963615Y37814483D01*
X80910811Y37768728D01*
X80841653Y37758784D01*
X80803006Y37771037D01*
X80783026Y37781218D01*
X80588334Y37844478D01*
X80413795Y37872122D01*
X80386152Y37876500D01*
X79481448Y37876500D01*
X79457129Y37872649D01*
X79279265Y37844478D01*
X79084576Y37781219D01*
X78902186Y37688285D01*
X78736586Y37567972D01*
X78591828Y37423214D01*
X78471515Y37257614D01*
X78378581Y37075224D01*
X78315322Y36880535D01*
X78283300Y36678352D01*
X78283300Y36473649D01*
X78315322Y36271466D01*
X78378581Y36076777D01*
X78471515Y35894387D01*
X78591828Y35728787D01*
X78736586Y35584029D01*
X78870544Y35486705D01*
X78902190Y35463713D01*
X78993642Y35417116D01*
X79084576Y35370782D01*
X79084578Y35370782D01*
X79084581Y35370780D01*
X79181707Y35339222D01*
X79279265Y35307523D01*
X79380357Y35291512D01*
X79481448Y35275500D01*
X79481449Y35275500D01*
X80386151Y35275500D01*
X80386152Y35275500D01*
X80588334Y35307523D01*
X80783019Y35370780D01*
X80803002Y35380963D01*
X80871671Y35393860D01*
X80936412Y35367586D01*
X80976671Y35310480D01*
X80983300Y35270479D01*
X80983300Y34632362D01*
X80963615Y34565323D01*
X80946981Y34544681D01*
X77723119Y31320819D01*
X77661796Y31287334D01*
X77635438Y31284500D01*
X68087162Y31284500D01*
X68020123Y31304185D01*
X67974368Y31356989D01*
X67964424Y31426147D01*
X67993449Y31489703D01*
X67999481Y31496181D01*
X71235261Y34731961D01*
X71235264Y34731964D01*
X71333813Y34879453D01*
X71401695Y35043334D01*
X71436300Y35217308D01*
X71436300Y35394692D01*
X71436300Y44538691D01*
X71426974Y44585576D01*
X71423683Y44602120D01*
X71404195Y44700097D01*
X71401695Y44712666D01*
X71365534Y44799965D01*
X71363337Y44805270D01*
X71333816Y44876541D01*
X71333814Y44876545D01*
X71333813Y44876547D01*
X71269031Y44973500D01*
X71235264Y45024036D01*
X71235262Y45024039D01*
X71235261Y45024040D01*
X69907423Y46351877D01*
X69873938Y46413200D01*
X69872631Y46458956D01*
X69900300Y46633649D01*
X69900300Y46838352D01*
X69868277Y47040535D01*
X69829738Y47159145D01*
X69805020Y47235219D01*
X69805018Y47235222D01*
X69805018Y47235224D01*
X69769204Y47305512D01*
X69712087Y47417610D01*
X69690294Y47447606D01*
X69591771Y47583214D01*
X69447013Y47727972D01*
X69281414Y47848285D01*
X69239104Y47869843D01*
X69188717Y47895517D01*
X69137923Y47943489D01*
X69121128Y48011310D01*
X69143665Y48077445D01*
X69188717Y48116484D01*
X69281410Y48163713D01*
X69329273Y48198487D01*
X69447013Y48284029D01*
X69447015Y48284032D01*
X69447019Y48284034D01*
X69591766Y48428781D01*
X69591768Y48428785D01*
X69591771Y48428787D01*
X69663463Y48527464D01*
X69712087Y48594390D01*
X69805020Y48776781D01*
X69868277Y48971466D01*
X69900300Y49173648D01*
X69900300Y49378352D01*
X69872718Y49552495D01*
X69868277Y49580535D01*
X69816328Y49740417D01*
X69805020Y49775219D01*
X69805018Y49775222D01*
X69805017Y49775227D01*
X69767815Y49848240D01*
X69754300Y49904534D01*
X69754300Y53153299D01*
X69773985Y53220338D01*
X69781347Y53230604D01*
X69912759Y53395388D01*
X70040193Y53616112D01*
X70133308Y53853363D01*
X70133310Y53853376D01*
X70134678Y53857804D01*
X70136124Y53857358D01*
X70167013Y53912588D01*
X70228673Y53945448D01*
X70298310Y53939757D01*
X70353816Y53897320D01*
X70371992Y53857518D01*
X70372922Y53857804D01*
X70374290Y53853370D01*
X70374292Y53853363D01*
X70467407Y53616112D01*
X70594841Y53395388D01*
X70726247Y53230611D01*
X70752655Y53165926D01*
X70753300Y53153299D01*
X70753300Y46439578D01*
X70784090Y46245174D01*
X70844917Y46057970D01*
X70930958Y45889106D01*
X70934276Y45882595D01*
X71049972Y45723354D01*
X71049974Y45723352D01*
X74582981Y42190345D01*
X74616466Y42129022D01*
X74619300Y42102664D01*
X74619300Y37566047D01*
X74599615Y37499008D01*
X74582981Y37478366D01*
X74527832Y37423218D01*
X74527828Y37423214D01*
X74407515Y37257614D01*
X74314581Y37075224D01*
X74251322Y36880535D01*
X74219300Y36678352D01*
X74219300Y36473649D01*
X74251322Y36271466D01*
X74314581Y36076777D01*
X74407515Y35894387D01*
X74527828Y35728787D01*
X74672586Y35584029D01*
X74806544Y35486705D01*
X74838190Y35463713D01*
X74929642Y35417116D01*
X75020576Y35370782D01*
X75020578Y35370782D01*
X75020581Y35370780D01*
X75117707Y35339222D01*
X75215265Y35307523D01*
X75316357Y35291512D01*
X75417448Y35275500D01*
X75417449Y35275500D01*
X76322151Y35275500D01*
X76322152Y35275500D01*
X76524334Y35307523D01*
X76719019Y35370780D01*
X76901410Y35463713D01*
X77053071Y35573900D01*
X77067013Y35584029D01*
X77067015Y35584032D01*
X77067019Y35584034D01*
X77211766Y35728781D01*
X77211768Y35728785D01*
X77211771Y35728787D01*
X77281355Y35824563D01*
X77332087Y35894390D01*
X77425020Y36076781D01*
X77488277Y36271466D01*
X77520300Y36473648D01*
X77520300Y36678352D01*
X77498445Y36816337D01*
X77488277Y36880535D01*
X77449738Y36999145D01*
X77425020Y37075219D01*
X77425018Y37075222D01*
X77425018Y37075224D01*
X77391303Y37141393D01*
X77332087Y37257610D01*
X77324356Y37268251D01*
X77211771Y37423214D01*
X77156619Y37478366D01*
X77123134Y37539689D01*
X77120300Y37566047D01*
X77120300Y42770423D01*
X77089509Y42964825D01*
X77087719Y42970336D01*
X77073307Y43014691D01*
X77028684Y43152026D01*
X76939324Y43327405D01*
X76823629Y43486645D01*
X75027898Y45282376D01*
X74994413Y45343699D01*
X74999397Y45413391D01*
X75041269Y45469324D01*
X75106733Y45493741D01*
X75153898Y45487988D01*
X75215382Y45468010D01*
X75417483Y45436000D01*
X75619800Y45436000D01*
X75619800Y46302988D01*
X75676807Y46270075D01*
X75803974Y46236000D01*
X75935626Y46236000D01*
X76062793Y46270075D01*
X76119800Y46302988D01*
X76119800Y45436000D01*
X76322117Y45436000D01*
X76524217Y45468010D01*
X76718831Y45531245D01*
X76901149Y45624141D01*
X77066694Y45744418D01*
X77066695Y45744418D01*
X77211382Y45889105D01*
X77211382Y45889106D01*
X77331659Y46054651D01*
X77424555Y46236971D01*
X77487790Y46431587D01*
X77496409Y46486000D01*
X76302812Y46486000D01*
X76335725Y46543007D01*
X76369800Y46670174D01*
X76369800Y46801826D01*
X76335725Y46928993D01*
X76302812Y46986000D01*
X77496409Y46986000D01*
X77487790Y47040414D01*
X77424555Y47235030D01*
X77331659Y47417350D01*
X77211382Y47582895D01*
X77211382Y47582896D01*
X77066695Y47727583D01*
X76901149Y47847860D01*
X76808170Y47895235D01*
X76757374Y47943210D01*
X76740579Y48011031D01*
X76763116Y48077165D01*
X76808170Y48116205D01*
X76808720Y48116485D01*
X76901410Y48163713D01*
X76949273Y48198487D01*
X77067013Y48284029D01*
X77067015Y48284032D01*
X77067019Y48284034D01*
X77211766Y48428781D01*
X77211768Y48428785D01*
X77211771Y48428787D01*
X77283463Y48527464D01*
X77332087Y48594390D01*
X77425020Y48776781D01*
X77488277Y48971466D01*
X77520300Y49173648D01*
X77520300Y49378352D01*
X77492718Y49552495D01*
X77488277Y49580535D01*
X77436328Y49740417D01*
X77425020Y49775219D01*
X77425018Y49775222D01*
X77425018Y49775224D01*
X77377310Y49868855D01*
X77332087Y49957610D01*
X77318550Y49976242D01*
X77211771Y50123214D01*
X77067013Y50267972D01*
X76901411Y50388287D01*
X76822004Y50428748D01*
X76771208Y50476723D01*
X76754300Y50539232D01*
X76754300Y52554561D01*
X76773985Y52621600D01*
X76826789Y52667355D01*
X76834968Y52670743D01*
X76946126Y52712202D01*
X76946126Y52712203D01*
X76946131Y52712204D01*
X77061346Y52798454D01*
X77147596Y52913669D01*
X77197891Y53048517D01*
X77204300Y53108127D01*
X77204299Y55603872D01*
X77197891Y55663483D01*
X77188287Y55689232D01*
X77147597Y55798329D01*
X77147593Y55798336D01*
X77061347Y55913545D01*
X77061344Y55913548D01*
X76946135Y55999794D01*
X76946128Y55999798D01*
X76811282Y56050092D01*
X76811283Y56050092D01*
X76751683Y56056499D01*
X76751681Y56056500D01*
X76751673Y56056500D01*
X76751664Y56056500D01*
X74255929Y56056500D01*
X74255923Y56056499D01*
X74196316Y56050092D01*
X74061471Y55999798D01*
X74061464Y55999794D01*
X73946255Y55913548D01*
X73946252Y55913545D01*
X73860006Y55798336D01*
X73860002Y55798329D01*
X73809708Y55663483D01*
X73803301Y55603884D01*
X73803301Y55603877D01*
X73803300Y55603865D01*
X73803300Y55080858D01*
X73783615Y55013819D01*
X73730811Y54968064D01*
X73661653Y54958120D01*
X73598097Y54987145D01*
X73563872Y55035555D01*
X73540193Y55095888D01*
X73412759Y55316612D01*
X73253850Y55515877D01*
X73067017Y55689232D01*
X72856434Y55832805D01*
X72856430Y55832807D01*
X72856427Y55832809D01*
X72856426Y55832810D01*
X72626806Y55943388D01*
X72626808Y55943388D01*
X72383266Y56018511D01*
X72383262Y56018512D01*
X72383258Y56018513D01*
X72262031Y56036786D01*
X72131240Y56056500D01*
X72131235Y56056500D01*
X71876365Y56056500D01*
X71876359Y56056500D01*
X71719409Y56032843D01*
X71624342Y56018513D01*
X71624339Y56018512D01*
X71624333Y56018511D01*
X71380792Y55943388D01*
X71151173Y55832810D01*
X71151172Y55832809D01*
X70940582Y55689232D01*
X70753752Y55515879D01*
X70753750Y55515877D01*
X70594841Y55316612D01*
X70467408Y55095891D01*
X70374292Y54858638D01*
X70372922Y54854196D01*
X70371477Y54854642D01*
X70340580Y54799407D01*
X70278917Y54766551D01*
X70209280Y54772248D01*
X70153778Y54814689D01*
X70135605Y54854483D01*
X70134678Y54854196D01*
X70133309Y54858631D01*
X70133308Y54858637D01*
X70040193Y55095888D01*
X69912759Y55316612D01*
X69753850Y55515877D01*
X69567017Y55689232D01*
X69356434Y55832805D01*
X69356430Y55832807D01*
X69356427Y55832809D01*
X69356426Y55832810D01*
X69126806Y55943388D01*
X69126808Y55943388D01*
X68883266Y56018511D01*
X68883262Y56018512D01*
X68883258Y56018513D01*
X68762031Y56036786D01*
X68631240Y56056500D01*
X68631235Y56056500D01*
X68376365Y56056500D01*
X68376359Y56056500D01*
X68219409Y56032843D01*
X68124342Y56018513D01*
X68124339Y56018512D01*
X68124333Y56018511D01*
X67880792Y55943388D01*
X67651173Y55832810D01*
X67651172Y55832809D01*
X67440582Y55689232D01*
X67253752Y55515879D01*
X67253750Y55515877D01*
X67094841Y55316612D01*
X66967408Y55095891D01*
X66874292Y54858638D01*
X66874290Y54858631D01*
X66817577Y54610155D01*
X66798532Y54356005D01*
X66798532Y54355996D01*
X66817577Y54101846D01*
X66873343Y53857518D01*
X66874292Y53853363D01*
X66967407Y53616112D01*
X67094841Y53395388D01*
X67226247Y53230611D01*
X67252655Y53165926D01*
X67253300Y53153299D01*
X67253300Y50476978D01*
X67233615Y50409939D01*
X67202185Y50376660D01*
X67052587Y50267972D01*
X67052582Y50267968D01*
X66907828Y50123214D01*
X66787515Y49957614D01*
X66694581Y49775224D01*
X66631322Y49580535D01*
X66599300Y49378352D01*
X66599300Y49173649D01*
X66631322Y48971466D01*
X66694581Y48776777D01*
X66787515Y48594387D01*
X66907828Y48428787D01*
X67052586Y48284029D01*
X67194143Y48181184D01*
X67218190Y48163713D01*
X67294198Y48124985D01*
X67310880Y48116485D01*
X67361676Y48068510D01*
X67378471Y48000689D01*
X67355934Y47934554D01*
X67310880Y47895515D01*
X67218186Y47848285D01*
X67052586Y47727972D01*
X66907828Y47583214D01*
X66787515Y47417614D01*
X66694581Y47235224D01*
X66631322Y47040535D01*
X66599300Y46838352D01*
X66599300Y46633649D01*
X66631322Y46431466D01*
X66694581Y46236777D01*
X66787515Y46054387D01*
X66907828Y45888787D01*
X67052586Y45744029D01*
X67207549Y45631444D01*
X67218190Y45623713D01*
X67334407Y45564497D01*
X67400576Y45530782D01*
X67400578Y45530782D01*
X67400581Y45530780D01*
X67489255Y45501968D01*
X67595265Y45467523D01*
X67680734Y45453986D01*
X67797448Y45435500D01*
X68225438Y45435500D01*
X68292477Y45415815D01*
X68313119Y45399181D01*
X69598981Y44113319D01*
X69632466Y44051996D01*
X69635300Y44025638D01*
X69635300Y37674537D01*
X69615615Y37607498D01*
X69562811Y37561743D01*
X69493653Y37551799D01*
X69438415Y37574218D01*
X69281409Y37688288D01*
X69099023Y37781219D01*
X68904334Y37844478D01*
X68729795Y37872122D01*
X68702152Y37876500D01*
X67797448Y37876500D01*
X67773129Y37872649D01*
X67595265Y37844478D01*
X67400576Y37781219D01*
X67218186Y37688285D01*
X67052586Y37567972D01*
X66907828Y37423214D01*
X66787515Y37257614D01*
X66694581Y37075224D01*
X66631322Y36880535D01*
X66599300Y36678352D01*
X66599300Y36473649D01*
X66631322Y36271466D01*
X66694581Y36076777D01*
X66787515Y35894387D01*
X66907828Y35728787D01*
X67052586Y35584029D01*
X67186544Y35486705D01*
X67218190Y35463713D01*
X67309642Y35417116D01*
X67400576Y35370782D01*
X67400578Y35370782D01*
X67400581Y35370780D01*
X67497707Y35339222D01*
X67595265Y35307523D01*
X67696357Y35291512D01*
X67797448Y35275500D01*
X67797449Y35275500D01*
X68702151Y35275500D01*
X68702152Y35275500D01*
X68904334Y35307523D01*
X68945627Y35320941D01*
X69015468Y35322937D01*
X69075301Y35286858D01*
X69106130Y35224157D01*
X69098167Y35154743D01*
X69071628Y35115329D01*
X66477119Y32520819D01*
X66415796Y32487334D01*
X66389438Y32484500D01*
X56587162Y32484500D01*
X56520123Y32504185D01*
X56474368Y32556989D01*
X56464424Y32626147D01*
X56493449Y32689703D01*
X56499481Y32696181D01*
X57095242Y33291944D01*
X57261015Y33457718D01*
X57301243Y33484596D01*
X57319089Y33491987D01*
X57429610Y33565835D01*
X57466578Y33590536D01*
X59215263Y35339222D01*
X59215264Y35339223D01*
X59313813Y35486711D01*
X59381694Y35650592D01*
X59388955Y35687092D01*
X59416299Y35824563D01*
X59416300Y35824565D01*
X59416300Y44874695D01*
X59416299Y44874699D01*
X59381696Y45048659D01*
X59381693Y45048668D01*
X59313816Y45212541D01*
X59313809Y45212554D01*
X59215265Y45360034D01*
X59159484Y45415815D01*
X59089835Y45485464D01*
X58223422Y46351877D01*
X58189938Y46413199D01*
X58188631Y46458955D01*
X58216300Y46633649D01*
X58216300Y46838352D01*
X58184277Y47040535D01*
X58145738Y47159145D01*
X58121020Y47235219D01*
X58121018Y47235222D01*
X58121018Y47235224D01*
X58085204Y47305512D01*
X58028087Y47417610D01*
X58006294Y47447606D01*
X57907771Y47583214D01*
X57763013Y47727972D01*
X57597414Y47848285D01*
X57555104Y47869843D01*
X57504717Y47895517D01*
X57453923Y47943489D01*
X57437128Y48011310D01*
X57459665Y48077445D01*
X57504717Y48116484D01*
X57597410Y48163713D01*
X57645273Y48198487D01*
X57763013Y48284029D01*
X57763015Y48284032D01*
X57763019Y48284034D01*
X57907766Y48428781D01*
X57907768Y48428785D01*
X57907771Y48428787D01*
X57979463Y48527464D01*
X58028087Y48594390D01*
X58121020Y48776781D01*
X58184277Y48971466D01*
X58216300Y49173648D01*
X58216300Y49378352D01*
X58188718Y49552495D01*
X58184277Y49580535D01*
X58132328Y49740417D01*
X58121020Y49775219D01*
X58121018Y49775222D01*
X58121017Y49775227D01*
X58083815Y49848240D01*
X58070300Y49904534D01*
X58070300Y53153299D01*
X58089985Y53220338D01*
X58097347Y53230604D01*
X58228759Y53395388D01*
X58356193Y53616112D01*
X58449308Y53853363D01*
X58449310Y53853376D01*
X58450678Y53857804D01*
X58452124Y53857358D01*
X58483013Y53912588D01*
X58544673Y53945448D01*
X58614310Y53939757D01*
X58669816Y53897320D01*
X58687992Y53857518D01*
X58688922Y53857804D01*
X58690290Y53853370D01*
X58690292Y53853363D01*
X58783407Y53616112D01*
X58910841Y53395388D01*
X59042247Y53230611D01*
X59068655Y53165926D01*
X59069300Y53153299D01*
X59069300Y46439578D01*
X59100090Y46245174D01*
X59160917Y46057970D01*
X59246958Y45889106D01*
X59250276Y45882595D01*
X59365972Y45723354D01*
X59365974Y45723352D01*
X62898981Y42190345D01*
X62932466Y42129022D01*
X62935300Y42102664D01*
X62935300Y37566047D01*
X62915615Y37499008D01*
X62898981Y37478366D01*
X62843832Y37423218D01*
X62843828Y37423214D01*
X62723515Y37257614D01*
X62630581Y37075224D01*
X62567322Y36880535D01*
X62535300Y36678352D01*
X62535300Y36473649D01*
X62567322Y36271466D01*
X62630581Y36076777D01*
X62723515Y35894387D01*
X62843828Y35728787D01*
X62988586Y35584029D01*
X63122544Y35486705D01*
X63154190Y35463713D01*
X63245642Y35417116D01*
X63336576Y35370782D01*
X63336578Y35370782D01*
X63336581Y35370780D01*
X63433707Y35339222D01*
X63531265Y35307523D01*
X63632357Y35291512D01*
X63733448Y35275500D01*
X63733449Y35275500D01*
X64638151Y35275500D01*
X64638152Y35275500D01*
X64840334Y35307523D01*
X65035019Y35370780D01*
X65217410Y35463713D01*
X65369071Y35573900D01*
X65383013Y35584029D01*
X65383015Y35584032D01*
X65383019Y35584034D01*
X65527766Y35728781D01*
X65527768Y35728785D01*
X65527771Y35728787D01*
X65597355Y35824563D01*
X65648087Y35894390D01*
X65741020Y36076781D01*
X65804277Y36271466D01*
X65836300Y36473648D01*
X65836300Y36678352D01*
X65814445Y36816337D01*
X65804277Y36880535D01*
X65765738Y36999145D01*
X65741020Y37075219D01*
X65741018Y37075222D01*
X65741018Y37075224D01*
X65707303Y37141393D01*
X65648087Y37257610D01*
X65640356Y37268251D01*
X65527771Y37423214D01*
X65472619Y37478366D01*
X65439134Y37539689D01*
X65436300Y37566047D01*
X65436300Y42770423D01*
X65405509Y42964825D01*
X65403719Y42970336D01*
X65389307Y43014691D01*
X65344684Y43152026D01*
X65255324Y43327405D01*
X65139629Y43486645D01*
X63343898Y45282376D01*
X63310413Y45343699D01*
X63315397Y45413391D01*
X63357269Y45469324D01*
X63422733Y45493741D01*
X63469898Y45487988D01*
X63531382Y45468010D01*
X63733483Y45436000D01*
X63935800Y45436000D01*
X63935800Y46302988D01*
X63992807Y46270075D01*
X64119974Y46236000D01*
X64251626Y46236000D01*
X64378793Y46270075D01*
X64435800Y46302988D01*
X64435800Y45436000D01*
X64638117Y45436000D01*
X64840217Y45468010D01*
X65034831Y45531245D01*
X65217149Y45624141D01*
X65382694Y45744418D01*
X65382695Y45744418D01*
X65527382Y45889105D01*
X65527382Y45889106D01*
X65647659Y46054651D01*
X65740555Y46236971D01*
X65803790Y46431587D01*
X65812409Y46486000D01*
X64618812Y46486000D01*
X64651725Y46543007D01*
X64685800Y46670174D01*
X64685800Y46801826D01*
X64651725Y46928993D01*
X64618812Y46986000D01*
X65812409Y46986000D01*
X65803790Y47040414D01*
X65740555Y47235030D01*
X65647659Y47417350D01*
X65527382Y47582895D01*
X65527382Y47582896D01*
X65382695Y47727583D01*
X65217149Y47847860D01*
X65124170Y47895235D01*
X65073374Y47943210D01*
X65056579Y48011031D01*
X65079116Y48077165D01*
X65124170Y48116205D01*
X65124720Y48116485D01*
X65217410Y48163713D01*
X65265273Y48198487D01*
X65383013Y48284029D01*
X65383015Y48284032D01*
X65383019Y48284034D01*
X65527766Y48428781D01*
X65527768Y48428785D01*
X65527771Y48428787D01*
X65599463Y48527464D01*
X65648087Y48594390D01*
X65741020Y48776781D01*
X65804277Y48971466D01*
X65836300Y49173648D01*
X65836300Y49378352D01*
X65808718Y49552495D01*
X65804277Y49580535D01*
X65752328Y49740417D01*
X65741020Y49775219D01*
X65741018Y49775222D01*
X65741018Y49775224D01*
X65693310Y49868855D01*
X65648087Y49957610D01*
X65634550Y49976242D01*
X65527771Y50123214D01*
X65383013Y50267972D01*
X65217411Y50388287D01*
X65138004Y50428748D01*
X65087208Y50476723D01*
X65070300Y50539232D01*
X65070300Y52554561D01*
X65089985Y52621600D01*
X65142789Y52667355D01*
X65150968Y52670743D01*
X65262126Y52712202D01*
X65262126Y52712203D01*
X65262131Y52712204D01*
X65377346Y52798454D01*
X65463596Y52913669D01*
X65513891Y53048517D01*
X65520300Y53108127D01*
X65520299Y55603872D01*
X65513891Y55663483D01*
X65504287Y55689232D01*
X65463597Y55798329D01*
X65463593Y55798336D01*
X65377347Y55913545D01*
X65377344Y55913548D01*
X65262135Y55999794D01*
X65262128Y55999798D01*
X65127282Y56050092D01*
X65127283Y56050092D01*
X65067683Y56056499D01*
X65067681Y56056500D01*
X65067673Y56056500D01*
X65067664Y56056500D01*
X62571929Y56056500D01*
X62571923Y56056499D01*
X62512316Y56050092D01*
X62377471Y55999798D01*
X62377464Y55999794D01*
X62262255Y55913548D01*
X62262252Y55913545D01*
X62176006Y55798336D01*
X62176002Y55798329D01*
X62125708Y55663483D01*
X62119301Y55603884D01*
X62119301Y55603877D01*
X62119300Y55603865D01*
X62119300Y55080858D01*
X62099615Y55013819D01*
X62046811Y54968064D01*
X61977653Y54958120D01*
X61914097Y54987145D01*
X61879872Y55035555D01*
X61856193Y55095888D01*
X61728759Y55316612D01*
X61569850Y55515877D01*
X61383017Y55689232D01*
X61172434Y55832805D01*
X61172430Y55832807D01*
X61172427Y55832809D01*
X61172426Y55832810D01*
X60942806Y55943388D01*
X60942808Y55943388D01*
X60699266Y56018511D01*
X60699262Y56018512D01*
X60699258Y56018513D01*
X60578031Y56036786D01*
X60447240Y56056500D01*
X60447235Y56056500D01*
X60192365Y56056500D01*
X60192359Y56056500D01*
X60035409Y56032843D01*
X59940342Y56018513D01*
X59940339Y56018512D01*
X59940333Y56018511D01*
X59696792Y55943388D01*
X59467173Y55832810D01*
X59467172Y55832809D01*
X59256582Y55689232D01*
X59069752Y55515879D01*
X59069750Y55515877D01*
X58910841Y55316612D01*
X58783408Y55095891D01*
X58690292Y54858638D01*
X58688922Y54854196D01*
X58687477Y54854642D01*
X58656580Y54799407D01*
X58594917Y54766551D01*
X58525280Y54772248D01*
X58469778Y54814689D01*
X58451605Y54854483D01*
X58450678Y54854196D01*
X58449309Y54858631D01*
X58449308Y54858637D01*
X58356193Y55095888D01*
X58228759Y55316612D01*
X58069850Y55515877D01*
X57883017Y55689232D01*
X57672434Y55832805D01*
X57672430Y55832807D01*
X57672427Y55832809D01*
X57672426Y55832810D01*
X57442806Y55943388D01*
X57442808Y55943388D01*
X57199266Y56018511D01*
X57199262Y56018512D01*
X57199258Y56018513D01*
X57078031Y56036786D01*
X56947240Y56056500D01*
X56947235Y56056500D01*
X56692365Y56056500D01*
X56692359Y56056500D01*
X56535409Y56032843D01*
X56440342Y56018513D01*
X56440339Y56018512D01*
X56440333Y56018511D01*
X56196792Y55943388D01*
X55967173Y55832810D01*
X55967172Y55832809D01*
X55756582Y55689232D01*
X55569752Y55515879D01*
X55569750Y55515877D01*
X55410841Y55316612D01*
X55283408Y55095891D01*
X55190292Y54858638D01*
X55190290Y54858631D01*
X55133577Y54610155D01*
X55114532Y54356005D01*
X55114532Y54355996D01*
X55133577Y54101846D01*
X55189343Y53857518D01*
X55190292Y53853363D01*
X55283407Y53616112D01*
X55410841Y53395388D01*
X55542247Y53230611D01*
X55568655Y53165926D01*
X55569300Y53153299D01*
X55569300Y50476978D01*
X55549615Y50409939D01*
X55518185Y50376660D01*
X55368587Y50267972D01*
X55368582Y50267968D01*
X55223828Y50123214D01*
X55103515Y49957614D01*
X55010581Y49775224D01*
X54947322Y49580535D01*
X54915300Y49378352D01*
X54915300Y49173649D01*
X54947322Y48971466D01*
X55010581Y48776777D01*
X55103515Y48594387D01*
X55223828Y48428787D01*
X55368586Y48284029D01*
X55510143Y48181184D01*
X55534190Y48163713D01*
X55610198Y48124985D01*
X55626880Y48116485D01*
X55677676Y48068510D01*
X55694471Y48000689D01*
X55671934Y47934554D01*
X55626880Y47895515D01*
X55534186Y47848285D01*
X55368586Y47727972D01*
X55223828Y47583214D01*
X55103515Y47417614D01*
X55010581Y47235224D01*
X54947322Y47040535D01*
X54915300Y46838352D01*
X54915300Y46633649D01*
X54947322Y46431466D01*
X55010581Y46236777D01*
X55103515Y46054387D01*
X55223828Y45888787D01*
X55368586Y45744029D01*
X55523549Y45631444D01*
X55534190Y45623713D01*
X55650407Y45564497D01*
X55716576Y45530782D01*
X55716578Y45530782D01*
X55716581Y45530780D01*
X55805255Y45501968D01*
X55911265Y45467523D01*
X55996734Y45453986D01*
X56113448Y45435500D01*
X56541438Y45435500D01*
X56608477Y45415815D01*
X56629119Y45399181D01*
X57578981Y44449320D01*
X57612466Y44387997D01*
X57615300Y44361639D01*
X57615300Y37881522D01*
X57595615Y37814483D01*
X57542811Y37768728D01*
X57473653Y37758784D01*
X57435006Y37771037D01*
X57415026Y37781218D01*
X57220334Y37844478D01*
X57045795Y37872122D01*
X57018152Y37876500D01*
X56113448Y37876500D01*
X56089129Y37872649D01*
X55911265Y37844478D01*
X55716576Y37781219D01*
X55534186Y37688285D01*
X55368586Y37567972D01*
X55223828Y37423214D01*
X55103515Y37257614D01*
X55010581Y37075224D01*
X54947322Y36880535D01*
X54915300Y36678352D01*
X54915300Y36473649D01*
X54947322Y36271466D01*
X55010581Y36076777D01*
X55103515Y35894387D01*
X55223828Y35728787D01*
X55368586Y35584029D01*
X55502544Y35486705D01*
X55534190Y35463713D01*
X55625642Y35417116D01*
X55716576Y35370782D01*
X55716578Y35370782D01*
X55716581Y35370780D01*
X55813707Y35339222D01*
X55911265Y35307523D01*
X56012357Y35291512D01*
X56113448Y35275500D01*
X56265075Y35275500D01*
X56332114Y35255815D01*
X56377869Y35203011D01*
X56387813Y35133853D01*
X56358788Y35070297D01*
X56333966Y35048398D01*
X56285461Y35015988D01*
X56285460Y35015987D01*
X56245762Y34989463D01*
X56245761Y34989462D01*
X54977119Y33720819D01*
X54915796Y33687334D01*
X54889438Y33684500D01*
X46663162Y33684500D01*
X46596123Y33704185D01*
X46550368Y33756989D01*
X46540424Y33826147D01*
X46569449Y33889703D01*
X46575481Y33896181D01*
X47867261Y35187962D01*
X47867262Y35187963D01*
X47867261Y35187963D01*
X47867264Y35187965D01*
X47883607Y35212424D01*
X47965813Y35335453D01*
X47999639Y35417116D01*
X48033695Y35499334D01*
X48068300Y35673309D01*
X48068300Y35850692D01*
X48068300Y44538691D01*
X48058974Y44585576D01*
X48055683Y44602120D01*
X48036195Y44700097D01*
X48033695Y44712666D01*
X47997534Y44799965D01*
X47995337Y44805270D01*
X47965816Y44876541D01*
X47965814Y44876545D01*
X47965813Y44876547D01*
X47901031Y44973500D01*
X47867264Y45024036D01*
X47867262Y45024039D01*
X47867261Y45024040D01*
X46539423Y46351877D01*
X46505938Y46413200D01*
X46504631Y46458956D01*
X46532300Y46633649D01*
X46532300Y46838352D01*
X46500277Y47040535D01*
X46461738Y47159145D01*
X46437020Y47235219D01*
X46437018Y47235222D01*
X46437018Y47235224D01*
X46401204Y47305512D01*
X46344087Y47417610D01*
X46322294Y47447606D01*
X46223771Y47583214D01*
X46079013Y47727972D01*
X45913414Y47848285D01*
X45871104Y47869843D01*
X45820717Y47895517D01*
X45769923Y47943489D01*
X45753128Y48011310D01*
X45775665Y48077445D01*
X45820717Y48116484D01*
X45913410Y48163713D01*
X45961273Y48198487D01*
X46079013Y48284029D01*
X46079015Y48284032D01*
X46079019Y48284034D01*
X46223766Y48428781D01*
X46223768Y48428785D01*
X46223771Y48428787D01*
X46295463Y48527464D01*
X46344087Y48594390D01*
X46437020Y48776781D01*
X46500277Y48971466D01*
X46532300Y49173648D01*
X46532300Y49378352D01*
X46504718Y49552495D01*
X46500277Y49580535D01*
X46448328Y49740417D01*
X46437020Y49775219D01*
X46437018Y49775222D01*
X46437017Y49775227D01*
X46399815Y49848240D01*
X46386300Y49904534D01*
X46386300Y53153299D01*
X46405985Y53220338D01*
X46413347Y53230604D01*
X46544759Y53395388D01*
X46672193Y53616112D01*
X46765308Y53853363D01*
X46765310Y53853376D01*
X46766678Y53857804D01*
X46768124Y53857358D01*
X46799013Y53912588D01*
X46860673Y53945448D01*
X46930310Y53939757D01*
X46985816Y53897320D01*
X47003992Y53857518D01*
X47004922Y53857804D01*
X47006290Y53853370D01*
X47006292Y53853363D01*
X47099407Y53616112D01*
X47226841Y53395388D01*
X47358247Y53230611D01*
X47384655Y53165926D01*
X47385300Y53153299D01*
X47385300Y46693578D01*
X47416090Y46499174D01*
X47476917Y46311970D01*
X47539829Y46188500D01*
X47566276Y46136595D01*
X47681972Y45977354D01*
X47681974Y45977352D01*
X51214981Y42444345D01*
X51248466Y42383022D01*
X51251300Y42356664D01*
X51251300Y37566047D01*
X51231615Y37499008D01*
X51214981Y37478366D01*
X51159832Y37423218D01*
X51159828Y37423214D01*
X51039515Y37257614D01*
X50946581Y37075224D01*
X50883322Y36880535D01*
X50851300Y36678352D01*
X50851300Y36473649D01*
X50883322Y36271466D01*
X50946581Y36076777D01*
X51039515Y35894387D01*
X51159828Y35728787D01*
X51304586Y35584029D01*
X51438544Y35486705D01*
X51470190Y35463713D01*
X51561642Y35417116D01*
X51652576Y35370782D01*
X51652578Y35370782D01*
X51652581Y35370780D01*
X51749707Y35339222D01*
X51847265Y35307523D01*
X51948357Y35291512D01*
X52049448Y35275500D01*
X52049449Y35275500D01*
X52954151Y35275500D01*
X52954152Y35275500D01*
X53156334Y35307523D01*
X53351019Y35370780D01*
X53533410Y35463713D01*
X53685071Y35573900D01*
X53699013Y35584029D01*
X53699015Y35584032D01*
X53699019Y35584034D01*
X53843766Y35728781D01*
X53843768Y35728785D01*
X53843771Y35728787D01*
X53913355Y35824563D01*
X53964087Y35894390D01*
X54057020Y36076781D01*
X54120277Y36271466D01*
X54152300Y36473648D01*
X54152300Y36678352D01*
X54130445Y36816337D01*
X54120277Y36880535D01*
X54081738Y36999145D01*
X54057020Y37075219D01*
X54057018Y37075222D01*
X54057018Y37075224D01*
X54023303Y37141393D01*
X53964087Y37257610D01*
X53956356Y37268251D01*
X53843771Y37423214D01*
X53788619Y37478366D01*
X53755134Y37539689D01*
X53752300Y37566047D01*
X53752300Y43024423D01*
X53732088Y43152029D01*
X53721509Y43218826D01*
X53697437Y43292913D01*
X53660684Y43406026D01*
X53660682Y43406029D01*
X53660682Y43406031D01*
X53571323Y43581406D01*
X53455629Y43740645D01*
X51971955Y45224319D01*
X51938470Y45285642D01*
X51943454Y45355334D01*
X51985326Y45411267D01*
X52050790Y45435684D01*
X52059636Y45436000D01*
X52251800Y45436000D01*
X52251800Y46302988D01*
X52308807Y46270075D01*
X52435974Y46236000D01*
X52567626Y46236000D01*
X52694793Y46270075D01*
X52751800Y46302988D01*
X52751800Y45436000D01*
X52954117Y45436000D01*
X53156217Y45468010D01*
X53350831Y45531245D01*
X53533149Y45624141D01*
X53698694Y45744418D01*
X53698695Y45744418D01*
X53843382Y45889105D01*
X53843382Y45889106D01*
X53963659Y46054651D01*
X54056555Y46236971D01*
X54119790Y46431587D01*
X54128409Y46486000D01*
X52934812Y46486000D01*
X52967725Y46543007D01*
X53001800Y46670174D01*
X53001800Y46801826D01*
X52967725Y46928993D01*
X52934812Y46986000D01*
X54128409Y46986000D01*
X54119790Y47040414D01*
X54056555Y47235030D01*
X53963659Y47417350D01*
X53843382Y47582895D01*
X53843382Y47582896D01*
X53698695Y47727583D01*
X53533149Y47847860D01*
X53440170Y47895235D01*
X53389374Y47943210D01*
X53372579Y48011031D01*
X53395116Y48077165D01*
X53440170Y48116205D01*
X53440720Y48116485D01*
X53533410Y48163713D01*
X53581273Y48198487D01*
X53699013Y48284029D01*
X53699015Y48284032D01*
X53699019Y48284034D01*
X53843766Y48428781D01*
X53843768Y48428785D01*
X53843771Y48428787D01*
X53915463Y48527464D01*
X53964087Y48594390D01*
X54057020Y48776781D01*
X54120277Y48971466D01*
X54152300Y49173648D01*
X54152300Y49378352D01*
X54124718Y49552495D01*
X54120277Y49580535D01*
X54068328Y49740417D01*
X54057020Y49775219D01*
X54057018Y49775222D01*
X54057018Y49775224D01*
X54009310Y49868855D01*
X53964087Y49957610D01*
X53950550Y49976242D01*
X53843771Y50123214D01*
X53699013Y50267972D01*
X53533411Y50388287D01*
X53454004Y50428748D01*
X53403208Y50476723D01*
X53386300Y50539232D01*
X53386300Y52554561D01*
X53405985Y52621600D01*
X53458789Y52667355D01*
X53466968Y52670743D01*
X53578126Y52712202D01*
X53578126Y52712203D01*
X53578131Y52712204D01*
X53693346Y52798454D01*
X53779596Y52913669D01*
X53829891Y53048517D01*
X53836300Y53108127D01*
X53836299Y55603872D01*
X53829891Y55663483D01*
X53820287Y55689232D01*
X53779597Y55798329D01*
X53779593Y55798336D01*
X53693347Y55913545D01*
X53693344Y55913548D01*
X53578135Y55999794D01*
X53578128Y55999798D01*
X53443282Y56050092D01*
X53443283Y56050092D01*
X53383683Y56056499D01*
X53383681Y56056500D01*
X53383673Y56056500D01*
X53383664Y56056500D01*
X50887929Y56056500D01*
X50887923Y56056499D01*
X50828316Y56050092D01*
X50693471Y55999798D01*
X50693464Y55999794D01*
X50578255Y55913548D01*
X50578252Y55913545D01*
X50492006Y55798336D01*
X50492002Y55798329D01*
X50441708Y55663483D01*
X50435301Y55603884D01*
X50435301Y55603877D01*
X50435300Y55603865D01*
X50435300Y55080858D01*
X50415615Y55013819D01*
X50362811Y54968064D01*
X50293653Y54958120D01*
X50230097Y54987145D01*
X50195872Y55035555D01*
X50172193Y55095888D01*
X50044759Y55316612D01*
X49885850Y55515877D01*
X49699017Y55689232D01*
X49488434Y55832805D01*
X49488430Y55832807D01*
X49488427Y55832809D01*
X49488426Y55832810D01*
X49258806Y55943388D01*
X49258808Y55943388D01*
X49015266Y56018511D01*
X49015262Y56018512D01*
X49015258Y56018513D01*
X48894031Y56036786D01*
X48763240Y56056500D01*
X48763235Y56056500D01*
X48508365Y56056500D01*
X48508359Y56056500D01*
X48351409Y56032843D01*
X48256342Y56018513D01*
X48256339Y56018512D01*
X48256333Y56018511D01*
X48012792Y55943388D01*
X47783173Y55832810D01*
X47783172Y55832809D01*
X47572582Y55689232D01*
X47385752Y55515879D01*
X47385750Y55515877D01*
X47226841Y55316612D01*
X47099408Y55095891D01*
X47006292Y54858638D01*
X47004922Y54854196D01*
X47003477Y54854642D01*
X46972580Y54799407D01*
X46910917Y54766551D01*
X46841280Y54772248D01*
X46785778Y54814689D01*
X46767605Y54854483D01*
X46766678Y54854196D01*
X46765309Y54858631D01*
X46765308Y54858637D01*
X46672193Y55095888D01*
X46544759Y55316612D01*
X46385850Y55515877D01*
X46199017Y55689232D01*
X45988434Y55832805D01*
X45988430Y55832807D01*
X45988427Y55832809D01*
X45988426Y55832810D01*
X45758806Y55943388D01*
X45758808Y55943388D01*
X45515266Y56018511D01*
X45515262Y56018512D01*
X45515258Y56018513D01*
X45394031Y56036786D01*
X45263240Y56056500D01*
X45263235Y56056500D01*
X45008365Y56056500D01*
X45008359Y56056500D01*
X44851409Y56032843D01*
X44756342Y56018513D01*
X44756339Y56018512D01*
X44756333Y56018511D01*
X44512792Y55943388D01*
X44283173Y55832810D01*
X44283172Y55832809D01*
X44072582Y55689232D01*
X43885752Y55515879D01*
X43885750Y55515877D01*
X43726841Y55316612D01*
X43599408Y55095891D01*
X43506292Y54858638D01*
X43506290Y54858631D01*
X43449577Y54610155D01*
X43430532Y54356005D01*
X43430532Y54355996D01*
X43449577Y54101846D01*
X43505343Y53857518D01*
X43506292Y53853363D01*
X43599407Y53616112D01*
X43726841Y53395388D01*
X43858247Y53230611D01*
X43884655Y53165926D01*
X43885300Y53153299D01*
X43885300Y50476978D01*
X43865615Y50409939D01*
X43834185Y50376660D01*
X43684587Y50267972D01*
X43684582Y50267968D01*
X43539828Y50123214D01*
X43419515Y49957614D01*
X43326581Y49775224D01*
X43263322Y49580535D01*
X43231300Y49378352D01*
X43231300Y49173649D01*
X43263322Y48971466D01*
X43326581Y48776777D01*
X43419515Y48594387D01*
X43539828Y48428787D01*
X43684586Y48284029D01*
X43826143Y48181184D01*
X43850190Y48163713D01*
X43926198Y48124985D01*
X43942880Y48116485D01*
X43993676Y48068510D01*
X44010471Y48000689D01*
X43987934Y47934554D01*
X43942880Y47895515D01*
X43850186Y47848285D01*
X43684586Y47727972D01*
X43539828Y47583214D01*
X43419515Y47417614D01*
X43326581Y47235224D01*
X43263322Y47040535D01*
X43231300Y46838352D01*
X43231300Y46633649D01*
X43263322Y46431466D01*
X43326581Y46236777D01*
X43419515Y46054387D01*
X43539828Y45888787D01*
X43684586Y45744029D01*
X43839549Y45631444D01*
X43850190Y45623713D01*
X43966407Y45564497D01*
X44032576Y45530782D01*
X44032578Y45530782D01*
X44032581Y45530780D01*
X44121255Y45501968D01*
X44227265Y45467523D01*
X44312734Y45453986D01*
X44429448Y45435500D01*
X44857438Y45435500D01*
X44924477Y45415815D01*
X44945119Y45399181D01*
X46230981Y44113319D01*
X46264466Y44051996D01*
X46267300Y44025638D01*
X46267300Y37674537D01*
X46247615Y37607498D01*
X46194811Y37561743D01*
X46125653Y37551799D01*
X46070415Y37574218D01*
X45913409Y37688288D01*
X45731023Y37781219D01*
X45536334Y37844478D01*
X45361795Y37872122D01*
X45334152Y37876500D01*
X44429448Y37876500D01*
X44405129Y37872649D01*
X44227265Y37844478D01*
X44032576Y37781219D01*
X43850186Y37688285D01*
X43684586Y37567972D01*
X43539828Y37423214D01*
X43419515Y37257614D01*
X43326581Y37075224D01*
X43263322Y36880535D01*
X43231300Y36678352D01*
X43231300Y36473649D01*
X43263322Y36271466D01*
X43326581Y36076777D01*
X43419515Y35894387D01*
X43539828Y35728787D01*
X43684586Y35584029D01*
X43818544Y35486705D01*
X43850190Y35463713D01*
X43941642Y35417116D01*
X44032576Y35370782D01*
X44032578Y35370782D01*
X44032581Y35370780D01*
X44129707Y35339222D01*
X44227265Y35307523D01*
X44328357Y35291512D01*
X44429448Y35275500D01*
X44429449Y35275500D01*
X45108438Y35275500D01*
X45175477Y35255815D01*
X45221232Y35203011D01*
X45231176Y35133853D01*
X45202151Y35070297D01*
X45196119Y35063819D01*
X45053119Y34920819D01*
X44991796Y34887334D01*
X44965438Y34884500D01*
X33166161Y34884500D01*
X33099122Y34904185D01*
X33078480Y34920819D01*
X32935480Y35063819D01*
X32901995Y35125142D01*
X32906979Y35194834D01*
X32948851Y35250767D01*
X33014315Y35275184D01*
X33023161Y35275500D01*
X33650151Y35275500D01*
X33650152Y35275500D01*
X33852334Y35307523D01*
X34047019Y35370780D01*
X34229410Y35463713D01*
X34381071Y35573900D01*
X34395013Y35584029D01*
X34395015Y35584032D01*
X34395019Y35584034D01*
X34539766Y35728781D01*
X34539768Y35728785D01*
X34539771Y35728787D01*
X34609355Y35824563D01*
X34660087Y35894390D01*
X34753020Y36076781D01*
X34816277Y36271466D01*
X34848300Y36473648D01*
X34848300Y36678352D01*
X34826445Y36816337D01*
X34816277Y36880535D01*
X34777738Y36999145D01*
X34753020Y37075219D01*
X34753018Y37075222D01*
X34753018Y37075224D01*
X34719303Y37141393D01*
X34660087Y37257610D01*
X34652356Y37268251D01*
X34539771Y37423214D01*
X34395013Y37567972D01*
X34229413Y37688285D01*
X34229412Y37688286D01*
X34229410Y37688287D01*
X34156478Y37725448D01*
X34047023Y37781219D01*
X33852334Y37844478D01*
X33677795Y37872122D01*
X33650152Y37876500D01*
X32745448Y37876500D01*
X32721129Y37872649D01*
X32543265Y37844478D01*
X32348576Y37781219D01*
X32166186Y37688285D01*
X32000586Y37567972D01*
X31855828Y37423214D01*
X31735515Y37257614D01*
X31642581Y37075224D01*
X31579323Y36880536D01*
X31554421Y36723315D01*
X31524491Y36660181D01*
X31465180Y36623250D01*
X31395317Y36624248D01*
X31344267Y36655033D01*
X28800619Y39198681D01*
X28767134Y39260004D01*
X28764300Y39286362D01*
X28764300Y44868689D01*
X28763105Y44874695D01*
X28763105Y44874699D01*
X28729696Y45042659D01*
X28729693Y45042668D01*
X28727211Y45048659D01*
X28711178Y45087368D01*
X28661816Y45206542D01*
X28661809Y45206554D01*
X28563265Y45354034D01*
X28501484Y45415815D01*
X28437835Y45479464D01*
X27617044Y46300255D01*
X26784781Y47132519D01*
X26751296Y47193842D01*
X26749244Y47206300D01*
X26740641Y47282657D01*
X26682922Y47447606D01*
X26589947Y47595576D01*
X26466376Y47719147D01*
X26318406Y47812122D01*
X26318405Y47812123D01*
X26318404Y47812123D01*
X26153458Y47869841D01*
X26153448Y47869843D01*
X26023358Y47884500D01*
X26023352Y47884500D01*
X25609300Y47884500D01*
X25542261Y47904185D01*
X25496506Y47956989D01*
X25485300Y48008500D01*
X25485300Y48811639D01*
X25504985Y48878678D01*
X25557789Y48924433D01*
X25626947Y48934377D01*
X25690503Y48905352D01*
X25696981Y48899320D01*
X28180336Y46415965D01*
X28244424Y46351877D01*
X28305766Y46290535D01*
X28426901Y46209595D01*
X28453253Y46191987D01*
X28586983Y46136595D01*
X28586986Y46136594D01*
X28586987Y46136593D01*
X28617129Y46124108D01*
X28617134Y46124106D01*
X28617138Y46124106D01*
X28617139Y46124105D01*
X28791105Y46089500D01*
X28791108Y46089500D01*
X28791109Y46089500D01*
X31646823Y46089500D01*
X31713862Y46069815D01*
X31747139Y46038388D01*
X31855598Y45889106D01*
X31855834Y45888781D01*
X32000586Y45744029D01*
X32155549Y45631444D01*
X32166190Y45623713D01*
X32282407Y45564497D01*
X32348576Y45530782D01*
X32348578Y45530782D01*
X32348581Y45530780D01*
X32437255Y45501968D01*
X32543265Y45467523D01*
X32628734Y45453986D01*
X32745448Y45435500D01*
X32745449Y45435500D01*
X33650151Y45435500D01*
X33650152Y45435500D01*
X33852334Y45467523D01*
X34047019Y45530780D01*
X34229410Y45623713D01*
X34322390Y45691268D01*
X34395013Y45744029D01*
X34395015Y45744032D01*
X34395019Y45744034D01*
X34539766Y45888781D01*
X34539768Y45888785D01*
X34539771Y45888787D01*
X34604117Y45977353D01*
X34660087Y46054390D01*
X34753020Y46236781D01*
X34816277Y46431466D01*
X34848300Y46633648D01*
X34848300Y46838352D01*
X34826269Y46977449D01*
X34816277Y47040535D01*
X34777738Y47159145D01*
X34753020Y47235219D01*
X34753018Y47235222D01*
X34753018Y47235224D01*
X34717204Y47305512D01*
X34660087Y47417610D01*
X34638294Y47447606D01*
X34539771Y47583214D01*
X34395013Y47727972D01*
X34229414Y47848285D01*
X34187104Y47869843D01*
X34136717Y47895517D01*
X34085923Y47943489D01*
X34069128Y48011310D01*
X34091665Y48077445D01*
X34136717Y48116484D01*
X34229410Y48163713D01*
X34277273Y48198487D01*
X34395013Y48284029D01*
X34395015Y48284032D01*
X34395019Y48284034D01*
X34539766Y48428781D01*
X34539768Y48428785D01*
X34539771Y48428787D01*
X34611463Y48527464D01*
X34660087Y48594390D01*
X34753020Y48776781D01*
X34816277Y48971466D01*
X34848300Y49173648D01*
X34848300Y49378352D01*
X34820718Y49552495D01*
X34816277Y49580535D01*
X34764328Y49740417D01*
X34753020Y49775219D01*
X34753018Y49775222D01*
X34753017Y49775227D01*
X34715815Y49848240D01*
X34702300Y49904534D01*
X34702300Y53153299D01*
X34721985Y53220338D01*
X34729347Y53230604D01*
X34860759Y53395388D01*
X34988193Y53616112D01*
X35081308Y53853363D01*
X35081310Y53853376D01*
X35082678Y53857804D01*
X35084124Y53857358D01*
X35115013Y53912588D01*
X35176673Y53945448D01*
X35246310Y53939757D01*
X35301816Y53897320D01*
X35319992Y53857518D01*
X35320922Y53857804D01*
X35322290Y53853370D01*
X35322292Y53853363D01*
X35415407Y53616112D01*
X35542841Y53395388D01*
X35674247Y53230611D01*
X35700655Y53165926D01*
X35701300Y53153299D01*
X35701300Y40597578D01*
X35732090Y40403174D01*
X35792917Y40215970D01*
X35867041Y40070496D01*
X35882276Y40040595D01*
X35997972Y39881354D01*
X35997974Y39881352D01*
X39130981Y36748345D01*
X39164466Y36687022D01*
X39167300Y36660664D01*
X39167300Y36473649D01*
X39199322Y36271466D01*
X39262581Y36076777D01*
X39355515Y35894387D01*
X39475828Y35728787D01*
X39620586Y35584029D01*
X39754544Y35486705D01*
X39786190Y35463713D01*
X39877642Y35417116D01*
X39968576Y35370782D01*
X39968578Y35370782D01*
X39968581Y35370780D01*
X40065707Y35339222D01*
X40163265Y35307523D01*
X40264357Y35291512D01*
X40365448Y35275500D01*
X40365449Y35275500D01*
X41270151Y35275500D01*
X41270152Y35275500D01*
X41472334Y35307523D01*
X41667019Y35370780D01*
X41849410Y35463713D01*
X42001071Y35573900D01*
X42015013Y35584029D01*
X42015015Y35584032D01*
X42015019Y35584034D01*
X42159766Y35728781D01*
X42159768Y35728785D01*
X42159771Y35728787D01*
X42229355Y35824563D01*
X42280087Y35894390D01*
X42373020Y36076781D01*
X42436277Y36271466D01*
X42468300Y36473648D01*
X42468300Y36678352D01*
X42446445Y36816337D01*
X42436277Y36880535D01*
X42397738Y36999145D01*
X42373020Y37075219D01*
X42373018Y37075222D01*
X42373018Y37075224D01*
X42339303Y37141393D01*
X42280087Y37257610D01*
X42272356Y37268251D01*
X42159771Y37423214D01*
X42015013Y37567972D01*
X41849413Y37688285D01*
X41849412Y37688286D01*
X41849410Y37688287D01*
X41776478Y37725448D01*
X41667019Y37781221D01*
X41647979Y37787407D01*
X41598618Y37817656D01*
X38238619Y41177655D01*
X38205134Y41238978D01*
X38202300Y41265336D01*
X38202300Y53153299D01*
X38221985Y53220338D01*
X38229347Y53230604D01*
X38360759Y53395388D01*
X38488193Y53616112D01*
X38511874Y53676451D01*
X38554687Y53731660D01*
X38620556Y53754961D01*
X38688567Y53738952D01*
X38737126Y53688714D01*
X38751300Y53631145D01*
X38751300Y53108130D01*
X38751301Y53108124D01*
X38757708Y53048517D01*
X38808002Y52913672D01*
X38808006Y52913665D01*
X38894252Y52798456D01*
X38894255Y52798453D01*
X39009464Y52712207D01*
X39009473Y52712202D01*
X39120632Y52670743D01*
X39176566Y52628873D01*
X39200984Y52563408D01*
X39201300Y52554561D01*
X39201300Y49602774D01*
X39199773Y49583376D01*
X39167300Y49378352D01*
X39167300Y49173649D01*
X39199322Y48971466D01*
X39262581Y48776777D01*
X39355515Y48594387D01*
X39475828Y48428787D01*
X39620586Y48284029D01*
X39762143Y48181184D01*
X39786190Y48163713D01*
X39858224Y48127010D01*
X39879429Y48116205D01*
X39930225Y48068230D01*
X39947020Y48000409D01*
X39924482Y47934274D01*
X39879429Y47895235D01*
X39786450Y47847860D01*
X39620905Y47727583D01*
X39620904Y47727583D01*
X39476217Y47582896D01*
X39476217Y47582895D01*
X39355940Y47417350D01*
X39263044Y47235030D01*
X39199809Y47040414D01*
X39191191Y46986000D01*
X40384788Y46986000D01*
X40351875Y46928993D01*
X40317800Y46801826D01*
X40317800Y46670174D01*
X40351875Y46543007D01*
X40384788Y46486000D01*
X39191191Y46486000D01*
X39199809Y46431587D01*
X39263044Y46236971D01*
X39355940Y46054651D01*
X39476217Y45889106D01*
X39476217Y45889105D01*
X39620904Y45744418D01*
X39786450Y45624141D01*
X39968768Y45531245D01*
X40163382Y45468010D01*
X40365483Y45436000D01*
X40567800Y45436000D01*
X40567800Y46302988D01*
X40624807Y46270075D01*
X40751974Y46236000D01*
X40883626Y46236000D01*
X41010793Y46270075D01*
X41067800Y46302988D01*
X41067800Y45436000D01*
X41270117Y45436000D01*
X41472217Y45468010D01*
X41666831Y45531245D01*
X41849149Y45624141D01*
X42014694Y45744418D01*
X42014695Y45744418D01*
X42159382Y45889105D01*
X42159382Y45889106D01*
X42279659Y46054651D01*
X42372555Y46236971D01*
X42435790Y46431587D01*
X42444409Y46486000D01*
X41250812Y46486000D01*
X41283725Y46543007D01*
X41317800Y46670174D01*
X41317800Y46801826D01*
X41283725Y46928993D01*
X41250812Y46986000D01*
X42444409Y46986000D01*
X42435790Y47040414D01*
X42372555Y47235030D01*
X42279659Y47417350D01*
X42159382Y47582895D01*
X42159382Y47582896D01*
X42014695Y47727583D01*
X41849149Y47847860D01*
X41756170Y47895235D01*
X41705374Y47943210D01*
X41688579Y48011031D01*
X41711116Y48077165D01*
X41756170Y48116205D01*
X41756720Y48116485D01*
X41849410Y48163713D01*
X41897273Y48198487D01*
X42015013Y48284029D01*
X42015015Y48284032D01*
X42015019Y48284034D01*
X42159766Y48428781D01*
X42159768Y48428785D01*
X42159771Y48428787D01*
X42231463Y48527464D01*
X42280087Y48594390D01*
X42373020Y48776781D01*
X42436277Y48971466D01*
X42468300Y49173648D01*
X42468300Y49378352D01*
X42440718Y49552495D01*
X42436277Y49580535D01*
X42384328Y49740417D01*
X42373020Y49775219D01*
X42373018Y49775222D01*
X42373018Y49775224D01*
X42325310Y49868855D01*
X42280087Y49957610D01*
X42266550Y49976242D01*
X42159771Y50123214D01*
X42015013Y50267972D01*
X41849411Y50388287D01*
X41770004Y50428748D01*
X41719208Y50476723D01*
X41702300Y50539232D01*
X41702300Y52554561D01*
X41721985Y52621600D01*
X41774789Y52667355D01*
X41782968Y52670743D01*
X41894126Y52712202D01*
X41894126Y52712203D01*
X41894131Y52712204D01*
X42009346Y52798454D01*
X42095596Y52913669D01*
X42145891Y53048517D01*
X42152300Y53108127D01*
X42152299Y55603872D01*
X42145891Y55663483D01*
X42136287Y55689232D01*
X42095597Y55798329D01*
X42095593Y55798336D01*
X42009347Y55913545D01*
X42009344Y55913548D01*
X41894135Y55999794D01*
X41894128Y55999798D01*
X41759282Y56050092D01*
X41759283Y56050092D01*
X41699683Y56056499D01*
X41699681Y56056500D01*
X41699673Y56056500D01*
X41699664Y56056500D01*
X39203929Y56056500D01*
X39203923Y56056499D01*
X39144316Y56050092D01*
X39009471Y55999798D01*
X39009464Y55999794D01*
X38894255Y55913548D01*
X38894252Y55913545D01*
X38808006Y55798336D01*
X38808002Y55798329D01*
X38757708Y55663483D01*
X38751301Y55603884D01*
X38751301Y55603877D01*
X38751300Y55603865D01*
X38751300Y55080858D01*
X38731615Y55013819D01*
X38678811Y54968064D01*
X38609653Y54958120D01*
X38546097Y54987145D01*
X38511872Y55035555D01*
X38488193Y55095888D01*
X38360759Y55316612D01*
X38201850Y55515877D01*
X38015017Y55689232D01*
X37804434Y55832805D01*
X37804430Y55832807D01*
X37804427Y55832809D01*
X37804426Y55832810D01*
X37574806Y55943388D01*
X37574808Y55943388D01*
X37331266Y56018511D01*
X37331262Y56018512D01*
X37331258Y56018513D01*
X37210031Y56036786D01*
X37079240Y56056500D01*
X37079235Y56056500D01*
X36824365Y56056500D01*
X36824359Y56056500D01*
X36667409Y56032843D01*
X36572342Y56018513D01*
X36572339Y56018512D01*
X36572333Y56018511D01*
X36328792Y55943388D01*
X36099173Y55832810D01*
X36099172Y55832809D01*
X35888582Y55689232D01*
X35701752Y55515879D01*
X35701750Y55515877D01*
X35542841Y55316612D01*
X35415408Y55095891D01*
X35322292Y54858638D01*
X35320922Y54854196D01*
X35319477Y54854642D01*
X35288580Y54799407D01*
X35226917Y54766551D01*
X35157280Y54772248D01*
X35101778Y54814689D01*
X35083605Y54854483D01*
X35082678Y54854196D01*
X35081309Y54858631D01*
X35081308Y54858637D01*
X34988193Y55095888D01*
X34860759Y55316612D01*
X34701850Y55515877D01*
X34515017Y55689232D01*
X34304434Y55832805D01*
X34304430Y55832807D01*
X34304427Y55832809D01*
X34304426Y55832810D01*
X34074806Y55943388D01*
X34074808Y55943388D01*
X33831266Y56018511D01*
X33831262Y56018512D01*
X33831258Y56018513D01*
X33710031Y56036786D01*
X33579240Y56056500D01*
X33579235Y56056500D01*
X33324365Y56056500D01*
X33324359Y56056500D01*
X33167409Y56032843D01*
X33072342Y56018513D01*
X33072339Y56018512D01*
X33072333Y56018511D01*
X32828792Y55943388D01*
X32599173Y55832810D01*
X32599172Y55832809D01*
X32388582Y55689232D01*
X32201752Y55515879D01*
X32201750Y55515877D01*
X32042841Y55316612D01*
X31915408Y55095891D01*
X31822292Y54858638D01*
X31822290Y54858631D01*
X31765577Y54610155D01*
X31746532Y54356005D01*
X31746532Y54355996D01*
X31765577Y54101846D01*
X31821343Y53857518D01*
X31822292Y53853363D01*
X31915407Y53616112D01*
X32042841Y53395388D01*
X32174247Y53230611D01*
X32200655Y53165926D01*
X32201300Y53153299D01*
X32201300Y50476978D01*
X32181615Y50409939D01*
X32150185Y50376660D01*
X32000587Y50267972D01*
X32000582Y50267968D01*
X31855828Y50123214D01*
X31735515Y49957614D01*
X31642581Y49775224D01*
X31579322Y49580535D01*
X31547300Y49378352D01*
X31547300Y49173649D01*
X31579322Y48971466D01*
X31642581Y48776777D01*
X31735515Y48594387D01*
X31855828Y48428787D01*
X32000586Y48284029D01*
X32166185Y48163716D01*
X32166187Y48163715D01*
X32166190Y48163713D01*
X32242198Y48124985D01*
X32292994Y48077010D01*
X32309789Y48009189D01*
X32287252Y47943054D01*
X32232536Y47899603D01*
X32185903Y47890500D01*
X29304161Y47890500D01*
X29237122Y47910185D01*
X29216480Y47926819D01*
X26698816Y50444484D01*
X26665331Y50505807D01*
X26670315Y50575499D01*
X26681508Y50598144D01*
X26682922Y50600394D01*
X26740641Y50765343D01*
X26755300Y50895448D01*
X26755300Y52232552D01*
X26740641Y52362657D01*
X26682922Y52527606D01*
X26589947Y52675576D01*
X26466376Y52799147D01*
X26318406Y52892122D01*
X26318405Y52892123D01*
X26318404Y52892123D01*
X26153458Y52949841D01*
X26153448Y52949843D01*
X26023358Y52964500D01*
X26023352Y52964500D01*
X25609300Y52964500D01*
X25542261Y52984185D01*
X25496506Y53036989D01*
X25485300Y53088500D01*
X25485300Y54302555D01*
X25485299Y54302559D01*
X25470642Y54432649D01*
X25470641Y54432651D01*
X25470641Y54432657D01*
X25412922Y54597606D01*
X25319947Y54745576D01*
X25196376Y54869147D01*
X25048406Y54962122D01*
X25048405Y54962123D01*
X25048404Y54962123D01*
X24883458Y55019841D01*
X24883448Y55019843D01*
X24753358Y55034500D01*
X24753352Y55034500D01*
X24116248Y55034500D01*
X24116241Y55034500D01*
X23986151Y55019843D01*
X23986141Y55019841D01*
X23821195Y54962123D01*
X23673223Y54869147D01*
X23549653Y54745577D01*
X23456677Y54597605D01*
X23398959Y54432659D01*
X23398957Y54432649D01*
X23384300Y54302559D01*
X23384300Y53088500D01*
X23364615Y53021461D01*
X23311811Y52975706D01*
X23260300Y52964500D01*
X22566929Y52964500D01*
X22566923Y52964499D01*
X22507316Y52958092D01*
X22372471Y52907798D01*
X22372464Y52907794D01*
X22257255Y52821548D01*
X22257252Y52821545D01*
X22171006Y52706336D01*
X22171002Y52706329D01*
X22120708Y52571483D01*
X22114301Y52511884D01*
X22114300Y52511865D01*
X22114300Y52238362D01*
X22094615Y52171323D01*
X22077981Y52150681D01*
X20902119Y50974819D01*
X20840796Y50941334D01*
X20814438Y50938500D01*
X19924364Y50938500D01*
X19750399Y50903897D01*
X19750390Y50903894D01*
X19586517Y50836017D01*
X19586505Y50836010D01*
X19457349Y50749710D01*
X19457349Y50749709D01*
X19445211Y50741599D01*
X19439017Y50737460D01*
X19439016Y50737459D01*
X17380591Y48679035D01*
X17340364Y48652155D01*
X17277253Y48626014D01*
X17225061Y48591139D01*
X17225060Y48591138D01*
X17129763Y48527464D01*
X17050474Y48448174D01*
X17004336Y48402036D01*
X16995872Y48389368D01*
X16905790Y48254553D01*
X16905783Y48254541D01*
X16882570Y48198497D01*
X16882566Y48198487D01*
X16879641Y48191427D01*
X16852765Y48151208D01*
X14926377Y46224819D01*
X14865054Y46191334D01*
X14838696Y46188500D01*
X12995419Y46188500D01*
X12928380Y46208185D01*
X12907738Y46224819D01*
X12798982Y46333575D01*
X12765497Y46394898D01*
X12770481Y46464590D01*
X12812353Y46520523D01*
X12834249Y46533633D01*
X13022534Y46621432D01*
X13208939Y46751953D01*
X13369847Y46912861D01*
X13500368Y47099266D01*
X13596539Y47305504D01*
X13655435Y47525308D01*
X13675268Y47752000D01*
X13655435Y47978692D01*
X13598433Y48191427D01*
X13596541Y48198489D01*
X13596538Y48198497D01*
X13500368Y48404734D01*
X13369847Y48591139D01*
X13369845Y48591142D01*
X13306619Y48654368D01*
X13273134Y48715691D01*
X13270300Y48742049D01*
X13270300Y51142694D01*
X13270299Y51142696D01*
X13235696Y51316659D01*
X13235693Y51316668D01*
X13167816Y51480541D01*
X13167809Y51480554D01*
X13069265Y51628034D01*
X13008276Y51689023D01*
X12943835Y51753464D01*
X10524811Y54172489D01*
X14303900Y54172489D01*
X14303900Y53929912D01*
X14324340Y53774647D01*
X14335562Y53689411D01*
X14355203Y53616112D01*
X14398347Y53455096D01*
X14423079Y53395389D01*
X14491176Y53230988D01*
X14612464Y53020911D01*
X14612466Y53020908D01*
X14612467Y53020907D01*
X14760133Y52828464D01*
X14760139Y52828457D01*
X14931656Y52656940D01*
X14931663Y52656934D01*
X14978594Y52620923D01*
X15124111Y52509264D01*
X15334188Y52387976D01*
X15558300Y52295146D01*
X15792611Y52232362D01*
X15972986Y52208616D01*
X16033111Y52200700D01*
X16033112Y52200700D01*
X16275689Y52200700D01*
X16323788Y52207033D01*
X16516189Y52232362D01*
X16750500Y52295146D01*
X16974612Y52387976D01*
X17184689Y52509264D01*
X17377138Y52656935D01*
X17548665Y52828462D01*
X17696336Y53020911D01*
X17817624Y53230988D01*
X17910454Y53455100D01*
X17973238Y53689411D01*
X18004900Y53929912D01*
X18004900Y54172488D01*
X17973238Y54412989D01*
X17910454Y54647300D01*
X17817624Y54871412D01*
X17696336Y55081489D01*
X17548665Y55273938D01*
X17548660Y55273944D01*
X17377143Y55445461D01*
X17377136Y55445467D01*
X17276816Y55522445D01*
X19307656Y55522445D01*
X31406096Y55522445D01*
X31406096Y58339097D01*
X19307656Y58339097D01*
X19307656Y55522445D01*
X17276816Y55522445D01*
X17184693Y55593133D01*
X17184692Y55593134D01*
X17184689Y55593136D01*
X16974612Y55714424D01*
X16974605Y55714427D01*
X16750504Y55807253D01*
X16516185Y55870039D01*
X16275689Y55901700D01*
X16275688Y55901700D01*
X16033112Y55901700D01*
X16033111Y55901700D01*
X15792614Y55870039D01*
X15558295Y55807253D01*
X15334194Y55714427D01*
X15334185Y55714423D01*
X15124106Y55593133D01*
X14931663Y55445467D01*
X14931656Y55445461D01*
X14760139Y55273944D01*
X14760133Y55273937D01*
X14612467Y55081494D01*
X14491177Y54871415D01*
X14491173Y54871406D01*
X14398347Y54647305D01*
X14335561Y54412986D01*
X14303900Y54172489D01*
X10524811Y54172489D01*
X8371836Y56325464D01*
X8371835Y56325465D01*
X8371830Y56325469D01*
X8312761Y56364936D01*
X8312760Y56364937D01*
X8224344Y56424015D01*
X8224342Y56424016D01*
X8142407Y56457954D01*
X8142406Y56457954D01*
X8060466Y56491895D01*
X8060458Y56491897D01*
X7886496Y56526500D01*
X7886492Y56526500D01*
X7886491Y56526500D01*
X3568492Y56526500D01*
X3391108Y56526500D01*
X3391103Y56526500D01*
X3217141Y56491897D01*
X3217129Y56491894D01*
X3135192Y56457955D01*
X3135193Y56457954D01*
X3053255Y56424015D01*
X2964840Y56364937D01*
X2964839Y56364936D01*
X2905761Y56325463D01*
X1764337Y55184039D01*
X1724864Y55124961D01*
X1724863Y55124960D01*
X1665785Y55036545D01*
X1631846Y54954607D01*
X1597906Y54872671D01*
X1597903Y54872659D01*
X1563300Y54698697D01*
X1563300Y40297304D01*
X1597903Y40123341D01*
X1597904Y40123337D01*
X1597905Y40123334D01*
X1619792Y40070496D01*
X1665784Y39959458D01*
X1665785Y39959457D01*
X1665787Y39959453D01*
X1717973Y39881352D01*
X1718820Y39880085D01*
X1718820Y39880084D01*
X1764337Y39811962D01*
X3105863Y38470436D01*
X3139348Y38409113D01*
X3141711Y38371954D01*
X3140141Y38353999D01*
X3160736Y38118597D01*
X3160738Y38118587D01*
X3221894Y37890345D01*
X3221896Y37890341D01*
X3221897Y37890337D01*
X3304955Y37712219D01*
X3321765Y37676170D01*
X3321767Y37676166D01*
X3417330Y37539689D01*
X3457301Y37482604D01*
X3457306Y37482598D01*
X3624397Y37315507D01*
X3624403Y37315502D01*
X3809958Y37185575D01*
X3853583Y37130998D01*
X3860777Y37061500D01*
X3829254Y36999145D01*
X3809958Y36982425D01*
X3624397Y36852495D01*
X3457305Y36685403D01*
X3321765Y36491831D01*
X3321764Y36491829D01*
X3221898Y36277665D01*
X3221894Y36277656D01*
X3160738Y36049414D01*
X3160736Y36049404D01*
X3140141Y35814001D01*
X3140141Y35814000D01*
X3160736Y35578597D01*
X3160738Y35578587D01*
X3221894Y35350345D01*
X3221896Y35350341D01*
X3221897Y35350337D01*
X3297614Y35187962D01*
X3321765Y35136170D01*
X3321767Y35136166D01*
X3405917Y35015988D01*
X3457301Y34942604D01*
X3457306Y34942598D01*
X3624397Y34775507D01*
X3624403Y34775502D01*
X3809958Y34645575D01*
X3853583Y34590998D01*
X3860777Y34521500D01*
X3829254Y34459145D01*
X3809958Y34442425D01*
X3624397Y34312495D01*
X3457305Y34145403D01*
X3321765Y33951831D01*
X3321764Y33951829D01*
X3242317Y33781453D01*
X3221898Y33737664D01*
X3221894Y33737656D01*
X3160738Y33509414D01*
X3160736Y33509404D01*
X3140141Y33274001D01*
X3140141Y33274000D01*
X3160736Y33038597D01*
X3160738Y33038587D01*
X3221894Y32810345D01*
X3221896Y32810341D01*
X3221897Y32810337D01*
X3316503Y32607454D01*
X3321765Y32596170D01*
X3321767Y32596166D01*
X3397973Y32487334D01*
X3457301Y32402604D01*
X3457306Y32402598D01*
X3624397Y32235507D01*
X3624403Y32235502D01*
X3809958Y32105575D01*
X3853583Y32050998D01*
X3860777Y31981500D01*
X3829254Y31919145D01*
X3809958Y31902425D01*
X3624397Y31772495D01*
X3457305Y31605403D01*
X3321765Y31411831D01*
X3321764Y31411829D01*
X3221898Y31197665D01*
X3221894Y31197656D01*
X3160738Y30969414D01*
X3160736Y30969404D01*
X3140141Y30734001D01*
X3140141Y30734000D01*
X3160736Y30498597D01*
X3160738Y30498587D01*
X3221894Y30270345D01*
X3221896Y30270341D01*
X3221897Y30270337D01*
X3304955Y30092219D01*
X3321765Y30056170D01*
X3321767Y30056166D01*
X3344773Y30023311D01*
X3457301Y29862604D01*
X3457306Y29862598D01*
X3624397Y29695507D01*
X3624403Y29695502D01*
X3809958Y29565575D01*
X3853583Y29510998D01*
X3860777Y29441500D01*
X3829254Y29379145D01*
X3809958Y29362425D01*
X3624397Y29232495D01*
X3457307Y29065404D01*
X3321765Y28871831D01*
X3321764Y28871829D01*
X3221898Y28657665D01*
X3221894Y28657656D01*
X3160738Y28429414D01*
X3160736Y28429404D01*
X3140141Y28194001D01*
X3140141Y28194000D01*
X3160736Y27958597D01*
X3160738Y27958587D01*
X3221894Y27730345D01*
X3221896Y27730341D01*
X3221897Y27730337D01*
X3225800Y27721968D01*
X3321765Y27516170D01*
X3321767Y27516166D01*
X3380702Y27431999D01*
X3457301Y27322604D01*
X3457306Y27322598D01*
X3624397Y27155507D01*
X3624403Y27155502D01*
X3809958Y27025575D01*
X3853583Y26970998D01*
X3860777Y26901500D01*
X3829254Y26839145D01*
X3809958Y26822425D01*
X3624397Y26692495D01*
X3457305Y26525403D01*
X3321765Y26331831D01*
X3321764Y26331829D01*
X3221898Y26117665D01*
X3221894Y26117656D01*
X3160738Y25889414D01*
X3160736Y25889404D01*
X3140141Y25654001D01*
X3140141Y25654000D01*
X3160736Y25418597D01*
X3160738Y25418587D01*
X3221894Y25190345D01*
X3221896Y25190341D01*
X3221897Y25190337D01*
X3300550Y25021665D01*
X3321765Y24976170D01*
X3321767Y24976166D01*
X3370581Y24906453D01*
X3457301Y24782604D01*
X3457306Y24782598D01*
X3624397Y24615507D01*
X3624403Y24615502D01*
X3654056Y24594739D01*
X3790522Y24499184D01*
X3810394Y24485270D01*
X3854019Y24430693D01*
X3861213Y24361195D01*
X3829690Y24298840D01*
X3810395Y24282120D01*
X3624722Y24152110D01*
X3624720Y24152109D01*
X3457691Y23985080D01*
X3457686Y23985074D01*
X3322200Y23791580D01*
X3322199Y23791578D01*
X3222370Y23577493D01*
X3222367Y23577487D01*
X3165164Y23364001D01*
X3165164Y23364000D01*
X4062788Y23364000D01*
X4029875Y23306993D01*
X3995800Y23179826D01*
X3995800Y23048174D01*
X4029875Y22921007D01*
X4062788Y22864000D01*
X3165164Y22864000D01*
X3222367Y22650514D01*
X3222370Y22650508D01*
X3322199Y22436422D01*
X3457694Y22242918D01*
X3624717Y22075895D01*
X3810395Y21945881D01*
X3854019Y21891304D01*
X3861212Y21821805D01*
X3829690Y21759451D01*
X3810395Y21742731D01*
X3624394Y21612492D01*
X3457305Y21445403D01*
X3321765Y21251831D01*
X3321764Y21251829D01*
X3221898Y21037665D01*
X3221894Y21037656D01*
X3160738Y20809414D01*
X3160736Y20809404D01*
X3140141Y20574001D01*
X3140141Y20574000D01*
X3160736Y20338597D01*
X3160738Y20338587D01*
X3221894Y20110345D01*
X3221896Y20110341D01*
X3221897Y20110337D01*
X3300550Y19941665D01*
X3321765Y19896170D01*
X3321767Y19896166D01*
X3374638Y19820659D01*
X3457301Y19702604D01*
X3457306Y19702598D01*
X3624397Y19535507D01*
X3624403Y19535502D01*
X3809958Y19405575D01*
X3853583Y19350998D01*
X3860777Y19281500D01*
X3829254Y19219145D01*
X3809958Y19202425D01*
X3624397Y19072495D01*
X3457305Y18905403D01*
X3321765Y18711831D01*
X3321764Y18711829D01*
X3221898Y18497665D01*
X3221894Y18497656D01*
X3160738Y18269414D01*
X3160736Y18269404D01*
X3140141Y18034002D01*
X3141711Y18016048D01*
X3127941Y17947548D01*
X3105863Y17917565D01*
X494337Y15306039D01*
X462636Y15258593D01*
X462635Y15258592D01*
X395790Y15158553D01*
X395785Y15158544D01*
X372158Y15101501D01*
X328672Y14996517D01*
X327905Y14994666D01*
X295244Y14830464D01*
X293300Y14820691D01*
X6323Y14820691D01*
X10530Y24683184D01*
X25347Y59413654D01*
X45060Y59480684D01*
X97884Y59526416D01*
X149347Y59537600D01*
X90452453Y59537600D01*
X90519492Y59517915D01*
G37*
%TD.AperFunction*%
%TD*%
M02*
