M48
; DRILL file {KiCad 8.0.2} date 2024-06-07T10:01:47+0200
; FORMAT={-:-/ absolute / metric / decimal}
; #@! TF.CreationDate,2024-06-07T10:01:47+02:00
; #@! TF.GenerationSoftware,Kicad,Pcbnew,8.0.2
; #@! TF.FileFunction,Plated,1,2,PTH
FMAT,2
METRIC
; #@! TA.AperFunction,Plated,PTH,ComponentDrill
T1C0.750
; #@! TA.AperFunction,Plated,PTH,ComponentDrill
T2C0.800
; #@! TA.AperFunction,Plated,PTH,ComponentDrill
T3C1.000
; #@! TA.AperFunction,Plated,PTH,ComponentDrill
T4C1.200
%
G90
G05
T1
X23.165Y51.964
X23.165Y46.884
X23.165Y41.804
X23.165Y36.724
X23.165Y31.644
X23.165Y26.564
X23.165Y21.484
X23.165Y16.404
X23.165Y11.324
X23.165Y6.244
X24.435Y53.234
X24.435Y48.154
X24.435Y43.074
X24.435Y37.994
X24.435Y32.914
X24.435Y27.834
X24.435Y22.754
X24.435Y17.674
X24.435Y12.594
X24.435Y7.514
X25.705Y51.964
X25.705Y46.884
X25.705Y41.804
X25.705Y36.724
X25.705Y31.644
X25.705Y26.564
X25.705Y21.484
X25.705Y16.404
X25.705Y11.324
X25.705Y6.244
T2
X12.37Y47.752
X12.37Y43.688
X12.37Y39.624
X12.37Y35.56
X12.37Y31.496
X12.37Y27.432
X12.37Y23.368
X12.37Y19.304
X12.37Y15.24
X12.37Y11.176
X19.99Y47.752
X19.99Y43.688
X19.99Y39.624
X19.99Y35.56
X19.99Y31.496
X19.99Y27.432
X19.99Y23.368
X19.99Y19.304
X19.99Y15.24
X19.99Y11.176
T3
X4.496Y53.594
X4.496Y51.054
X4.496Y48.514
X4.496Y45.974
X4.496Y43.434
X4.496Y40.894
X4.496Y38.354
X4.496Y35.814
X4.496Y33.274
X4.496Y30.734
X4.496Y28.194
X4.496Y25.654
X4.496Y23.114
X4.496Y20.574
X4.496Y18.034
X4.496Y15.494
X4.496Y12.954
X4.496Y10.414
X4.496Y7.874
X4.496Y5.334
X7.036Y53.594
X7.036Y51.054
X7.036Y48.514
X7.036Y45.974
X7.036Y43.434
X7.036Y40.894
X7.036Y38.354
X7.036Y35.814
X7.036Y33.274
X7.036Y30.734
X7.036Y28.194
X7.036Y25.654
X7.036Y23.114
X7.036Y20.574
X7.036Y18.034
X7.036Y15.494
X7.036Y12.954
X7.036Y10.414
X7.036Y7.874
X7.036Y5.334
X33.198Y49.276
X33.198Y46.736
X33.198Y36.576
X33.198Y22.606
X33.198Y12.446
X33.198Y9.906
X40.818Y49.276
X40.818Y46.736
X40.818Y36.576
X40.818Y22.606
X40.818Y12.446
X40.818Y9.906
X44.882Y49.276
X44.882Y46.736
X44.882Y36.576
X44.882Y22.606
X44.882Y12.446
X44.882Y9.906
X52.502Y49.276
X52.502Y46.736
X52.502Y36.576
X52.502Y22.606
X52.502Y12.446
X52.502Y9.906
X56.566Y49.276
X56.566Y46.736
X56.566Y36.576
X56.566Y22.606
X56.566Y12.446
X56.566Y9.906
X64.186Y49.276
X64.186Y46.736
X64.186Y36.576
X64.186Y22.606
X64.186Y12.446
X64.186Y9.906
X68.25Y49.276
X68.25Y46.736
X68.25Y36.576
X68.25Y22.606
X68.25Y12.446
X68.25Y9.906
X75.87Y49.276
X75.87Y46.736
X75.87Y36.576
X75.87Y22.606
X75.87Y12.446
X75.87Y9.906
X79.934Y49.276
X79.934Y46.736
X79.934Y36.576
X79.934Y22.606
X79.934Y12.446
X79.934Y9.906
X87.554Y49.276
X87.554Y46.736
X87.554Y36.576
X87.554Y22.606
X87.554Y12.446
X87.554Y9.906
T4
X33.452Y54.356
X33.452Y5.08
X36.952Y54.356
X36.952Y5.08
X40.452Y54.356
X40.452Y5.08
X45.136Y54.356
X45.136Y5.08
X48.636Y54.356
X48.636Y5.08
X52.136Y54.356
X52.136Y5.08
X56.82Y54.356
X56.82Y5.08
X60.32Y54.356
X60.32Y5.08
X63.82Y54.356
X63.82Y5.08
X68.504Y54.356
X68.504Y5.08
X72.004Y54.356
X72.004Y5.08
X75.504Y54.356
X75.504Y5.08
X80.188Y54.356
X80.188Y5.08
X83.688Y54.356
X83.688Y5.08
X87.188Y54.356
X87.188Y5.08
M30
