M48
; DRILL file {KiCad 8.0.2} date 2024-06-12T10:50:55+0200
; FORMAT={-:-/ absolute / metric / decimal}
; #@! TF.CreationDate,2024-06-12T10:50:55+02:00
; #@! TF.GenerationSoftware,Kicad,Pcbnew,8.0.2
; #@! TF.FileFunction,Plated,1,2,PTH
FMAT,2
METRIC
; #@! TA.AperFunction,Plated,PTH,ComponentDrill
T1C0.800
; #@! TA.AperFunction,Plated,PTH,ComponentDrill
T2C1.000
; #@! TA.AperFunction,Plated,PTH,ComponentDrill
T3C1.300
%
G90
G05
T1
X20.727Y48.306
X20.727Y44.242
X20.727Y40.178
X20.727Y36.114
X20.727Y32.05
X20.727Y27.986
X20.727Y23.922
X20.727Y19.858
X20.727Y15.794
X20.727Y11.73
X28.347Y48.306
X28.347Y44.242
X28.347Y40.178
X28.347Y36.114
X28.347Y32.05
X28.347Y27.986
X28.347Y23.922
X28.347Y19.858
X28.347Y15.794
X28.347Y11.73
X31.777Y27.7
X31.782Y14.0
X31.787Y55.012
X31.787Y46.097
X31.787Y41.525
X31.787Y32.254
X31.787Y23.11
X31.787Y18.538
X31.787Y9.394
X31.8Y36.9
X34.317Y27.7
X34.322Y14.0
X34.327Y55.012
X34.327Y46.097
X34.327Y41.525
X34.327Y32.254
X34.327Y23.11
X34.327Y18.538
X34.327Y9.394
X34.34Y36.9
X36.857Y27.7
X36.862Y14.0
X36.867Y55.012
X36.867Y46.097
X36.867Y41.525
X36.867Y32.254
X36.867Y23.11
X36.867Y18.538
X36.867Y9.394
X36.88Y36.9
T2
X12.853Y54.148
X12.853Y51.608
X12.853Y49.068
X12.853Y46.528
X12.853Y43.988
X12.853Y41.448
X12.853Y38.908
X12.853Y36.368
X12.853Y33.828
X12.853Y31.288
X12.853Y28.748
X12.853Y26.208
X12.853Y23.668
X12.853Y21.128
X12.853Y18.588
X12.853Y16.048
X12.853Y13.508
X12.853Y10.968
X12.853Y8.428
X12.853Y5.888
X15.393Y54.148
X15.393Y51.608
X15.393Y49.068
X15.393Y46.528
X15.393Y43.988
X15.393Y41.448
X15.393Y38.908
X15.393Y36.368
X15.393Y33.828
X15.393Y31.288
X15.393Y28.748
X15.393Y26.208
X15.393Y23.668
X15.393Y21.128
X15.393Y18.588
X15.393Y16.048
X15.393Y13.508
X15.393Y10.968
X15.393Y8.428
X15.393Y5.888
X43.759Y48.92
X43.759Y38.76
X43.759Y36.22
X43.759Y24.031
X43.759Y21.491
X43.759Y11.331
X51.379Y48.92
X51.379Y38.76
X51.379Y36.22
X51.379Y24.031
X51.379Y21.491
X51.379Y11.331
X54.681Y48.92
X54.681Y38.76
X54.681Y36.22
X54.808Y24.031
X54.808Y21.491
X54.808Y11.331
X62.301Y48.92
X62.301Y38.76
X62.301Y36.22
X62.428Y24.031
X62.428Y21.491
X62.428Y11.331
X65.857Y48.92
X65.857Y38.76
X65.857Y36.22
X65.857Y24.031
X65.857Y21.491
X65.857Y11.331
X73.477Y48.92
X73.477Y38.76
X73.477Y36.22
X73.477Y24.031
X73.477Y21.491
X73.477Y11.331
X76.906Y24.031
X76.906Y21.491
X76.906Y11.331
X77.033Y48.92
X77.033Y38.76
X77.033Y36.22
X84.526Y24.031
X84.526Y21.491
X84.526Y11.331
X84.653Y48.92
X84.653Y38.76
X84.653Y36.22
X87.955Y48.92
X87.955Y38.76
X87.955Y36.22
X87.955Y24.031
X87.955Y21.491
X87.955Y11.331
X95.575Y48.92
X95.575Y38.76
X95.575Y36.22
X95.575Y24.031
X95.575Y21.491
X95.575Y11.331
T3
X48.585Y55.651
X48.585Y4.609
X53.665Y55.651
X53.665Y4.609
X58.745Y55.651
X58.745Y4.6
X63.825Y55.651
X63.825Y4.6
X68.905Y55.651
X68.905Y4.6
X73.985Y55.651
X73.985Y4.6
X79.065Y55.651
X79.065Y4.6
X84.145Y55.651
X84.145Y4.6
X89.22Y4.6
X89.225Y55.651
X94.3Y4.6
X94.305Y55.651
M30
